STARTFONT 2.1
COMMENT
COMMENT Converted from OpenType font "GenBasR.ttf" by "otf2bdf 3.0".
COMMENT
FONT -FreeType-Gentium Basic-Medium-R-Normal--48-480-72-72-P-218-ISO10646-1
SIZE 48 72 72
FONTBOUNDINGBOX 71 68 -24 -17
STARTPROPERTIES 19
FOUNDRY "FreeType"
FAMILY_NAME "Gentium Basic"
WEIGHT_NAME "Medium"
SLANT "R"
SETWIDTH_NAME "Normal"
ADD_STYLE_NAME ""
PIXEL_SIZE 48
POINT_SIZE 480
RESOLUTION_X 72
RESOLUTION_Y 72
SPACING "P"
AVERAGE_WIDTH 218
CHARSET_REGISTRY "ISO10646"
CHARSET_ENCODING "1"
FONT_ASCENT 41
FONT_DESCENT 13
COPYRIGHT "Copyright (c) SIL International, 2003-2008."
_OTF_FONTFILE "GenBasR.ttf"
_OTF_PSNAME "GentiumBasic"
ENDPROPERTIES
CHARS 704
STARTCHAR 0020
ENCODING 32
SWIDTH 229 0
DWIDTH 11 0
BBX 0 0 0 0
BITMAP
ENDCHAR
STARTCHAR 0021
ENCODING 33
SWIDTH 270 0
DWIDTH 13 0
BBX 6 36 3 -1
BITMAP
0C
3C
7C
7C
7C
7C
7C
78
78
78
38
38
38
38
38
38
38
38
38
38
38
38
38
38
38
38
00
00
00
00
38
7C
FC
FC
F8
70
ENDCHAR
STARTCHAR 0022
ENCODING 34
SWIDTH 416 0
DWIDTH 20 0
BBX 13 16 4 19
BITMAP
3038
F0F8
F0F8
F0F0
F0F0
F0F0
F070
F070
F070
F070
7070
7070
6070
6070
6070
6070
ENDCHAR
STARTCHAR 0023
ENCODING 35
SWIDTH 479 0
DWIDTH 23 0
BBX 21 27 2 3
BITMAP
003060
0070E0
0060C0
00E0C0
00E1C0
00E1C0
00C180
01C380
1FFFF8
1FFFF8
038700
038700
030700
030600
070E00
070E00
060E00
FFFFC0
FFFFC0
0C1C00
0C1800
1C3800
1C3800
183000
387000
387000
306000
ENDCHAR
STARTCHAR 0024
ENCODING 36
SWIDTH 479 0
DWIDTH 23 0
BBX 20 36 1 -4
BITMAP
006000
006000
006000
006000
03FE00
0FFF80
3E7FC0
786780
706380
F06000
F06000
F06000
F86000
7E6000
7FE000
3FF000
0FFE00
01FF00
007FC0
006FE0
0063E0
0061F0
0060F0
0060F0
4060F0
6060F0
7060E0
7861E0
7C63C0
7FFF80
1FFF00
07F800
006000
006000
006000
006000
ENDCHAR
STARTCHAR 0025
ENCODING 37
SWIDTH 708 0
DWIDTH 34 0
BBX 31 30 1 -1
BITMAP
07C00060
1FE001F0
3CF001C0
787803C0
70780780
F03C0700
F03C0E00
F03C1E00
F03C3C00
F03C3800
F03C7800
7838F000
7878E000
3CF1C000
1FE3C3E0
0F878FF0
00071E78
000F3C3C
001E383C
001C781E
0038781E
0078781E
00F0781E
00E0781E
01C0781E
03C03C1C
03803C3C
07001E78
0F000FF0
0C0007C0
ENDCHAR
STARTCHAR 0026
ENCODING 38
SWIDTH 666 0
DWIDTH 32 0
BBX 30 34 2 0
BITMAP
003F0000
00FF8000
01C7C000
0383E000
0701E000
0701E000
0F01E000
0F01E000
0F03E000
0F03C000
0F87C000
0F8F8000
07BF0000
07FE0000
07F80000
07F00000
0FF03FF8
1FF07FFC
3E781E30
3C7C0F00
7C3C0F00
781E0700
F01F0700
F00F8700
F007C600
F003C600
F003EC00
F001FC00
F800FC00
78007E00
3C00FF00
3F038FC8
0FFF07F0
03F803C0
ENDCHAR
STARTCHAR 0027
ENCODING 39
SWIDTH 250 0
DWIDTH 12 0
BBX 4 16 4 19
BITMAP
30
F0
F0
F0
F0
F0
F0
F0
F0
F0
70
70
60
60
60
60
ENDCHAR
STARTCHAR 0028
ENCODING 40
SWIDTH 312 0
DWIDTH 15 0
BBX 11 45 3 -7
BITMAP
0020
00E0
01C0
0380
0380
0700
0E00
0E00
1C00
1C00
3C00
3800
3800
7800
7800
7800
7000
F000
F000
F000
F000
F000
F000
F000
F000
F000
F000
F000
F000
7800
7800
7800
7800
3800
3C00
3C00
1C00
1E00
0E00
0F00
0700
0380
01C0
00E0
0020
ENDCHAR
STARTCHAR 0029
ENCODING 41
SWIDTH 312 0
DWIDTH 15 0
BBX 11 45 1 -7
BITMAP
8000
E000
7000
3800
1C00
1E00
0E00
0F00
0700
0780
0780
0380
03C0
03C0
03C0
03C0
01E0
01E0
01E0
01E0
01E0
01E0
01E0
01E0
01E0
01E0
01E0
01E0
01C0
03C0
03C0
03C0
0380
0380
0780
0700
0F00
0E00
0E00
1C00
3800
3800
7000
E000
8000
ENDCHAR
STARTCHAR 002A
ENCODING 42
SWIDTH 437 0
DWIDTH 21 0
BBX 18 20 2 17
BITMAP
00C000
01C000
01C000
01C000
C1C100
F0C3C0
F8CFC0
7CDF00
0FFC00
03E000
03E000
0FFC00
3CDF00
F8CF80
F0C380
40C180
01C000
01C000
01C000
018000
ENDCHAR
STARTCHAR 002B
ENCODING 43
SWIDTH 416 0
DWIDTH 20 0
BBX 17 17 1 5
BITMAP
00C000
01C000
01C000
01C000
01C000
01C000
01C000
01C000
FFFF80
FFFF80
01C000
01C000
01C000
01C000
01C000
01C000
018000
ENDCHAR
STARTCHAR 002C
ENCODING 44
SWIDTH 229 0
DWIDTH 11 0
BBX 7 13 2 -7
BITMAP
08
3C
FE
FE
1E
1E
1E
1C
1C
38
30
60
40
ENDCHAR
STARTCHAR 002D
ENCODING 45
SWIDTH 333 0
DWIDTH 16 0
BBX 14 2 1 11
BITMAP
7FFC
FFF8
ENDCHAR
STARTCHAR 002E
ENCODING 46
SWIDTH 229 0
DWIDTH 11 0
BBX 6 6 3 -1
BITMAP
38
7C
FC
FC
F8
70
ENDCHAR
STARTCHAR 002F
ENCODING 47
SWIDTH 479 0
DWIDTH 23 0
BBX 20 46 1 -8
BITMAP
000030
0000F0
0000F0
0000E0
0001E0
0001C0
0001C0
0003C0
000380
000780
000780
000700
000F00
000F00
000E00
001E00
001C00
001C00
003C00
003800
007800
007800
007000
00F000
00E000
00E000
01E000
01C000
03C000
03C000
038000
078000
078000
070000
0F0000
0E0000
1E0000
1E0000
1C0000
3C0000
3C0000
380000
780000
700000
F00000
C00000
ENDCHAR
STARTCHAR 0030
ENCODING 48
SWIDTH 479 0
DWIDTH 23 0
BBX 19 29 2 0
BITMAP
01F800
07FC00
0E1E00
1C0F00
180780
380780
3803C0
7003C0
7003C0
7003E0
F001E0
F001E0
F001E0
F001E0
F001E0
F001E0
F001E0
F001E0
F001E0
F001C0
7801C0
7803C0
780380
3C0380
3C0300
1E0700
0F0E00
07FC00
03F000
ENDCHAR
STARTCHAR 0031
ENCODING 49
SWIDTH 479 0
DWIDTH 23 0
BBX 17 29 3 0
BITMAP
006000
01E000
0FE000
7FE000
FFE000
01E000
01E000
01E000
01E000
01E000
01E000
01E000
01E000
01E000
01E000
01E000
01E000
01E000
01E000
01E000
01E000
01E000
01E000
01E000
01E000
01E000
03F000
3FFE00
7FFF80
ENDCHAR
STARTCHAR 0032
ENCODING 50
SWIDTH 458 0
DWIDTH 22 0
BBX 17 29 2 0
BITMAP
01F800
07FE00
1C1F00
380F00
780F80
700780
F00780
E00780
000780
000780
000F00
000F00
001E00
001E00
003C00
007800
00F000
00F000
01E000
03C000
078000
0F0000
0F0000
1E0080
3C0080
780080
F00180
FFFF80
FFFF80
ENDCHAR
STARTCHAR 0033
ENCODING 51
SWIDTH 458 0
DWIDTH 22 0
BBX 18 29 1 0
BITMAP
01F800
07FE00
1E1F00
3C0F00
380780
780780
700780
000780
000700
000F00
001E00
003C00
00F800
03FE00
003F00
000F80
000780
0003C0
0003C0
0003C0
0003C0
0003C0
0003C0
000780
800780
E00F00
783E00
3FFC00
07E000
ENDCHAR
STARTCHAR 0034
ENCODING 52
SWIDTH 479 0
DWIDTH 23 0
BBX 19 29 1 0
BITMAP
000300
000F00
001F00
003F00
007F00
007F00
00EF00
00CF00
01CF00
038F00
038F00
070F00
0E0F00
0E0F00
1C0F00
180F00
380F00
700F00
700F00
FFFFE0
FFFFC0
000F00
000F00
000F00
000F00
000F00
000F00
003F80
01FFE0
ENDCHAR
STARTCHAR 0035
ENCODING 53
SWIDTH 479 0
DWIDTH 23 0
BBX 18 29 2 0
BITMAP
000080
000180
1FFF00
1FFE00
180000
180000
180000
180000
380000
380000
380000
3FF000
3FFC00
783F00
200F00
000780
0007C0
0003C0
0003C0
0003C0
0003C0
0003C0
000380
000780
800780
E00F00
783E00
3FFC00
07F000
ENDCHAR
STARTCHAR 0036
ENCODING 54
SWIDTH 479 0
DWIDTH 23 0
BBX 18 29 3 0
BITMAP
000700
003F00
00F800
01E000
03C000
0F0000
0E0000
1E0000
3C0000
380000
780000
78F800
77FE00
FE1F00
F80F80
F00780
F007C0
F003C0
F003C0
F003C0
F003C0
F803C0
780380
780380
3C0780
3C0700
1F0E00
0FFC00
03F000
ENDCHAR
STARTCHAR 0037
ENCODING 55
SWIDTH 479 0
DWIDTH 23 0
BBX 19 27 2 0
BITMAP
7FFFC0
7FFFE0
6001C0
4003C0
C00380
000380
000700
000700
000E00
000E00
001C00
001C00
003800
003800
003800
007000
007000
00E000
00E000
01C000
01C000
03C000
078000
078000
0F0000
0F0000
1C0000
ENDCHAR
STARTCHAR 0038
ENCODING 56
SWIDTH 458 0
DWIDTH 22 0
BBX 18 29 2 0
BITMAP
03F800
0FFE00
1C1F00
380F00
300780
700780
700780
700780
700700
780F00
3E1E00
1FBC00
0FF000
03FC00
07FE00
1E3F00
3C0F80
7807C0
7007C0
F003C0
F003C0
F003C0
F003C0
F00380
780780
7C0700
3E0E00
1FFC00
07E000
ENDCHAR
STARTCHAR 0039
ENCODING 57
SWIDTH 479 0
DWIDTH 23 0
BBX 19 30 2 -1
BITMAP
01F800
07FE00
0E1F00
1C0F80
380780
7803C0
7003C0
F003E0
F001E0
F001E0
F001E0
F001E0
F801E0
7803E0
7C07E0
3E0DE0
1FF9E0
07E1C0
0003C0
0003C0
000780
000780
000F00
001E00
003C00
007800
00F000
03E000
1F8000
380000
ENDCHAR
STARTCHAR 003A
ENCODING 58
SWIDTH 229 0
DWIDTH 11 0
BBX 6 23 3 -1
BITMAP
38
7C
FC
FC
F8
70
00
00
00
00
00
00
00
00
00
00
00
38
7C
FC
FC
F8
70
ENDCHAR
STARTCHAR 003B
ENCODING 59
SWIDTH 229 0
DWIDTH 11 0
BBX 7 29 2 -7
BITMAP
1C
3E
7E
7E
7C
38
00
00
00
00
00
00
00
00
00
00
08
3C
FE
FE
1E
1E
1E
1C
1C
38
30
60
40
ENDCHAR
STARTCHAR 003C
ENCODING 60
SWIDTH 437 0
DWIDTH 21 0
BBX 19 15 1 6
BITMAP
000060
0003C0
001FC0
007F00
03FC00
1FE000
7F0000
7C0000
FE0000
3FC000
07F000
01FE00
003FC0
0007E0
000180
ENDCHAR
STARTCHAR 003D
ENCODING 61
SWIDTH 437 0
DWIDTH 21 0
BBX 19 9 1 9
BITMAP
7FFFE0
FFFFC0
000000
000000
000000
000000
000000
7FFFE0
FFFFC0
ENDCHAR
STARTCHAR 003E
ENCODING 62
SWIDTH 437 0
DWIDTH 21 0
BBX 19 15 1 6
BITMAP
300000
FC0000
7F8000
0FF000
03FE00
007F80
000FE0
0003C0
001FC0
00FF00
03F800
1FC000
7F0000
780000
C00000
ENDCHAR
STARTCHAR 003F
ENCODING 63
SWIDTH 437 0
DWIDTH 21 0
BBX 17 36 2 -1
BITMAP
03F800
0FFE00
3C3F00
780F00
780F80
F00780
F00780
F00780
E00780
000780
000F00
000F00
001E00
001E00
003C00
007800
007000
00E000
01E000
01C000
03C000
038000
038000
038000
038000
038000
000000
000000
000000
000000
01C000
03E000
07E000
07E000
07C000
038000
ENDCHAR
STARTCHAR 0040
ENCODING 64
SWIDTH 812 0
DWIDTH 39 0
BBX 36 39 1 -8
BITMAP
0000FF8000
0007FFE000
001F01F800
0078003E00
00E0001F00
01C0000F00
0780000780
07000003C0
0E000001C0
1C007C21E0
1C01FF60E0
380387E0E0
380703E0E0
780E01E0F0
700E01E070
701E01E070
F01C01E070
F03C01E070
F03C01E070
F03C01E070
F03C01E070
F03C01E070
F03C01E060
F83C01E0E0
F83E01E0C0
781E01E0C0
781F03E180
7C0F05E100
3C0F8DF200
3E07F8FC00
1F01E07000
1F00000000
0F80000000
07C0000100
03F0000380
01F8000E00
007F00FC00
001FFFF000
0003FF0000
ENDCHAR
STARTCHAR 0041
ENCODING 65
SWIDTH 604 0
DWIDTH 29 0
BBX 28 30 0 0
BITMAP
00020000
00070000
000F0000
000F0000
001F8000
001F8000
001B8000
003BC000
0039C000
0031E000
0071E000
0070E000
0060F000
00E0F000
00E07000
00C07800
01C07800
01C03800
01FFFC00
03FFFC00
03801E00
03001E00
07001E00
07000F00
06000F00
0E000F00
0E000780
0C000780
3E0007C0
FFC03FF0
ENDCHAR
STARTCHAR 0042
ENCODING 66
SWIDTH 562 0
DWIDTH 27 0
BBX 24 30 0 0
BITMAP
07FE00
FFFFC0
6F07E0
0F01F0
0F00F8
0F0078
0F0078
0F0078
0F0078
0F0070
0F00F0
0F01E0
0F07C0
0FFFC0
0FFFF0
0F01F8
0F007C
0F003E
0F001E
0F001F
0F000F
0F000F
0F000F
0F000F
0F000E
0F001E
0F003C
0F00F8
3FFFF0
7FFF80
ENDCHAR
STARTCHAR 0043
ENCODING 67
SWIDTH 541 0
DWIDTH 26 0
BBX 23 30 1 0
BITMAP
001FE0
00FFFC
01C0FC
078038
0E0010
0E0000
1C0000
380000
380000
780000
700000
700000
F00000
F00000
F00000
F00000
F00000
F00000
F00000
F00000
780000
780000
7C0000
3C0000
1E0004
1F000E
0F8038
07E0F0
01FFC0
007F00
ENDCHAR
STARTCHAR 0044
ENCODING 68
SWIDTH 583 0
DWIDTH 28 0
BBX 25 30 1 0
BITMAP
07FE0000
FFFFC000
6F03F000
0F00F800
0F007C00
0F003E00
0F001E00
0F001F00
0F000F00
0F000F00
0F000F80
0F000780
0F000780
0F000780
0F000780
0F000780
0F000780
0F000780
0F000780
0F000700
0F000F00
0F000F00
0F001E00
0F001E00
0F003C00
0F007C00
0F00F800
0F03E000
3FFFC000
7FFE0000
ENDCHAR
STARTCHAR 0045
ENCODING 69
SWIDTH 500 0
DWIDTH 24 0
BBX 21 30 1 0
BITMAP
FFFFE0
7FFFF0
1E0060
1E0060
1E0060
1E0060
1E0000
1E0000
1E0000
1E0000
1E0000
1E0000
1E0000
1FFF80
1FFF80
1E0300
1E0000
1E0000
1E0000
1E0000
1E0000
1E0000
1E0000
1E0000
1E0008
1E0018
1E0018
1F0038
7FFFF0
FFFFF0
ENDCHAR
STARTCHAR 0046
ENCODING 70
SWIDTH 479 0
DWIDTH 23 0
BBX 20 30 1 0
BITMAP
FFFFF0
7FFFF0
1E0060
1E0060
1E0020
1E0020
1E0000
1E0000
1E0000
1E0000
1E0000
1E0000
1E0000
1FFF00
1FFF00
1E0600
1E0000
1E0000
1E0000
1E0000
1E0000
1E0000
1E0000
1E0000
1E0000
1E0000
1E0000
1E0000
7F8000
FFE000
ENDCHAR
STARTCHAR 0047
ENCODING 71
SWIDTH 583 0
DWIDTH 28 0
BBX 24 30 2 0
BITMAP
001FE0
00FFF8
01C0FC
078038
0F0010
1E0000
1C0000
380000
380000
780000
700000
F00000
F00000
F00000
F00000
F00000
F007FF
F000FE
F0003C
F0003C
F8003C
78003C
78003C
3C003C
3E003C
1E003C
0F003C
07C0F8
03FFE0
007F00
ENDCHAR
STARTCHAR 0048
ENCODING 72
SWIDTH 645 0
DWIDTH 31 0
BBX 27 30 2 0
BITMAP
FFC07FE0
7F803FC0
1E000F00
1E000F00
1E000F00
1E000F00
1E000F00
1E000F00
1E000F00
1E000F00
1E000F00
1E000F00
1E000F00
1E000F00
1FFFFF00
1FFFFF00
1E000F00
1E000F00
1E000F00
1E000F00
1E000F00
1E000F00
1E000F00
1E000F00
1E000F00
1E000F00
1E000F00
1E000F00
7F001FC0
FFC07FE0
ENDCHAR
STARTCHAR 0049
ENCODING 73
SWIDTH 291 0
DWIDTH 14 0
BBX 10 30 2 0
BITMAP
FFC0
7F80
1E00
1E00
1E00
1E00
1E00
1E00
1E00
1E00
1E00
1E00
1E00
1E00
1E00
1E00
1E00
1E00
1E00
1E00
1E00
1E00
1E00
1E00
1E00
1E00
1E00
1E00
7F80
FFC0
ENDCHAR
STARTCHAR 004A
ENCODING 74
SWIDTH 312 0
DWIDTH 15 0
BBX 17 38 -4 -8
BITMAP
07FF80
00FF00
003C00
003C00
003C00
003C00
003C00
003C00
003C00
003C00
003C00
003C00
003C00
003C00
003C00
003C00
003C00
003C00
003C00
003C00
003C00
003C00
003C00
003C00
003C00
003C00
003C00
003C00
003C00
003800
003800
003800
007000
007000
00E000
70C000
FF0000
7C0000
ENDCHAR
STARTCHAR 004B
ENCODING 75
SWIDTH 583 0
DWIDTH 28 0
BBX 26 30 1 0
BITMAP
FFC1FF80
7F807C00
1E007800
1E00F000
1E01E000
1E01C000
1E038000
1E070000
1E0E0000
1E1C0000
1E380000
1E780000
1E700000
1EE00000
1FE00000
1EF00000
1E780000
1E7C0000
1E3E0000
1E1E0000
1E0F0000
1E078000
1E07C000
1E03E000
1E01F000
1E00F800
1E007C00
1E007E00
7F803FC0
FFC01F00
ENDCHAR
STARTCHAR 004C
ENCODING 76
SWIDTH 479 0
DWIDTH 23 0
BBX 21 30 1 0
BITMAP
FFC000
7F8000
1E0000
1E0000
1E0000
1E0000
1E0000
1E0000
1E0000
1E0000
1E0000
1E0000
1E0000
1E0000
1E0000
1E0000
1E0000
1E0000
1E0000
1E0000
1E0000
1E0000
1E0000
1E0000
1E0008
1E0018
1E0018
1F0030
7FFFF0
FFFFF0
ENDCHAR
STARTCHAR 004D
ENCODING 77
SWIDTH 812 0
DWIDTH 39 0
BBX 36 30 1 0
BITMAP
7F00000FE0
1F80001F80
0F80001F00
0F80003F00
0FC0003F00
0FC0003700
0FE0007700
0EE0007700
0EF000E700
0EF000E700
0E7800C700
0E7801C700
0E3801C700
0E3C038700
0E1C038700
0E1E070700
0E1E070700
0E0F060700
0E0F0E0700
0E070E0700
0E079C0700
0E039C0700
0E03D80700
0E03F80700
0E01F80700
0E01F00700
0E00F00700
0E00E00700
3F00E01FC0
FFC0607FF0
ENDCHAR
STARTCHAR 004E
ENCODING 78
SWIDTH 645 0
DWIDTH 31 0
BBX 27 30 2 0
BITMAP
FC003FE0
7C000F80
1E000700
1F000700
1F000700
1F800700
1FC00700
1DC00700
1CE00700
1CF00700
1C780700
1C380700
1C3C0700
1C1E0700
1C0E0700
1C0F0700
1C078700
1C078700
1C03C700
1C01E700
1C01E700
1C00F700
1C007F00
1C007F00
1C003F00
1C001F00
1C001F00
1C000F00
3E000700
FF800300
ENDCHAR
STARTCHAR 004F
ENCODING 79
SWIDTH 604 0
DWIDTH 29 0
BBX 25 30 2 0
BITMAP
003F0000
00FFE000
03C1F000
0700F800
0E007C00
1C003E00
3C001E00
38001F00
78000F00
78000F00
70000F80
F0000780
F0000780
F0000780
F0000780
F0000780
F0000780
F0000780
F0000780
F8000700
78000F00
78000F00
7C000E00
3C001C00
3E001C00
1F003800
0F807000
07C1E000
03FF8000
00FE0000
ENDCHAR
STARTCHAR 0050
ENCODING 80
SWIDTH 520 0
DWIDTH 25 0
BBX 22 30 1 0
BITMAP
07FE00
FFFFC0
6F07E0
0F01F0
0F00F8
0F007C
0F003C
0F003C
0F003C
0F003C
0F003C
0F003C
0F0078
0F0078
0F00F0
0F83E0
0F7FC0
0F3E00
0F0000
0F0000
0F0000
0F0000
0F0000
0F0000
0F0000
0F0000
0F0000
0F0000
3FC000
7FF000
ENDCHAR
STARTCHAR 0051
ENCODING 81
SWIDTH 604 0
DWIDTH 29 0
BBX 28 37 2 -7
BITMAP
003F0000
00FFE000
03C1F000
0700F800
0E007C00
1C003E00
3C001E00
38001F00
78000F00
78000F00
70000F80
F0000780
F0000780
F0000780
F0000780
F0000780
F0000780
F0000780
F0000780
F8000700
78000F00
78000F00
7C000E00
3C001E00
3E001C00
1F003800
0F807000
07C1E000
03FFC000
007F8000
0003C000
0001E000
0000F810
00007C30
00001FE0
00000FE0
00000380
ENDCHAR
STARTCHAR 0052
ENCODING 82
SWIDTH 562 0
DWIDTH 27 0
BBX 26 30 1 0
BITMAP
07FE0000
FFFFC000
6F07E000
0F01F000
0F00F000
0F007800
0F007800
0F007800
0F007800
0F007800
0F007000
0F00F000
0F01E000
0F03C000
0FFF0000
0FFE0000
0F0E0000
0F070000
0F078000
0F038000
0F03C000
0F01C000
0F01E000
0F00F000
0F00F000
0F007800
0F007C00
0F003E00
3FC03FC0
7FE01F00
ENDCHAR
STARTCHAR 0053
ENCODING 83
SWIDTH 479 0
DWIDTH 23 0
BBX 18 30 3 0
BITMAP
03F800
1FFE00
3C3F00
780E00
700400
F00000
F00000
F00000
F80000
FC0000
7F0000
7FC000
3FF000
1FF800
07FE00
01FF00
007F80
001F80
000FC0
0007C0
0003C0
0003C0
0003C0
800380
C00380
E00700
F00F00
FC3E00
FFF800
0FE000
ENDCHAR
STARTCHAR 0054
ENCODING 84
SWIDTH 541 0
DWIDTH 26 0
BBX 26 30 0 0
BITMAP
7FFFFFC0
7FFFFFC0
601E0180
C01E0180
C01E0180
801E0080
001E0000
001E0000
001E0000
001E0000
001E0000
001E0000
001E0000
001E0000
001E0000
001E0000
001E0000
001E0000
001E0000
001E0000
001E0000
001E0000
001E0000
001E0000
001E0000
001E0000
001E0000
001E0000
007F8000
01FFE000
ENDCHAR
STARTCHAR 0055
ENCODING 85
SWIDTH 645 0
DWIDTH 31 0
BBX 27 30 2 0
BITMAP
FFC07FE0
7F803FC0
1E000F00
1E000F00
1E000F00
1E000F00
1E000F00
1E000F00
1E000F00
1E000F00
1E000F00
1E000F00
1E000F00
1E000F00
1E000F00
1E000F00
1E000F00
1E000F00
1E000F00
1E000F00
1E000F00
1E000F00
1E001E00
0F001E00
0F001E00
07803C00
07C07800
03E0F000
01FFE000
003F8000
ENDCHAR
STARTCHAR 0056
ENCODING 86
SWIDTH 645 0
DWIDTH 31 0
BBX 30 30 0 0
BITMAP
FFE00FFC
1F0001F0
0F0000E0
0F0001C0
070001C0
078001C0
07800380
03C00380
03C00380
03C00700
01E00700
01E00600
00E00E00
00F00E00
00F00C00
00781C00
00781C00
00783800
003C3800
003C3800
001C7000
001E7000
001E7000
000FE000
000FE000
000FE000
0007C000
0007C000
00038000
00030000
ENDCHAR
STARTCHAR 0057
ENCODING 87
SWIDTH 854 0
DWIDTH 41 0
BBX 40 30 0 0
BITMAP
FFE01803FF
3F001800FC
0E001C0030
0F003C0070
0F003C0070
0F003E0070
07007E0060
07007F00E0
07807F00E0
07806700E0
0780E780E0
0380E780C0
03C0C381C0
03C1C3C1C0
03C1C3C1C0
01C181C1C0
01C381E180
01E381E380
01E300E380
01E700F380
00E700F380
00F6007300
00FE007F00
00FE003F00
007C003F00
007C003E00
007C001E00
007C001E00
0078001E00
0030000800
ENDCHAR
STARTCHAR 0058
ENCODING 88
SWIDTH 625 0
DWIDTH 30 0
BBX 28 30 1 0
BITMAP
FFE0FFE0
FFE0FFE0
3F001F00
1F001E00
0F801C00
07803800
03C07800
03E07000
01E0E000
00F1E000
00F9C000
007F8000
003F8000
001F0000
001F0000
001F0000
003F8000
003FC000
0073E000
00F1E000
00E0F000
01C0F800
03C07800
03803C00
07003E00
0F001F00
0E000F00
3E000FC0
FFC07FF0
FFC07FF0
ENDCHAR
STARTCHAR 0059
ENCODING 89
SWIDTH 604 0
DWIDTH 29 0
BBX 28 30 0 0
BITMAP
FC003FF0
FE003FF0
1F000F80
0F000700
0F800E00
07C00E00
03C01C00
03E03C00
01E03800
00F07800
00F87000
0078E000
007DE000
003DC000
003FC000
001F8000
001F8000
000F0000
000F0000
000F0000
000F0000
000F0000
000F0000
000F0000
000F0000
000F0000
000F0000
000F0000
003FC000
00FFF000
ENDCHAR
STARTCHAR 005A
ENCODING 90
SWIDTH 520 0
DWIDTH 25 0
BBX 22 30 1 0
BITMAP
3FFFFC
3FFFFC
380078
3000F8
3001F0
2001E0
2003E0
0003C0
000780
000F80
000F00
001F00
001E00
003C00
007C00
007800
00F800
01F000
01E000
03E000
03C000
078000
0F8000
0F0004
1F000C
3E000C
3C000C
7C001C
7FFFFC
FFFFFC
ENDCHAR
STARTCHAR 005B
ENCODING 91
SWIDTH 312 0
DWIDTH 15 0
BBX 11 45 3 -8
BITMAP
FFE0
FFE0
F000
F000
F000
F000
F000
F000
F000
F000
F000
F000
F000
F000
F000
F000
F000
F000
F000
F000
F000
F000
F000
F000
F000
F000
F000
F000
F000
F000
F000
F000
F000
F000
F000
F000
F000
F000
F000
F000
F000
F000
F000
FFE0
FFE0
ENDCHAR
STARTCHAR 005C
ENCODING 92
SWIDTH 479 0
DWIDTH 23 0
BBX 20 46 1 -8
BITMAP
E00000
700000
700000
780000
380000
380000
1C0000
1C0000
1E0000
0E0000
0E0000
0F0000
070000
070000
078000
038000
03C000
01C000
01C000
01E000
00E000
00E000
00F000
007000
007000
003800
003800
003C00
001C00
001C00
001E00
000E00
000E00
000700
000700
000780
000380
000380
0003C0
0001C0
0001C0
0001E0
0000E0
0000F0
000070
000030
ENDCHAR
STARTCHAR 005D
ENCODING 93
SWIDTH 312 0
DWIDTH 15 0
BBX 11 45 1 -8
BITMAP
FFE0
FFE0
01E0
01E0
01E0
01E0
01E0
01E0
01E0
01E0
01E0
01E0
01E0
01E0
01E0
01E0
01E0
01E0
01E0
01E0
01E0
01E0
01E0
01E0
01E0
01E0
01E0
01E0
01E0
01E0
01E0
01E0
01E0
01E0
01E0
01E0
01E0
01E0
01E0
01E0
01E0
01E0
01E0
FFE0
FFE0
ENDCHAR
STARTCHAR 005E
ENCODING 94
SWIDTH 500 0
DWIDTH 24 0
BBX 19 23 2 13
BITMAP
002000
007000
00F000
01F000
01F800
01F800
03BC00
03BC00
073C00
071E00
061E00
0E0E00
0E0F00
0C0F00
1C0780
1C0780
180380
3803C0
3003C0
7001E0
7001E0
6000E0
C000C0
ENDCHAR
STARTCHAR 005F
ENCODING 95
SWIDTH 479 0
DWIDTH 23 0
BBX 20 2 1 -5
BITMAP
7FFFF0
FFFFF0
ENDCHAR
STARTCHAR 0060
ENCODING 96
SWIDTH 312 0
DWIDTH 15 0
BBX 9 10 1 25
BITMAP
F000
F800
7800
3C00
1C00
0E00
0700
0300
0180
0180
ENDCHAR
STARTCHAR 0061
ENCODING 97
SWIDTH 458 0
DWIDTH 22 0
BBX 20 22 2 0
BITMAP
01F800
0FFE00
1C1E00
780F00
700F00
F00F00
800F00
000F00
000F00
00FF00
07FF00
1F8F00
3E0F00
780F00
F80F00
F00F00
F00F00
F01F00
F03F00
78EF20
7F8FF0
1E0780
ENDCHAR
STARTCHAR 0062
ENCODING 98
SWIDTH 500 0
DWIDTH 24 0
BBX 22 36 0 0
BITMAP
060000
7E0000
FE0000
1E0000
1E0000
1E0000
1E0000
1E0000
1E0000
1E0000
1E0000
1E0000
1E0000
1E0000
1E0F80
1E3FE0
1E7FF0
1EE3F0
1FC0F8
1F80F8
1F007C
1E007C
1E003C
1E003C
1E003C
1E003C
1E003C
1E003C
1E0038
1E0038
1E0070
1E0060
1F00E0
0FC1C0
03FF00
00FC00
ENDCHAR
STARTCHAR 0063
ENCODING 99
SWIDTH 437 0
DWIDTH 21 0
BBX 18 22 2 0
BITMAP
007F00
03FFC0
0707C0
0E0180
1C0080
380000
780000
700000
F00000
F00000
F00000
F00000
F00000
F00000
F80000
780000
780000
3C0040
3E01C0
1F8380
07FE00
01F800
ENDCHAR
STARTCHAR 0064
ENCODING 100
SWIDTH 520 0
DWIDTH 25 0
BBX 23 36 2 0
BITMAP
0000E0
000FE0
000FE0
0001E0
0001E0
0001E0
0001E0
0001E0
0001E0
0001E0
0001E0
0001E0
0001E0
0001E0
00FDE0
03FFE0
0F0FE0
1C03E0
3C01E0
3801E0
7801E0
7001E0
F001E0
F001E0
F001E0
F001E0
F001E0
F001E0
F001E0
7801E0
7801E0
7C03E0
3E05E4
1F19FE
0FF0F8
07C0E0
ENDCHAR
STARTCHAR 0065
ENCODING 101
SWIDTH 458 0
DWIDTH 22 0
BBX 18 22 2 0
BITMAP
00F800
07FE00
0E0F00
1C0780
380780
3803C0
7003C0
7003C0
FFFFC0
FFFF80
F00000
F00000
F00000
F00000
F80000
780000
780000
7C00C0
3E0180
1F0700
0FFE00
03F800
ENDCHAR
STARTCHAR 0066
ENCODING 102
SWIDTH 312 0
DWIDTH 15 0
BBX 19 36 0 0
BITMAP
000F80
003FE0
0063C0
01C180
038000
038000
078000
070000
0F0000
0F0000
0F0000
0F0000
0F0000
0F0000
3FFE00
FFFC00
0F0800
0F0000
0F0000
0F0000
0F0000
0F0000
0F0000
0F0000
0F0000
0F0000
0F0000
0F0000
0F0000
0F0000
0F0000
0F0000
0F0000
0F0000
1FE000
7FF800
ENDCHAR
STARTCHAR 0067
ENCODING 103
SWIDTH 500 0
DWIDTH 24 0
BBX 24 33 0 -11
BITMAP
00FC02
03FF7E
0707FC
0E03E0
1E01E0
1C01F0
3C00F0
3C00F0
3C00F0
3C00F0
3E00E0
1F01C0
0F8380
07FF00
01FC00
03C000
078000
0F8000
0FE000
07FF80
03FFF0
07BFFC
0E00FE
3C001F
78000F
F0000F
F0000F
F0000E
F8001C
7C0038
3F80F0
0FFFC0
01FE00
ENDCHAR
STARTCHAR 0068
ENCODING 104
SWIDTH 541 0
DWIDTH 26 0
BBX 23 36 2 0
BITMAP
060000
7E0000
FE0000
3E0000
1E0000
1E0000
1E0000
1E0000
1E0000
1E0000
1E0000
1E0000
1E0000
1E0000
1E0780
1C1FE0
1C31E0
1C60F0
1CC0F0
1D80F0
1F00F0
1F00F0
1E00F0
1E00F0
1E00F0
1E00F0
1E00F0
1E00F0
1E00F0
1E00F0
1E00F0
1E00F0
1E00F0
1E00F0
3F83F8
FFC7FE
ENDCHAR
STARTCHAR 0069
ENCODING 105
SWIDTH 270 0
DWIDTH 13 0
BBX 10 32 2 0
BITMAP
1C00
1E00
3E00
3E00
1C00
0000
0000
0000
0000
0000
0600
7E00
FE00
3E00
1E00
1E00
1E00
1E00
1E00
1E00
1E00
1E00
1E00
1E00
1E00
1E00
1E00
1E00
1E00
1E00
3F00
FFC0
ENDCHAR
STARTCHAR 006A
ENCODING 106
SWIDTH 250 0
DWIDTH 12 0
BBX 14 43 -5 -11
BITMAP
0038
003C
007C
007C
0038
0000
0000
0000
0000
0000
000C
00FC
01FC
007C
003C
003C
003C
003C
003C
003C
003C
003C
003C
003C
003C
003C
003C
003C
003C
003C
003C
003C
003C
003C
0038
0038
0078
0070
0070
30E0
7F80
FF00
7C00
ENDCHAR
STARTCHAR 006B
ENCODING 107
SWIDTH 500 0
DWIDTH 24 0
BBX 23 36 1 0
BITMAP
060000
7E0000
FE0000
3E0000
1E0000
1E0000
1E0000
1E0000
1E0000
1E0000
1E0000
1E0000
1E0000
1E0000
1E07FC
1E01F0
1E01C0
1E0380
1E0700
1E0E00
1E3800
1E7000
1EE000
1FE000
1EF000
1EF800
1E7800
1E3C00
1E1E00
1E0F00
1E0F80
1E07C0
1E03E0
1E01E0
3F00FE
FFC07C
ENDCHAR
STARTCHAR 006C
ENCODING 108
SWIDTH 270 0
DWIDTH 13 0
BBX 12 36 1 0
BITMAP
0300
3F00
7F00
1F00
0F00
0F00
0F00
0F00
0F00
0F00
0F00
0F00
0F00
0F00
0F00
0F00
0F00
0F00
0F00
0F00
0F00
0F00
0F00
0F00
0F00
0F00
0F00
0F00
0F00
0F00
0F00
0F00
0F00
0F00
1F80
FFF0
ENDCHAR
STARTCHAR 006D
ENCODING 109
SWIDTH 812 0
DWIDTH 39 0
BBX 36 22 2 0
BITMAP
0C07C07C00
FE1FE0FF00
3E31E38F00
1E60F70780
1EC0FE0780
1F80FC0780
1F00F80780
1F00F80780
1E00F00780
1E00F00780
1E00F00780
1E00F00780
1E00F00780
1E00F00780
1E00F00780
1E00F00780
1E00F00780
1E00F00780
1E00F00780
1E00F00780
7F83FC1FC0
FFC7FE3FF0
ENDCHAR
STARTCHAR 006E
ENCODING 110
SWIDTH 541 0
DWIDTH 26 0
BBX 23 22 2 0
BITMAP
0C07C0
FE0FE0
3E31E0
1E60F0
1EC0F0
1E80F0
1F00F0
1F00F0
1E00F0
1E00F0
1E00F0
1E00F0
1E00F0
1E00F0
1E00F0
1E00F0
1E00F0
1E00F0
1E00F0
1E00F0
7F83F8
FFC7FE
ENDCHAR
STARTCHAR 006F
ENCODING 111
SWIDTH 500 0
DWIDTH 24 0
BBX 20 22 2 0
BITMAP
00FC00
07FF00
0E0F80
1C07C0
3803C0
3803E0
7001E0
7001F0
F000F0
F000F0
F000F0
F000F0
F000F0
F000F0
F800E0
7801E0
7C01C0
3C01C0
3E0380
1F0700
0FFE00
03F000
ENDCHAR
STARTCHAR 0070
ENCODING 112
SWIDTH 520 0
DWIDTH 25 0
BBX 21 33 2 -11
BITMAP
0C0780
FE1FC0
3E23E0
1E41F0
1E81F0
1F00F0
1F00F8
1E00F8
1E0078
1E0078
1E0078
1E0078
1E0078
1E0078
1E0070
1E0070
1E00E0
1E00E0
1F01C0
1FC380
1EFF00
1E3E00
1E0000
1E0000
1E0000
1E0000
1E0000
1E0000
1E0000
1E0000
1E0000
7F0000
FFE000
ENDCHAR
STARTCHAR 0071
ENCODING 113
SWIDTH 520 0
DWIDTH 25 0
BBX 22 33 2 -11
BITMAP
00FC30
03FF60
070FE0
1E03E0
1C01E0
3801E0
7801E0
7001E0
F001E0
F001E0
F001E0
F001E0
F001E0
F001E0
F001E0
7801E0
7801E0
7C03E0
3E07E0
1F1DE0
0FF9E0
03E1E0
0001E0
0001E0
0001E0
0001E0
0001E0
0001E0
0001E0
0001E0
0001E0
0003F0
001FFC
ENDCHAR
STARTCHAR 0072
ENCODING 114
SWIDTH 395 0
DWIDTH 19 0
BBX 17 22 1 0
BITMAP
040F00
7E3F80
FE7F80
1EE380
1EC380
1F8100
1F8000
1F0000
1F0000
1E0000
1E0000
1E0000
1E0000
1E0000
1E0000
1E0000
1E0000
1E0000
1E0000
1E0000
3F8000
FFE000
ENDCHAR
STARTCHAR 0073
ENCODING 115
SWIDTH 395 0
DWIDTH 19 0
BBX 15 22 2 0
BITMAP
0FC0
3FF8
7878
7038
F010
F000
F800
FC00
7F00
3FC0
1FF0
07F8
01FC
007E
003E
801E
801E
C01E
E03C
F078
FFF0
1FC0
ENDCHAR
STARTCHAR 0074
ENCODING 116
SWIDTH 354 0
DWIDTH 17 0
BBX 16 30 0 0
BITMAP
0300
0700
0F00
0F00
0F00
0F00
0F00
0F00
3FFF
FFFF
0F04
0F00
0F00
0F00
0F00
0F00
0F00
0F00
0F00
0F00
0F00
0F00
0F00
0F00
0F00
0F00
0F01
0787
07FE
03F0
ENDCHAR
STARTCHAR 0075
ENCODING 117
SWIDTH 520 0
DWIDTH 25 0
BBX 24 22 1 0
BITMAP
060070
FE07F0
7E07F0
1E00F0
1E00F0
1E00F0
1E00F0
1E00F0
1E00F0
1E00F0
1E00F0
1E00F0
1E00F0
1E00F0
1E00F0
1E00F0
1E00F0
1E01F0
1F02F0
0F0CFF
0FF8FC
03E070
ENDCHAR
STARTCHAR 0076
ENCODING 118
SWIDTH 500 0
DWIDTH 24 0
BBX 23 22 0 0
BITMAP
FFC0FE
3E003C
1E0038
1E0030
0F0070
0F0070
070060
0780E0
0780C0
03C1C0
03C1C0
01C180
01E380
01E300
00F300
00F700
007600
007E00
007E00
003C00
003C00
001000
ENDCHAR
STARTCHAR 0077
ENCODING 119
SWIDTH 708 0
DWIDTH 34 0
BBX 33 22 0 0
BITMAP
FFC0603F80
3E00E00F00
1E00E00E00
1E00F00E00
0E01F00C00
0F01F00C00
0F01F81C00
0703F81C00
0703381800
07833C1800
03871C3800
03861E3000
03C61E3000
01CE0E7000
01CC0F6000
01FC0F6000
01FC076000
00F807E000
00F807C000
00F003C000
007003C000
0060030000
ENDCHAR
STARTCHAR 0078
ENCODING 120
SWIDTH 500 0
DWIDTH 24 0
BBX 24 22 0 0
BITMAP
7FE3FE
7FE3FE
1F80F8
0F80E0
0780C0
03C1C0
01E380
00F700
00FE00
007C00
003C00
003E00
007F00
00EF00
01C780
0383C0
0301E0
0700F0
0E00F8
3E00FC
FF83FF
FF83FF
ENDCHAR
STARTCHAR 0079
ENCODING 121
SWIDTH 500 0
DWIDTH 24 0
BBX 24 33 -1 -11
BITMAP
7FE0FF
1F003E
0F001C
0F0018
078038
078038
038030
03C070
03C060
01E0E0
01E0E0
00E0C0
00F1C0
00F1C0
007980
007B80
003B00
003F00
003F00
001E00
001E00
000C00
000C00
001C00
001800
003800
007000
007000
00E000
3FC000
7F8000
FF0000
7C0000
ENDCHAR
STARTCHAR 007A
ENCODING 122
SWIDTH 437 0
DWIDTH 21 0
BBX 17 22 2 0
BITMAP
7FFF80
7FFF80
600F00
600F00
401E00
403C00
003C00
007800
00F000
00F000
01E000
03C000
03C000
078000
0F0000
0E0000
1E0080
3C0080
780080
780180
FFFF80
FFFF80
ENDCHAR
STARTCHAR 007B
ENCODING 123
SWIDTH 333 0
DWIDTH 16 0
BBX 13 45 2 -7
BITMAP
0008
0038
0070
01E0
01C0
0380
0380
0780
0780
0780
0780
0780
07C0
03C0
03C0
03C0
03C0
03C0
0380
0780
0700
1E00
7E00
FF00
0780
03C0
03C0
03C0
03C0
03C0
03C0
03C0
07C0
0780
0780
0780
0780
0780
0780
0380
03C0
01C0
00E0
0078
0018
ENDCHAR
STARTCHAR 007C
ENCODING 124
SWIDTH 229 0
DWIDTH 11 0
BBX 4 49 4 -10
BITMAP
70
F0
F0
F0
F0
F0
F0
F0
F0
F0
F0
F0
F0
F0
F0
F0
F0
F0
F0
F0
F0
F0
F0
F0
F0
F0
F0
F0
F0
F0
F0
F0
F0
F0
F0
F0
F0
F0
F0
F0
F0
F0
F0
F0
F0
F0
F0
F0
E0
ENDCHAR
STARTCHAR 007D
ENCODING 125
SWIDTH 333 0
DWIDTH 16 0
BBX 13 45 1 -7
BITMAP
C000
F000
3800
1C00
1E00
0E00
0F00
0F00
0F00
0F00
0F00
0F00
1F00
1E00
1E00
1E00
1E00
1E00
1E00
1E00
0F00
07F0
03F8
03C0
0700
0F00
0E00
1E00
1E00
1E00
1E00
1E00
1F00
0F00
0F00
0F00
0F00
0F00
0E00
1E00
1C00
3800
7000
E000
8000
ENDCHAR
STARTCHAR 007E
ENCODING 126
SWIDTH 479 0
DWIDTH 23 0
BBX 21 8 1 11
BITMAP
078008
0FE018
1FF010
3FFC30
31FFE0
607FC0
401F80
C00F00
ENDCHAR
STARTCHAR 00A0
ENCODING 160
SWIDTH 229 0
DWIDTH 11 0
BBX 0 0 0 0
BITMAP
ENDCHAR
STARTCHAR 00A1
ENCODING 161
SWIDTH 270 0
DWIDTH 13 0
BBX 6 35 3 -13
BITMAP
38
7C
FC
FC
FC
F8
70
00
10
38
38
38
38
38
38
38
38
38
38
38
38
38
38
38
78
78
78
78
78
7C
7C
7C
7C
78
60
ENDCHAR
STARTCHAR 00A2
ENCODING 162
SWIDTH 479 0
DWIDTH 23 0
BBX 18 30 2 -1
BITMAP
006000
006000
006000
006000
00FF00
03FF80
0FFFC0
1E6380
3C6180
386100
786000
706000
F06000
F06000
F06000
F06000
F06000
F06000
F86000
786000
7C60C0
3E6180
3FE780
1FFF00
0FFC00
03F800
006000
006000
006000
006000
ENDCHAR
STARTCHAR 00A3
ENCODING 163
SWIDTH 479 0
DWIDTH 23 0
BBX 19 29 2 0
BITMAP
007F00
01FFE0
0383E0
0701C0
0600C0
0E00C0
0E00C0
1E0040
1E0000
1E0000
1E0000
1E0000
1E0000
1E0000
FFF800
FFF800
1E0000
1E0000
1E0000
1E0000
1E0000
1C0000
1C0020
1C0020
180060
3800E0
3FFFE0
7FFFE0
C0FFE0
ENDCHAR
STARTCHAR 00A4
ENCODING 164
SWIDTH 479 0
DWIDTH 23 0
BBX 15 15 4 7
BITMAP
8002
C006
67CC
3FF8
3838
701C
600C
600C
600C
600C
3018
3838
7FFC
E7CE
C006
ENDCHAR
STARTCHAR 00A5
ENCODING 165
SWIDTH 479 0
DWIDTH 23 0
BBX 25 28 -2 0
BITMAP
7E00FF80
FE003F80
1F001E00
0F803C00
07C07800
03C07000
03E0F000
01E0E000
00F1E000
00F1C000
007BC000
007F8000
003F0000
003F0000
001E0000
001E0000
0FFFFC00
0FFFFC00
001E0000
001E0000
001E0000
001E0000
001E0000
001E0000
001E0000
001E0000
007F8000
01FFE000
ENDCHAR
STARTCHAR 00A6
ENCODING 166
SWIDTH 229 0
DWIDTH 11 0
BBX 4 49 4 -10
BITMAP
70
F0
F0
F0
F0
F0
F0
F0
F0
F0
F0
F0
F0
F0
F0
F0
F0
F0
F0
F0
F0
E0
00
00
00
00
00
70
F0
F0
F0
F0
F0
F0
F0
F0
F0
F0
F0
F0
F0
F0
F0
F0
F0
F0
F0
F0
E0
ENDCHAR
STARTCHAR 00A7
ENCODING 167
SWIDTH 500 0
DWIDTH 24 0
BBX 19 34 2 0
BITMAP
01F800
07FE00
1E1F00
3C0700
3C0600
3C0000
3E0000
3F0000
1F8000
1FE000
1FF800
3FFC00
79FF00
F07F80
F03FC0
F00FC0
F007E0
F803E0
7C01E0
7E01E0
3F81C0
1FE1C0
07FB80
03FF00
00FF00
003F80
000F80
100780
100780
180780
1C0700
1E0F00
1FFE00
03F000
ENDCHAR
STARTCHAR 00A8
ENCODING 168
SWIDTH 395 0
DWIDTH 19 0
BBX 15 5 2 27
BITMAP
700E
F01E
F01E
F01E
E01C
ENDCHAR
STARTCHAR 00A9
ENCODING 169
SWIDTH 708 0
DWIDTH 34 0
BBX 30 30 2 0
BITMAP
001FE000
00FFFC00
01E01E00
07800780
0E0001C0
1C03F0E0
180FFC60
303C3C30
70700838
60E00018
61E00018
C1E0000C
C3C0000C
C3C0000C
C3C0000C
C3C0000C
C3C0000C
C3C0000C
C3E0000C
61E00018
61F00818
70F80C38
307C3030
183FE060
1C0F80E0
0E0001C0
07800780
01E01E00
00FFFC00
001FE000
ENDCHAR
STARTCHAR 00AA
ENCODING 170
SWIDTH 250 0
DWIDTH 12 0
BBX 11 15 1 14
BITMAP
0F00
1F00
3380
6180
6180
0380
1D80
6180
C180
C180
EF80
FDE0
7980
FFC0
FFC0
ENDCHAR
STARTCHAR 00AB
ENCODING 171
SWIDTH 479 0
DWIDTH 23 0
BBX 18 21 2 0
BITMAP
008040
0180C0
030180
070300
0E0700
0E0E00
1C1E00
3C3C00
783C00
F07800
F07800
F87800
783C00
3C3C00
1C1E00
0E0E00
0E0700
070300
030180
0180C0
008040
ENDCHAR
STARTCHAR 00AC
ENCODING 172
SWIDTH 479 0
DWIDTH 23 0
BBX 20 10 1 4
BITMAP
7FFFF0
FFFFF0
000070
000070
000070
000070
000070
000070
000070
000060
ENDCHAR
STARTCHAR 00AD
ENCODING 173
SWIDTH 333 0
DWIDTH 16 0
BBX 14 2 1 11
BITMAP
7FFC
FFF8
ENDCHAR
STARTCHAR 00AE
ENCODING 174
SWIDTH 354 0
DWIDTH 17 0
BBX 15 17 1 17
BITMAP
07C0
1FF0
3838
600C
4F84
C446
8442
84C2
8782
8582
8482
C4C6
4464
6A3C
3838
1FF0
07C0
ENDCHAR
STARTCHAR 00AF
ENCODING 175
SWIDTH 500 0
DWIDTH 24 0
BBX 16 2 4 28
BITMAP
7FFF
FFFE
ENDCHAR
STARTCHAR 00B0
ENCODING 176
SWIDTH 354 0
DWIDTH 17 0
BBX 11 11 3 18
BITMAP
0F00
3FC0
71E0
60E0
E0E0
E0E0
E0E0
E0C0
F180
7F00
3E00
ENDCHAR
STARTCHAR 00B1
ENCODING 177
SWIDTH 416 0
DWIDTH 20 0
BBX 17 22 1 3
BITMAP
00C000
01C000
01C000
01C000
01C000
01C000
01C000
01C000
FFFF80
FFFF80
01C000
01C000
01C000
01C000
01C000
01C000
01C000
000000
000000
000000
7FFF80
FFFF80
ENDCHAR
STARTCHAR 00B2
ENCODING 178
SWIDTH 354 0
DWIDTH 17 0
BBX 13 17 2 15
BITMAP
07C0
1FF0
70F8
6078
E078
0078
0070
00E0
01E0
03C0
0780
0F00
1E00
3C08
7818
FFF8
FFF8
ENDCHAR
STARTCHAR 00B3
ENCODING 179
SWIDTH 333 0
DWIDTH 16 0
BBX 14 18 1 14
BITMAP
0F80
3FE0
71F0
E0F0
C0F0
00F0
01E0
0780
0FE0
01F0
0078
003C
003C
003C
8078
E0F8
3FE0
0F80
ENDCHAR
STARTCHAR 00B4
ENCODING 180
SWIDTH 312 0
DWIDTH 15 0
BBX 10 10 5 25
BITMAP
0780
07C0
0F00
0F00
1E00
3C00
3800
7000
6000
C000
ENDCHAR
STARTCHAR 00B5
ENCODING 181
SWIDTH 541 0
DWIDTH 26 0
BBX 25 33 1 -11
BITMAP
06001800
FE00F800
7E007800
1E007800
1E007800
1E007800
1E007800
1E007800
1E007800
1E007800
1E007800
1E007800
1E007800
1E007800
1E007800
1F00F800
1F01F800
1F83F800
1FFF7900
1BFE7F80
19FC7E00
18F03800
18000000
18000000
18000000
1C000000
1C000000
1C000000
1E000000
1E000000
1F000000
1F000000
18000000
ENDCHAR
STARTCHAR 00B6
ENCODING 182
SWIDTH 541 0
DWIDTH 26 0
BBX 23 36 1 -6
BITMAP
01FFFE
0FFFFE
1F07FC
3C0770
780770
780770
F00770
F00770
F00770
F00770
F00770
F80770
780770
7C0770
3E0770
1F8770
0FFF70
01FF70
000770
000770
000770
000770
000770
000770
000770
000770
000770
000770
000770
000770
000770
000770
000770
000770
001FF8
003FFE
ENDCHAR
STARTCHAR 00B7
ENCODING 183
SWIDTH 145 0
DWIDTH 7 0
BBX 4 5 2 14
BITMAP
70
F0
F0
F0
E0
ENDCHAR
STARTCHAR 00B8
ENCODING 184
SWIDTH 229 0
DWIDTH 11 0
BBX 8 10 2 -10
BITMAP
18
38
30
3E
7F
0F
0F
1E
78
E0
ENDCHAR
STARTCHAR 00B9
ENCODING 185
SWIDTH 333 0
DWIDTH 16 0
BBX 13 17 2 15
BITMAP
0380
1F80
FF80
0780
0780
0780
0780
0780
0780
0780
0780
0780
0780
0780
0780
0FC0
7FF8
ENDCHAR
STARTCHAR 00BA
ENCODING 186
SWIDTH 291 0
DWIDTH 14 0
BBX 12 15 1 14
BITMAP
0F80
3FC0
31E0
6060
C070
C030
C030
C030
E030
E060
78C0
3F80
1F00
FFF0
FFF0
ENDCHAR
STARTCHAR 00BB
ENCODING 187
SWIDTH 479 0
DWIDTH 23 0
BBX 18 21 3 0
BITMAP
404000
E06000
603000
301800
381C00
1C0E00
0E0F00
0F0780
078780
07C3C0
03C3C0
07C3C0
078780
0F0780
1E0F00
1C0E00
381C00
303800
703000
606000
C04000
ENDCHAR
STARTCHAR 00BC
ENCODING 188
SWIDTH 583 0
DWIDTH 28 0
BBX 24 29 2 0
BITMAP
040004
3C000E
CC0018
0C0038
0C0030
0C0070
0C00E0
0C00C0
0C01C0
0C0380
0C0300
0C0700
0C0600
7F8E00
001C00
001804
00381C
00701C
00602C
00E06C
01C04C
01C08C
03810C
03030C
0703FF
0E07FE
0C000C
1C000C
38007F
ENDCHAR
STARTCHAR 00BD
ENCODING 189
SWIDTH 583 0
DWIDTH 28 0
BBX 24 29 2 0
BITMAP
040006
3C000E
CC001C
0C0018
0C0038
0C0070
0C0070
0C00E0
0C00C0
0C01C0
0C0380
0C0300
0C0700
7F8E00
000E00
001C3C
0018FF
0039C7
007383
006303
00E002
01C004
018008
038010
070020
070041
0E0081
0C01FF
1C01FF
ENDCHAR
STARTCHAR 00BE
ENCODING 190
SWIDTH 583 0
DWIDTH 28 0
BBX 25 29 1 0
BITMAP
0F800300
1FC00700
31C00E00
70C00C00
00C01C00
01801800
0F003800
01C07000
00C06000
00C0E000
00C1C000
00C18000
C1C38000
7F870000
1E070000
000E0200
000C0E00
001C0E00
00381600
00302600
00706600
00E0C600
00E08600
01C18680
0383FF00
03800600
07000600
06000600
0E003F80
ENDCHAR
STARTCHAR 00BF
ENCODING 191
SWIDTH 437 0
DWIDTH 21 0
BBX 17 35 2 -13
BITMAP
00E000
01F000
03F000
03F000
03E000
01C000
000000
000000
000000
00E000
00E000
00E000
00E000
00E000
01E000
01C000
03C000
038000
070000
0F0000
1E0000
3C0000
3C0000
780000
780000
F00000
F00380
F00780
F00780
F00780
F80F00
780F00
7E1E00
3FF800
0FE000
ENDCHAR
STARTCHAR 00C0
ENCODING 192
SWIDTH 604 0
DWIDTH 29 0
BBX 28 41 0 0
BITMAP
00800000
01C00000
03F00000
01F80000
007C0000
001F0000
00078000
0001C000
00008000
00000000
00000000
00020000
00070000
000F0000
000F0000
001F8000
001F8000
001B8000
003BC000
0039C000
0031E000
0071E000
0070E000
0060F000
00E0F000
00E07000
00C07800
01C07800
01C03800
01FFFC00
03FFFC00
03801E00
03001E00
07001E00
07000F00
06000F00
0E000F00
0E000780
0C000780
3E0007C0
FFC03FF0
ENDCHAR
STARTCHAR 00C1
ENCODING 193
SWIDTH 604 0
DWIDTH 29 0
BBX 28 41 0 0
BITMAP
00002000
00003800
0000FC00
0001F800
0003E000
000F8000
001E0000
00380000
00200000
00000000
00000000
00020000
00070000
000F0000
000F0000
001F8000
001F8000
001B8000
003BC000
0039C000
0031E000
0071E000
0070E000
0060F000
00E0F000
00E07000
00C07800
01C07800
01C03800
01FFFC00
03FFFC00
03801E00
03001E00
07001E00
07000F00
06000F00
0E000F00
0E000780
0C000780
3E0007C0
FFC03FF0
ENDCHAR
STARTCHAR 00C2
ENCODING 194
SWIDTH 604 0
DWIDTH 29 0
BBX 28 41 0 0
BITMAP
00060000
000F0000
001F8000
003FC000
0079E000
00F0F000
01C03800
01801800
01001000
00000000
00000000
00020000
00070000
000F0000
000F0000
001F8000
001F8000
001B8000
003BC000
0039C000
0031E000
0071E000
0070E000
0060F000
00E0F000
00E07000
00C07800
01C07800
01C03800
01FFFC00
03FFFC00
03801E00
03001E00
07001E00
07000F00
06000F00
0E000F00
0E000780
0C000780
3E0007C0
FFC03FF0
ENDCHAR
STARTCHAR 00C3
ENCODING 195
SWIDTH 604 0
DWIDTH 29 0
BBX 28 39 0 0
BITMAP
00100800
007C0C00
00FE1C00
01FFF800
0187F000
0303E000
02010000
00000000
00000000
00020000
00070000
000F0000
000F0000
001F8000
001F8000
001B8000
003BC000
0039C000
0031E000
0071E000
0070E000
0060F000
00E0F000
00E07000
00C07800
01C07800
01C03800
01FFFC00
03FFFC00
03801E00
03001E00
07001E00
07000F00
06000F00
0E000F00
0E000780
0C000780
3E0007C0
FFC03FF0
ENDCHAR
STARTCHAR 00C4
ENCODING 196
SWIDTH 604 0
DWIDTH 29 0
BBX 28 38 0 0
BITMAP
00802000
00E03800
01E07800
01E07800
01E07800
00802000
00000000
00000000
00020000
00070000
000F0000
000F0000
001F8000
001F8000
001B8000
003BC000
0039C000
0031E000
0071E000
0070E000
0060F000
00E0F000
00E07000
00C07800
01C07800
01C03800
01FFFC00
03FFFC00
03801E00
03001E00
07001E00
07000F00
06000F00
0E000F00
0E000780
0C000780
3E0007C0
FFC03FF0
ENDCHAR
STARTCHAR 00C5
ENCODING 197
SWIDTH 604 0
DWIDTH 29 0
BBX 28 42 0 0
BITMAP
00020000
000F8000
001FC000
0018C000
0030C000
0030C000
0030C000
003F8000
001F0000
00080000
00000000
00000000
00020000
00070000
000F0000
000F0000
001F8000
001F8000
001B8000
003BC000
0039C000
0031E000
0071E000
0070E000
0060F000
00E0F000
00E07000
00C07800
01C07800
01C03800
01FFFC00
03FFFC00
03801E00
03001E00
07001E00
07000F00
06000F00
0E000F00
0E000780
0C000780
3E0007C0
FFC03FF0
ENDCHAR
STARTCHAR 00C6
ENCODING 198
SWIDTH 770 0
DWIDTH 37 0
BBX 36 30 0 0
BITMAP
007FFFFFC0
001FFFFFE0
0007FC00C0
00073C00C0
00073C00C0
000E3C00C0
000E3C0000
001E3C0000
001C3C0000
001C3C0000
003C3C0000
00383C0000
00783C0000
007FFFFF00
007FFFFF00
00F03C0600
00E03C0000
01E03C0000
01C03C0000
01C03C0000
03803C0000
03803C0000
07803C0000
07003C0000
07003C0010
0E003C0030
0E003C0030
1E003E0070
3E007FFFE0
FFC1FFFFE0
ENDCHAR
STARTCHAR 00C7
ENCODING 199
SWIDTH 541 0
DWIDTH 26 0
BBX 22 40 2 -10
BITMAP
001FE0
00FFFC
01C0FC
078038
0E0010
0E0000
1C0000
380000
380000
780000
700000
700000
F00000
F00000
F00000
F00000
F00000
F00000
F00000
F00000
F80000
780000
7C0000
3C0000
3E0008
1F003C
0F80F0
0FFFE0
03FF80
00FE00
001800
001000
001C00
003E00
003F00
000F00
000F00
001E00
007800
01C000
ENDCHAR
STARTCHAR 00C8
ENCODING 200
SWIDTH 500 0
DWIDTH 24 0
BBX 21 41 1 0
BITMAP
040000
0E0000
1F0000
0FC000
03E000
00F000
003C00
000E00
000400
000000
000000
FFFFE0
7FFFF0
1E0060
1E0060
1E0060
1E0060
1E0000
1E0000
1E0000
1E0000
1E0000
1E0000
1E0000
1FFF80
1FFF80
1E0300
1E0000
1E0000
1E0000
1E0000
1E0000
1E0000
1E0000
1E0000
1E0008
1E0018
1E0018
1F0038
7FFFF0
FFFFF0
ENDCHAR
STARTCHAR 00C9
ENCODING 201
SWIDTH 500 0
DWIDTH 24 0
BBX 21 41 1 0
BITMAP
000100
0003C0
0007E0
000FC0
003F00
007C00
00F000
01C000
010000
000000
000000
FFFFE0
7FFFF0
1E0060
1E0060
1E0060
1E0060
1E0000
1E0000
1E0000
1E0000
1E0000
1E0000
1E0000
1FFF80
1FFF80
1E0300
1E0000
1E0000
1E0000
1E0000
1E0000
1E0000
1E0000
1E0000
1E0008
1E0018
1E0018
1F0038
7FFFF0
FFFFF0
ENDCHAR
STARTCHAR 00CA
ENCODING 202
SWIDTH 500 0
DWIDTH 24 0
BBX 21 41 1 0
BITMAP
003000
007800
00FC00
01FE00
03CF00
070700
0E0180
1C00C0
100080
000000
000000
FFFFE0
7FFFF0
1E0060
1E0060
1E0060
1E0060
1E0000
1E0000
1E0000
1E0000
1E0000
1E0000
1E0000
1FFF80
1FFF80
1E0300
1E0000
1E0000
1E0000
1E0000
1E0000
1E0000
1E0000
1E0000
1E0008
1E0018
1E0018
1F0038
7FFFF0
FFFFF0
ENDCHAR
STARTCHAR 00CB
ENCODING 203
SWIDTH 500 0
DWIDTH 24 0
BBX 21 38 1 0
BITMAP
040100
0F03C0
0F03C0
0F03C0
0E0380
040100
000000
000000
FFFFE0
7FFFF0
1E0060
1E0060
1E0060
1E0060
1E0000
1E0000
1E0000
1E0000
1E0000
1E0000
1E0000
1FFF80
1FFF80
1E0300
1E0000
1E0000
1E0000
1E0000
1E0000
1E0000
1E0000
1E0000
1E0008
1E0018
1E0018
1F0038
7FFFF0
FFFFF0
ENDCHAR
STARTCHAR 00CC
ENCODING 204
SWIDTH 291 0
DWIDTH 14 0
BBX 13 41 -1 0
BITMAP
2000
7000
FC00
7E00
1F00
0780
01E0
0070
0020
0000
0000
1FF8
0FF0
03C0
03C0
03C0
03C0
03C0
03C0
03C0
03C0
03C0
03C0
03C0
03C0
03C0
03C0
03C0
03C0
03C0
03C0
03C0
03C0
03C0
03C0
03C0
03C0
03C0
03C0
0FF0
1FF8
ENDCHAR
STARTCHAR 00CD
ENCODING 205
SWIDTH 291 0
DWIDTH 14 0
BBX 13 41 2 0
BITMAP
0040
0070
01F8
03F0
07C0
1F00
3C00
7000
4000
0000
0000
FFC0
7F80
1E00
1E00
1E00
1E00
1E00
1E00
1E00
1E00
1E00
1E00
1E00
1E00
1E00
1E00
1E00
1E00
1E00
1E00
1E00
1E00
1E00
1E00
1E00
1E00
1E00
1E00
7F80
FFC0
ENDCHAR
STARTCHAR 00CE
ENCODING 206
SWIDTH 291 0
DWIDTH 14 0
BBX 15 41 -1 0
BITMAP
0180
03C0
07E0
0FF0
1E78
383C
700C
E006
4004
0000
0000
1FF8
0FF0
03C0
03C0
03C0
03C0
03C0
03C0
03C0
03C0
03C0
03C0
03C0
03C0
03C0
03C0
03C0
03C0
03C0
03C0
03C0
03C0
03C0
03C0
03C0
03C0
03C0
03C0
0FF0
1FF8
ENDCHAR
STARTCHAR 00CF
ENCODING 207
SWIDTH 291 0
DWIDTH 14 0
BBX 14 38 0 0
BITMAP
4010
701C
F03C
F03C
E038
4010
0000
0000
3FF0
1FE0
0780
0780
0780
0780
0780
0780
0780
0780
0780
0780
0780
0780
0780
0780
0780
0780
0780
0780
0780
0780
0780
0780
0780
0780
0780
0780
1FE0
3FF0
ENDCHAR
STARTCHAR 00D0
ENCODING 208
SWIDTH 583 0
DWIDTH 28 0
BBX 25 30 1 0
BITMAP
07FE0000
FFFFC000
7F03F000
0F00F800
0F007C00
0F003E00
0F001E00
0F001F00
0F000F00
0F000F00
0F000F80
0F000780
0F000780
0F000780
FFFE0780
FFFC0780
0F000780
0F000780
0F000780
0F000700
0F000F00
0F000F00
0F001E00
0F001E00
0F003C00
0F007C00
0F00F800
0F03E000
1FFFC000
7FFE0000
ENDCHAR
STARTCHAR 00D1
ENCODING 209
SWIDTH 645 0
DWIDTH 31 0
BBX 27 39 2 0
BITMAP
00201000
007C0C00
00FE1800
01FFF000
030FF000
0303E000
02010000
00000000
00000000
FC003FE0
7C000F80
1E000700
1F000700
1F000700
1F800700
1FC00700
1DC00700
1CE00700
1CF00700
1C780700
1C380700
1C3C0700
1C1E0700
1C0E0700
1C0F0700
1C078700
1C078700
1C03C700
1C01E700
1C01E700
1C00F700
1C007F00
1C007F00
1C003F00
1C001F00
1C001F00
1C000F00
3E000700
FF800300
ENDCHAR
STARTCHAR 00D2
ENCODING 210
SWIDTH 604 0
DWIDTH 29 0
BBX 25 41 2 0
BITMAP
02000000
03800000
07C00000
07E00000
01F80000
007C0000
001E0000
00078000
00010000
00000000
00000000
003F0000
00FFE000
03C1F000
0700F800
0E007C00
1C003E00
3C001E00
38001F00
78000F00
78000F00
70000F80
F0000780
F0000780
F0000780
F0000780
F0000780
F0000780
F0000780
F0000780
F8000700
78000F00
78000F00
7C000E00
3C001C00
3E001C00
1F003800
0F807000
07C1E000
03FF8000
00FE0000
ENDCHAR
STARTCHAR 00D3
ENCODING 211
SWIDTH 604 0
DWIDTH 29 0
BBX 25 41 2 0
BITMAP
00008000
0000E000
0001F000
0007F000
000FC000
001E0000
00380000
00E00000
00800000
00000000
00000000
003F0000
00FFE000
03C1F000
0700F800
0E007C00
1C003E00
3C001E00
38001F00
78000F00
78000F00
70000F80
F0000780
F0000780
F0000780
F0000780
F0000780
F0000780
F0000780
F0000780
F8000700
78000F00
78000F00
7C000E00
3C001C00
3E001C00
1F003800
0F807000
07C1E000
03FF8000
00FE0000
ENDCHAR
STARTCHAR 00D4
ENCODING 212
SWIDTH 604 0
DWIDTH 29 0
BBX 25 41 2 0
BITMAP
001C0000
003E0000
007E0000
007F0000
00E38000
01C1C000
0380E000
06007000
04002000
00000000
00000000
003F0000
00FFE000
03C1F000
0700F800
0E007C00
1C003E00
3C001E00
38001F00
78000F00
78000F00
70000F80
F0000780
F0000780
F0000780
F0000780
F0000780
F0000780
F0000780
F0000780
F8000700
78000F00
78000F00
7C000E00
3C001C00
3E001C00
1F003800
0F807000
07C1E000
03FF8000
00FE0000
ENDCHAR
STARTCHAR 00D5
ENCODING 213
SWIDTH 604 0
DWIDTH 29 0
BBX 25 39 2 0
BITMAP
00402000
01F83000
03FC3000
03FFE000
061FC000
040F8000
0C020000
00000000
00000000
003F0000
00FFE000
03C1F000
0700F800
0E007C00
1C003E00
3C001E00
38001F00
78000F00
78000F00
70000F80
F0000780
F0000780
F0000780
F0000780
F0000780
F0000780
F0000780
F0000780
F8000700
78000F00
78000F00
7C000E00
3C001C00
3E001C00
1F003800
0F807000
07C1E000
03FF8000
00FE0000
ENDCHAR
STARTCHAR 00D6
ENCODING 214
SWIDTH 604 0
DWIDTH 29 0
BBX 25 38 2 0
BITMAP
01004000
0380E000
0380E000
0781E000
0380E000
02008000
00000000
00000000
003F0000
00FFE000
03C1F000
0700F800
0E007C00
1C003E00
3C001E00
38001F00
78000F00
78000F00
70000F80
F0000780
F0000780
F0000780
F0000780
F0000780
F0000780
F0000780
F0000780
F8000700
78000F00
78000F00
7C000E00
3C001C00
3E001C00
1F003800
0F807000
07C1E000
03FF8000
00FE0000
ENDCHAR
STARTCHAR 00D7
ENCODING 215
SWIDTH 416 0
DWIDTH 20 0
BBX 15 14 2 6
BITMAP
6006
F00E
781C
3C38
1E70
0FE0
07C0
07C0
0FE0
1E70
3C38
781C
F00E
6006
ENDCHAR
STARTCHAR 00D8
ENCODING 216
SWIDTH 604 0
DWIDTH 29 0
BBX 25 31 2 -1
BITMAP
003F0780
01FFCF00
03C1FE00
07007E00
0E003C00
1C007E00
38007E00
3800FF00
7801EF00
7801EF00
7003CF80
F0078780
F0070780
F00F0780
F01E0780
F03C0780
F03C0780
F0780780
F0F00780
F0E00700
79E00700
7BC00F00
7B800E00
3F800C00
3F001C00
1E003800
1F007000
3FC1E000
79FF8000
F07E0000
C0000000
ENDCHAR
STARTCHAR 00D9
ENCODING 217
SWIDTH 645 0
DWIDTH 31 0
BBX 27 41 2 0
BITMAP
00800000
01C00000
03F00000
01F80000
007C0000
001E0000
00078000
0001C000
00008000
00000000
00000000
FFC07FE0
7F803FC0
1E000F00
1E000F00
1E000F00
1E000F00
1E000F00
1E000F00
1E000F00
1E000F00
1E000F00
1E000F00
1E000F00
1E000F00
1E000F00
1E000F00
1E000F00
1E000F00
1E000F00
1E000F00
1E000F00
1E000F00
1E001E00
0F001E00
0F001E00
07803C00
07C07800
03E0F000
01FFE000
003F8000
ENDCHAR
STARTCHAR 00DA
ENCODING 218
SWIDTH 645 0
DWIDTH 31 0
BBX 27 41 2 0
BITMAP
00002000
00007800
0000FC00
0001F800
0003E000
000F8000
001E0000
00380000
00200000
00000000
00000000
FFC07FE0
7F803FC0
1E000F00
1E000F00
1E000F00
1E000F00
1E000F00
1E000F00
1E000F00
1E000F00
1E000F00
1E000F00
1E000F00
1E000F00
1E000F00
1E000F00
1E000F00
1E000F00
1E000F00
1E000F00
1E000F00
1E000F00
1E001E00
0F001E00
0F001E00
07803C00
07C07800
03E0F000
01FFE000
003F8000
ENDCHAR
STARTCHAR 00DB
ENCODING 219
SWIDTH 645 0
DWIDTH 31 0
BBX 27 41 2 0
BITMAP
00060000
000F0000
001F8000
003FC000
0079E000
00E0F000
01C03000
03801800
01001000
00000000
00000000
FFC07FE0
7F803FC0
1E000F00
1E000F00
1E000F00
1E000F00
1E000F00
1E000F00
1E000F00
1E000F00
1E000F00
1E000F00
1E000F00
1E000F00
1E000F00
1E000F00
1E000F00
1E000F00
1E000F00
1E000F00
1E000F00
1E000F00
1E001E00
0F001E00
0F001E00
07803C00
07C07800
03E0F000
01FFE000
003F8000
ENDCHAR
STARTCHAR 00DC
ENCODING 220
SWIDTH 645 0
DWIDTH 31 0
BBX 27 38 2 0
BITMAP
00802000
00E03800
01E07800
01E07800
01C07000
00802000
00000000
00000000
FFC07FE0
7F803FC0
1E000F00
1E000F00
1E000F00
1E000F00
1E000F00
1E000F00
1E000F00
1E000F00
1E000F00
1E000F00
1E000F00
1E000F00
1E000F00
1E000F00
1E000F00
1E000F00
1E000F00
1E000F00
1E000F00
1E000F00
1E001E00
0F001E00
0F001E00
07803C00
07C07800
03E0F000
01FFE000
003F8000
ENDCHAR
STARTCHAR 00DD
ENCODING 221
SWIDTH 604 0
DWIDTH 29 0
BBX 28 41 0 0
BITMAP
00002000
00003800
0000FC00
0001F800
0003E000
00078000
001E0000
00380000
00200000
00000000
00000000
FC003FF0
FE003FF0
1F000F80
0F000700
0F800E00
07C00E00
03C01C00
03E03C00
01E03800
00F07800
00F87000
0078E000
007DE000
003DC000
003FC000
001F8000
001F8000
000F0000
000F0000
000F0000
000F0000
000F0000
000F0000
000F0000
000F0000
000F0000
000F0000
000F0000
003FC000
00FFF000
ENDCHAR
STARTCHAR 00DE
ENCODING 222
SWIDTH 520 0
DWIDTH 25 0
BBX 21 30 2 0
BITMAP
FFE000
7F8000
1E0000
1E0000
1E0000
1E0000
1FFE00
1FFF80
1E0FC0
1E03E0
1E01F0
1E00F8
1E0078
1E0078
1E0078
1E0078
1E0078
1E0078
1E00F0
1E00F0
1E01E0
1F07C0
1EFF80
1E7C00
1E0000
1E0000
1E0000
1E0000
7F8000
FFE000
ENDCHAR
STARTCHAR 00DF
ENCODING 223
SWIDTH 562 0
DWIDTH 27 0
BBX 25 36 1 0
BITMAP
001F8000
007FE000
01C3F000
0380F800
07007800
07007C00
0E003C00
0E003C00
0E003C00
1E003C00
1E003C00
1E007800
1E01F800
1E07F000
1E0FC000
1E1F0000
1E3C0000
1E3C0000
1E3C0000
1E3E0000
1E3F0000
1E1FC000
1E0FF000
1E03FC00
1E00FE00
1E007F00
1E001F80
1E000F80
1E000780
1E200780
1E300780
1E300700
1E380F00
1E3C1E00
3E3FFC00
FE07E000
ENDCHAR
STARTCHAR 00E0
ENCODING 224
SWIDTH 458 0
DWIDTH 22 0
BBX 20 35 2 0
BITMAP
1E0000
3E0000
1F0000
0F0000
078000
03C000
01C000
00E000
006000
003000
000000
000000
000000
01F800
0FFE00
1C1E00
780F00
700F00
F00F00
800F00
000F00
000F00
00FF00
07FF00
1F8F00
3E0F00
780F00
F80F00
F00F00
F00F00
F01F00
F03F00
78EF20
7F8FF0
1E0780
ENDCHAR
STARTCHAR 00E1
ENCODING 225
SWIDTH 458 0
DWIDTH 22 0
BBX 20 35 2 0
BITMAP
000F00
001F00
001E00
003C00
003800
007000
007000
00E000
01C000
018000
000000
000000
000000
01F800
0FFE00
1C1E00
780F00
700F00
F00F00
800F00
000F00
000F00
00FF00
07FF00
1F8F00
3E0F00
780F00
F80F00
F00F00
F00F00
F01F00
F03F00
78EF20
7F8FF0
1E0780
ENDCHAR
STARTCHAR 00E2
ENCODING 226
SWIDTH 458 0
DWIDTH 22 0
BBX 20 34 2 0
BITMAP
00E000
01F000
03F000
073800
061C00
0C0E00
180600
300300
200180
000000
000000
000000
01F800
0FFE00
1C1E00
780F00
700F00
F00F00
800F00
000F00
000F00
00FF00
07FF00
1F8F00
3E0F00
780F00
F80F00
F00F00
F00F00
F01F00
F03F00
78EF20
7F8FF0
1E0780
ENDCHAR
STARTCHAR 00E3
ENCODING 227
SWIDTH 458 0
DWIDTH 22 0
BBX 20 32 2 0
BITMAP
070080
0FC180
1FC100
3FF300
30FE00
603800
000000
000000
000000
000000
01F800
0FFE00
1C1E00
780F00
700F00
F00F00
800F00
000F00
000F00
00FF00
07FF00
1F8F00
3E0F00
780F00
F80F00
F00F00
F00F00
F01F00
F03F00
78EF20
7F8FF0
1E0780
ENDCHAR
STARTCHAR 00E4
ENCODING 228
SWIDTH 458 0
DWIDTH 22 0
BBX 20 32 2 0
BITMAP
1C0700
1C0700
3C0F00
3C0F00
180600
000000
000000
000000
000000
000000
01F800
0FFE00
1C1E00
780F00
700F00
F00F00
800F00
000F00
000F00
00FF00
07FF00
1F8F00
3E0F00
780F00
F80F00
F00F00
F00F00
F01F00
F03F00
78EF20
7F8FF0
1E0780
ENDCHAR
STARTCHAR 00E5
ENCODING 229
SWIDTH 458 0
DWIDTH 22 0
BBX 20 34 2 0
BITMAP
00F000
01F800
031800
031800
061800
061800
073800
03F000
01C000
000000
000000
000000
01F800
0FFE00
1C1E00
780F00
700F00
F00F00
800F00
000F00
000F00
00FF00
07FF00
1F8F00
3E0F00
780F00
F80F00
F00F00
F00F00
F01F00
F03F00
78EF20
7F8FF0
1E0780
ENDCHAR
STARTCHAR 00E6
ENCODING 230
SWIDTH 687 0
DWIDTH 33 0
BBX 29 22 2 0
BITMAP
01F81F80
07FC7FC0
1C3EE1E0
381FC0F0
700F8070
F00F8078
F00F0078
C00F0078
007FFFF8
03FFFFF0
0F8F0000
1E0F0000
3C0F0000
780F0000
F00F0000
F00F8000
F01F8018
F03FC030
F8F3E0F0
7FE3FFC0
7F80FF80
1E007E00
ENDCHAR
STARTCHAR 00E7
ENCODING 231
SWIDTH 437 0
DWIDTH 21 0
BBX 18 32 2 -10
BITMAP
007F00
01FFC0
0707C0
0E0180
1C0080
380000
780000
700000
F00000
F00000
F00000
F00000
F00000
F00000
F00000
F80000
780100
7C0380
3E0700
1FFE00
1FF800
07F000
00C000
008000
00E000
00F000
01F800
007800
007800
00F000
03C000
0E0000
ENDCHAR
STARTCHAR 00E8
ENCODING 232
SWIDTH 458 0
DWIDTH 22 0
BBX 18 35 2 0
BITMAP
0E0000
1F0000
0F8000
078000
03C000
01C000
00E000
007000
003000
001800
000000
000000
000000
00F800
07FE00
0E0F00
1C0780
380780
3803C0
7003C0
7003C0
FFFFC0
FFFF80
F00000
F00000
F00000
F00000
F80000
780000
780000
7C00C0
3E0180
1F0700
0FFE00
03F800
ENDCHAR
STARTCHAR 00E9
ENCODING 233
SWIDTH 458 0
DWIDTH 22 0
BBX 18 35 2 0
BITMAP
000700
000F80
000F00
001E00
003C00
003800
007000
006000
00C000
008000
000000
000000
000000
00F800
07FE00
0E0F00
1C0780
380780
3803C0
7003C0
7003C0
FFFFC0
FFFF80
F00000
F00000
F00000
F00000
F80000
780000
780000
7C00C0
3E0180
1F0700
0FFE00
03F800
ENDCHAR
STARTCHAR 00EA
ENCODING 234
SWIDTH 458 0
DWIDTH 22 0
BBX 18 34 2 0
BITMAP
00F000
00F000
01F800
039C00
070E00
0E0600
0C0300
180180
100080
000000
000000
000000
00F800
07FE00
0E0F00
1C0780
380780
3803C0
7003C0
7003C0
FFFFC0
FFFF80
F00000
F00000
F00000
F00000
F80000
780000
780000
7C00C0
3E0180
1F0700
0FFE00
03F800
ENDCHAR
STARTCHAR 00EB
ENCODING 235
SWIDTH 458 0
DWIDTH 22 0
BBX 18 32 2 0
BITMAP
0E0380
1E0780
1E0780
1E0780
1C0700
000000
000000
000000
000000
000000
00F800
07FE00
0E0F00
1C0780
380780
3803C0
7003C0
7003C0
FFFFC0
FFFF80
F00000
F00000
F00000
F00000
F80000
780000
780000
7C00C0
3E0180
1F0700
0FFE00
03F800
ENDCHAR
STARTCHAR 00EC
ENCODING 236
SWIDTH 270 0
DWIDTH 13 0
BBX 12 35 0 0
BITMAP
F000
F800
7800
3C00
1C00
0E00
0700
0300
0180
0080
0000
0000
0000
0180
1F80
3F80
0F80
0780
0780
0780
0780
0780
0780
0780
0780
0780
0780
0780
0780
0780
0780
0780
0780
0FC0
3FF0
ENDCHAR
STARTCHAR 00ED
ENCODING 237
SWIDTH 270 0
DWIDTH 13 0
BBX 12 35 2 0
BITMAP
00E0
01F0
03E0
03C0
0780
0700
0E00
1C00
1800
3000
0000
0000
0000
0600
7E00
FE00
3E00
1E00
1E00
1E00
1E00
1E00
1E00
1E00
1E00
1E00
1E00
1E00
1E00
1E00
1E00
1E00
1E00
3F00
FFC0
ENDCHAR
STARTCHAR 00EE
ENCODING 238
SWIDTH 270 0
DWIDTH 13 0
BBX 15 34 -1 0
BITMAP
0380
07C0
07E0
0EF0
1C70
3838
700C
6006
C002
0000
0000
0000
00C0
0FC0
1FC0
07C0
03C0
03C0
03C0
03C0
03C0
03C0
03C0
03C0
03C0
03C0
03C0
03C0
03C0
03C0
03C0
03C0
07E0
1FF8
ENDCHAR
STARTCHAR 00EF
ENCODING 239
SWIDTH 270 0
DWIDTH 13 0
BBX 14 32 0 0
BITMAP
6018
F03C
F03C
E038
E038
0000
0000
0000
0000
0000
0180
1F80
3F80
0F80
0780
0780
0780
0780
0780
0780
0780
0780
0780
0780
0780
0780
0780
0780
0780
0780
0FC0
3FF0
ENDCHAR
STARTCHAR 00F0
ENCODING 240
SWIDTH 500 0
DWIDTH 24 0
BBX 20 34 2 0
BITMAP
030000
1FC080
1FE1E0
01FFC0
007E00
00FC00
03FE00
0F8F00
040780
000380
0003C0
0001C0
01F1E0
07FFE0
0E1FE0
1C07F0
3803F0
3801F0
7801F0
7000F0
F000F0
F000F0
F000F0
F000F0
F000E0
F000E0
F801E0
7801C0
7C01C0
7C0380
3E0700
1F0E00
0FFC00
03F000
ENDCHAR
STARTCHAR 00F1
ENCODING 241
SWIDTH 541 0
DWIDTH 26 0
BBX 23 32 2 0
BITMAP
01E020
03F030
07F860
07FCC0
0E3F80
080F00
000000
000000
000000
000000
0C07C0
FE0FE0
3E31E0
1E60F0
1EC0F0
1E80F0
1F00F0
1F00F0
1E00F0
1E00F0
1E00F0
1E00F0
1E00F0
1E00F0
1E00F0
1E00F0
1E00F0
1E00F0
1E00F0
1E00F0
7F83F8
FFC7FE
ENDCHAR
STARTCHAR 00F2
ENCODING 242
SWIDTH 500 0
DWIDTH 24 0
BBX 20 35 2 0
BITMAP
0F0000
0F0000
078000
03C000
01C000
00E000
007000
007000
003800
001800
000000
000000
000000
00FC00
07FF00
0E0F80
1C07C0
3803C0
3803E0
7001E0
7001F0
F000F0
F000F0
F000F0
F000F0
F000F0
F000F0
F800E0
7801E0
7C01C0
3C01C0
3E0380
1F0700
0FFE00
03F000
ENDCHAR
STARTCHAR 00F3
ENCODING 243
SWIDTH 500 0
DWIDTH 24 0
BBX 20 35 2 0
BITMAP
000780
0007C0
000F80
000F00
001E00
003C00
003800
007000
006000
00C000
000000
000000
000000
00FC00
07FF00
0E0F80
1C07C0
3803C0
3803E0
7001E0
7001F0
F000F0
F000F0
F000F0
F000F0
F000F0
F000F0
F800E0
7801E0
7C01C0
3C01C0
3E0380
1F0700
0FFE00
03F000
ENDCHAR
STARTCHAR 00F4
ENCODING 244
SWIDTH 500 0
DWIDTH 24 0
BBX 20 34 2 0
BITMAP
007000
00F800
01FC00
01DC00
038E00
070700
0E0380
0C01C0
1800C0
000000
000000
000000
00FC00
07FF00
0E0F80
1C07C0
3803C0
3803E0
7001E0
7001F0
F000F0
F000F0
F000F0
F000F0
F000F0
F000F0
F800E0
7801E0
7C01C0
3C01C0
3E0380
1F0700
0FFE00
03F000
ENDCHAR
STARTCHAR 00F5
ENCODING 245
SWIDTH 500 0
DWIDTH 24 0
BBX 20 32 2 0
BITMAP
03C040
07E060
0FF0C0
0FF980
1C7F00
101E00
000000
000000
000000
000000
00FC00
07FF00
0E0F80
1C07C0
3803C0
3803E0
7001E0
7001F0
F000F0
F000F0
F000F0
F000F0
F000F0
F000F0
F800E0
7801E0
7C01C0
3C01C0
3E0380
1F0700
0FFE00
03F000
ENDCHAR
STARTCHAR 00F6
ENCODING 246
SWIDTH 500 0
DWIDTH 24 0
BBX 20 32 2 0
BITMAP
060180
0F03C0
0F03C0
0E0380
0E0380
000000
000000
000000
000000
000000
00FC00
07FF00
0E0F80
1C07C0
3803C0
3803E0
7001E0
7001F0
F000F0
F000F0
F000F0
F000F0
F000F0
F000F0
F800E0
7801E0
7C01C0
3C01C0
3E0380
1F0700
0FFE00
03F000
ENDCHAR
STARTCHAR 00F7
ENCODING 247
SWIDTH 416 0
DWIDTH 20 0
BBX 17 15 1 6
BITMAP
00E000
01E000
01E000
01C000
000000
000000
000000
7FFF80
FFFF80
000000
000000
00E000
01E000
01E000
01C000
ENDCHAR
STARTCHAR 00F8
ENCODING 248
SWIDTH 500 0
DWIDTH 24 0
BBX 20 24 2 -1
BITMAP
000030
01F870
07FEE0
0E0FC0
1C07C0
3803E0
3807E0
700FE0
701CF0
F018F0
F038F0
F070F0
F0E0F0
F0C0F0
F1C0F0
F380E0
FF00E0
7E01C0
7E01C0
3E0380
3F0700
77FE00
E1F800
800000
ENDCHAR
STARTCHAR 00F9
ENCODING 249
SWIDTH 520 0
DWIDTH 25 0
BBX 24 35 1 0
BITMAP
038000
07C000
03C000
01E000
00F000
007000
003800
001800
000C00
000400
000000
000000
000000
060070
FE07F0
7E07F0
1E00F0
1E00F0
1E00F0
1E00F0
1E00F0
1E00F0
1E00F0
1E00F0
1E00F0
1E00F0
1E00F0
1E00F0
1E00F0
1E00F0
1E01F0
1F02F0
0F0CFF
0FF8FC
03E070
ENDCHAR
STARTCHAR 00FA
ENCODING 250
SWIDTH 520 0
DWIDTH 25 0
BBX 24 35 1 0
BITMAP
0001C0
0003E0
0007C0
000780
000F00
000E00
001C00
003800
003000
006000
000000
000000
000000
060070
FE07F0
7E07F0
1E00F0
1E00F0
1E00F0
1E00F0
1E00F0
1E00F0
1E00F0
1E00F0
1E00F0
1E00F0
1E00F0
1E00F0
1E00F0
1E00F0
1E01F0
1F02F0
0F0CFF
0FF8FC
03E070
ENDCHAR
STARTCHAR 00FB
ENCODING 251
SWIDTH 520 0
DWIDTH 25 0
BBX 24 34 1 0
BITMAP
003800
007C00
007E00
00E700
01C300
038180
0300C0
060060
0C0020
000000
000000
000000
060070
FE07F0
7E07F0
1E00F0
1E00F0
1E00F0
1E00F0
1E00F0
1E00F0
1E00F0
1E00F0
1E00F0
1E00F0
1E00F0
1E00F0
1E00F0
1E00F0
1E01F0
1F02F0
0F0CFF
0FF8FC
03E070
ENDCHAR
STARTCHAR 00FC
ENCODING 252
SWIDTH 520 0
DWIDTH 25 0
BBX 24 32 1 0
BITMAP
0300C0
0781E0
0781E0
0781E0
0701C0
000000
000000
000000
000000
000000
060070
FE07F0
7E07F0
1E00F0
1E00F0
1E00F0
1E00F0
1E00F0
1E00F0
1E00F0
1E00F0
1E00F0
1E00F0
1E00F0
1E00F0
1E00F0
1E00F0
1E01F0
1F02F0
0F0CFF
0FF8FC
03E070
ENDCHAR
STARTCHAR 00FD
ENCODING 253
SWIDTH 500 0
DWIDTH 24 0
BBX 24 46 -1 -11
BITMAP
0000F0
0000F8
0001E0
0003E0
0003C0
000780
000700
000E00
000C00
001800
000000
000000
000000
7FE0FF
1F003E
0F001C
0F0018
078038
078038
038030
03C070
03C060
01E0E0
01E0E0
00E0C0
00F1C0
00F1C0
007980
007B80
003B00
003F00
003F00
001E00
001E00
000C00
000C00
001C00
001800
003800
007000
007000
00E000
3FC000
7F8000
FF0000
7C0000
ENDCHAR
STARTCHAR 00FE
ENCODING 254
SWIDTH 520 0
DWIDTH 25 0
BBX 21 47 2 -11
BITMAP
060000
7E0000
FE0000
3E0000
1E0000
1E0000
1E0000
1E0000
1E0000
1E0000
1E0000
1E0000
1E0000
1E0000
1E0F00
1C3FC0
1C63E0
1CC1E0
1D81F0
1F00F0
1F00F8
1E00F8
1E0078
1E0078
1E0078
1E0078
1E0078
1E0078
1E0070
1E0070
1E00E0
1E00E0
1F81C0
1FC380
1FFF00
1E7C00
1E0000
1E0000
1E0000
1E0000
1E0000
1E0000
1E0000
1E0000
1E0000
3F0000
FFE000
ENDCHAR
STARTCHAR 00FF
ENCODING 255
SWIDTH 500 0
DWIDTH 24 0
BBX 24 43 -1 -11
BITMAP
00C030
01C070
01E078
03C0F0
018060
000000
000000
000000
000000
000000
7FE0FF
1F003E
0F001C
0F0018
078038
078038
038030
03C070
03C060
01E0E0
01E0E0
00E0C0
00F1C0
00F1C0
007980
007B80
003B00
003F00
003F00
001E00
001E00
000C00
000C00
001C00
001800
003800
007000
007000
00E000
3FC000
7F8000
FF0000
7C0000
ENDCHAR
STARTCHAR 0100
ENCODING 256
SWIDTH 604 0
DWIDTH 29 0
BBX 28 38 0 0
BITMAP
01FFFC00
01FFFC00
03FFF800
00000000
00000000
00000000
00000000
00000000
00020000
00070000
000F0000
000F0000
001F8000
001F8000
001B8000
003BC000
0039C000
0031E000
0071E000
0070E000
0060F000
00E0F000
00E07000
00C07800
01C07800
01C03800
01FFFC00
03FFFC00
03801E00
03001E00
07001E00
07000F00
06000F00
0E000F00
0E000780
0C000780
3E0007C0
FFC03FF0
ENDCHAR
STARTCHAR 0101
ENCODING 257
SWIDTH 458 0
DWIDTH 22 0
BBX 20 30 2 0
BITMAP
3FFF80
3FFF80
000000
000000
000000
000000
000000
000000
01F800
0FFE00
1C1E00
780F00
700F00
F00F00
800F00
000F00
000F00
00FF00
07FF00
1F8F00
3E0F00
780F00
F80F00
F00F00
F00F00
F01F00
F03F00
78EF20
7F8FF0
1E0780
ENDCHAR
STARTCHAR 0102
ENCODING 258
SWIDTH 604 0
DWIDTH 29 0
BBX 28 41 0 0
BITMAP
01001000
03000C00
01801800
01C01800
00E07000
00FFF000
007FE000
001FC000
00040000
00000000
00000000
00020000
00070000
000F0000
000F0000
001F8000
001F8000
001B8000
003BC000
0039C000
0031E000
0071E000
0070E000
0060F000
00E0F000
00E07000
00C07800
01C07800
01C03800
01FFFC00
03FFFC00
03801E00
03001E00
07001E00
07000F00
06000F00
0E000F00
0E000780
0C000780
3E0007C0
FFC03FF0
ENDCHAR
STARTCHAR 0103
ENCODING 259
SWIDTH 458 0
DWIDTH 22 0
BBX 20 33 2 0
BITMAP
200100
300180
300300
180700
1E0E00
0FFC00
07F800
01F000
000000
000000
000000
01F800
0FFE00
1C1E00
780F00
700F00
F00F00
800F00
000F00
000F00
00FF00
07FF00
1F8F00
3E0F00
780F00
F80F00
F00F00
F00F00
F01F00
F03F00
78EF20
7F8FF0
1E0780
ENDCHAR
STARTCHAR 0106
ENCODING 262
SWIDTH 541 0
DWIDTH 26 0
BBX 23 41 1 0
BITMAP
000040
000070
0000F8
0003F8
0007E0
000F00
001C00
007000
004000
000000
000000
001FE0
00FFFC
01C0FC
078038
0E0010
0E0000
1C0000
380000
380000
780000
700000
700000
F00000
F00000
F00000
F00000
F00000
F00000
F00000
F00000
780000
780000
7C0000
3C0000
1E0004
1F000E
0F8038
07E0F0
01FFC0
007F00
ENDCHAR
STARTCHAR 0107
ENCODING 263
SWIDTH 437 0
DWIDTH 21 0
BBX 18 35 2 0
BITMAP
000F00
000F80
001F00
001E00
003C00
007800
007000
00E000
00C000
018000
000000
000000
000000
007F00
03FFC0
0707C0
0E0180
1C0080
380000
780000
700000
F00000
F00000
F00000
F00000
F00000
F00000
F80000
780000
780000
3C0040
3E01C0
1F8380
07FE00
01F800
ENDCHAR
STARTCHAR 0108
ENCODING 264
SWIDTH 541 0
DWIDTH 26 0
BBX 23 41 1 0
BITMAP
000E00
001F00
003F00
007F80
0071C0
00E0E0
01C070
030038
020010
000000
000000
001FE0
00FFFC
01C0FC
078038
0E0010
0E0000
1C0000
380000
380000
780000
700000
700000
F00000
F00000
F00000
F00000
F00000
F00000
F00000
F00000
780000
780000
7C0000
3C0000
1E0004
1F000E
0F8038
07E0F0
01FFC0
007F00
ENDCHAR
STARTCHAR 0109
ENCODING 265
SWIDTH 437 0
DWIDTH 21 0
BBX 18 34 2 0
BITMAP
00E000
01F000
03F800
03B800
071C00
0E0E00
1C0700
380300
300180
000000
000000
000000
007F00
03FFC0
0707C0
0E0180
1C0080
380000
780000
700000
F00000
F00000
F00000
F00000
F00000
F00000
F80000
780000
780000
3C0040
3E01C0
1F8380
07FE00
01F800
ENDCHAR
STARTCHAR 010A
ENCODING 266
SWIDTH 541 0
DWIDTH 26 0
BBX 23 38 1 0
BITMAP
000400
000E00
000E00
001E00
000E00
000800
000000
000000
001FE0
00FFFC
01C0FC
078038
0E0010
0E0000
1C0000
380000
380000
780000
700000
700000
F00000
F00000
F00000
F00000
F00000
F00000
F00000
F00000
780000
780000
7C0000
3C0000
1E0004
1F000E
0F8038
07E0F0
01FFC0
007F00
ENDCHAR
STARTCHAR 010B
ENCODING 267
SWIDTH 437 0
DWIDTH 21 0
BBX 18 32 2 0
BITMAP
006000
00F000
00F000
00E000
00E000
000000
000000
000000
000000
000000
007F00
03FFC0
0707C0
0E0180
1C0080
380000
780000
700000
F00000
F00000
F00000
F00000
F00000
F00000
F80000
780000
780000
3C0040
3E01C0
1F8380
07FE00
01F800
ENDCHAR
STARTCHAR 010C
ENCODING 268
SWIDTH 541 0
DWIDTH 26 0
BBX 23 41 1 0
BITMAP
020010
030038
01C070
00E0E0
0071C0
007F80
003F00
001F00
000E00
000000
000000
001FE0
00FFFC
01C0FC
078038
0E0010
0E0000
1C0000
380000
380000
780000
700000
700000
F00000
F00000
F00000
F00000
F00000
F00000
F00000
F00000
780000
780000
7C0000
3C0000
1E0004
1F000E
0F8038
07E0F0
01FFC0
007F00
ENDCHAR
STARTCHAR 010D
ENCODING 269
SWIDTH 437 0
DWIDTH 21 0
BBX 18 35 2 0
BITMAP
300100
380380
1C0700
0E0E00
0F1E00
07BC00
03F800
03F800
01F000
00E000
000000
000000
000000
007F00
03FFC0
0707C0
0E0180
1C0080
380000
780000
700000
F00000
F00000
F00000
F00000
F00000
F00000
F80000
780000
780000
3C0040
3E01C0
1F8380
07FE00
01F800
ENDCHAR
STARTCHAR 010E
ENCODING 270
SWIDTH 583 0
DWIDTH 28 0
BBX 25 41 1 0
BITMAP
04004000
0E006000
0700C000
0383C000
01E78000
00FF0000
007E0000
003C0000
00180000
00000000
00000000
07FE0000
FFFFC000
6F03F000
0F00F800
0F007C00
0F003E00
0F001E00
0F001F00
0F000F00
0F000F00
0F000F80
0F000780
0F000780
0F000780
0F000780
0F000780
0F000780
0F000780
0F000780
0F000700
0F000F00
0F000F00
0F001E00
0F001E00
0F003C00
0F007C00
0F00F800
0F03E000
3FFFC000
7FFE0000
ENDCHAR
STARTCHAR 0110
ENCODING 272
SWIDTH 583 0
DWIDTH 28 0
BBX 25 30 1 0
BITMAP
07FE0000
FFFFC000
7F03F000
0F00F800
0F007C00
0F003E00
0F001E00
0F001F00
0F000F00
0F000F00
0F000F80
0F000780
0F000780
0F000780
FFFE0780
FFFC0780
0F000780
0F000780
0F000780
0F000700
0F000F00
0F000F00
0F001E00
0F001E00
0F003C00
0F007C00
0F00F800
0F03E000
1FFFC000
7FFE0000
ENDCHAR
STARTCHAR 0111
ENCODING 273
SWIDTH 520 0
DWIDTH 25 0
BBX 23 36 2 0
BITMAP
0000E0
000FE0
0003E0
0001E0
0001E0
0001E0
0001E0
00FFFE
00FFFE
00F1F8
0001E0
0001E0
0001E0
0001E0
00FDE0
03FFE0
0F0FE0
1C03E0
3C01E0
3801E0
7801E0
7001E0
F001E0
F001E0
F001E0
F001E0
F001E0
F001E0
F001E0
7801E0
7801E0
7C03E0
3E05E4
1F19FE
0FF0F8
07C0E0
ENDCHAR
STARTCHAR 0112
ENCODING 274
SWIDTH 500 0
DWIDTH 24 0
BBX 21 38 1 0
BITMAP
0FFFC0
1FFFE0
0FFFC0
000000
000000
000000
000000
000000
FFFFE0
7FFFF0
1E0060
1E0060
1E0060
1E0060
1E0000
1E0000
1E0000
1E0000
1E0000
1E0000
1E0000
1FFF80
1FFF80
1E0300
1E0000
1E0000
1E0000
1E0000
1E0000
1E0000
1E0000
1E0000
1E0008
1E0018
1E0018
1F0038
7FFFF0
FFFFF0
ENDCHAR
STARTCHAR 0113
ENCODING 275
SWIDTH 458 0
DWIDTH 22 0
BBX 18 30 2 0
BITMAP
1FFFC0
3FFFC0
000000
000000
000000
000000
000000
000000
00F800
07FE00
0E0F00
1C0780
380780
3803C0
7003C0
7003C0
FFFFC0
FFFF80
F00000
F00000
F00000
F00000
F80000
780000
780000
7C00C0
3E0180
1F0700
0FFE00
03F800
ENDCHAR
STARTCHAR 0114
ENCODING 276
SWIDTH 500 0
DWIDTH 24 0
BBX 21 41 1 0
BITMAP
100080
180040
1800C0
0C01C0
0E0380
07FF00
03FE00
01FC00
002000
000000
000000
FFFFE0
7FFFF0
1E0060
1E0060
1E0060
1E0060
1E0000
1E0000
1E0000
1E0000
1E0000
1E0000
1E0000
1FFF80
1FFF80
1E0300
1E0000
1E0000
1E0000
1E0000
1E0000
1E0000
1E0000
1E0000
1E0008
1E0018
1E0018
1F0038
7FFFF0
FFFFF0
ENDCHAR
STARTCHAR 0115
ENCODING 277
SWIDTH 458 0
DWIDTH 22 0
BBX 18 33 2 0
BITMAP
100080
3000C0
180180
1C0300
0F0F00
07FE00
03FC00
01F000
000000
000000
000000
00F800
07FE00
0E0F00
1C0780
380780
3803C0
7003C0
7003C0
FFFFC0
FFFF80
F00000
F00000
F00000
F00000
F80000
780000
780000
7C00C0
3E0180
1F0700
0FFE00
03F800
ENDCHAR
STARTCHAR 0116
ENCODING 278
SWIDTH 500 0
DWIDTH 24 0
BBX 21 38 1 0
BITMAP
002000
007800
007800
007800
007000
002000
000000
000000
FFFFE0
7FFFF0
1E0060
1E0060
1E0060
1E0060
1E0000
1E0000
1E0000
1E0000
1E0000
1E0000
1E0000
1FFF80
1FFF80
1E0300
1E0000
1E0000
1E0000
1E0000
1E0000
1E0000
1E0000
1E0000
1E0008
1E0018
1E0018
1F0038
7FFFF0
FFFFF0
ENDCHAR
STARTCHAR 0117
ENCODING 279
SWIDTH 458 0
DWIDTH 22 0
BBX 18 32 2 0
BITMAP
007000
00F000
00F000
00F000
00E000
000000
000000
000000
000000
000000
00F800
07FE00
0E0F00
1C0780
380780
3803C0
7003C0
7003C0
FFFFC0
FFFF80
F00000
F00000
F00000
F00000
F80000
780000
780000
7C00C0
3E0180
1F0700
0FFE00
03F800
ENDCHAR
STARTCHAR 011A
ENCODING 282
SWIDTH 500 0
DWIDTH 24 0
BBX 21 41 1 0
BITMAP
100080
1C00C0
0E0180
070700
03CF00
01FE00
00FC00
007800
003000
000000
000000
FFFFE0
7FFFF0
1E0060
1E0060
1E0060
1E0060
1E0000
1E0000
1E0000
1E0000
1E0000
1E0000
1E0000
1FFF80
1FFF80
1E0300
1E0000
1E0000
1E0000
1E0000
1E0000
1E0000
1E0000
1E0000
1E0008
1E0018
1E0018
1F0038
7FFFF0
FFFFF0
ENDCHAR
STARTCHAR 011B
ENCODING 283
SWIDTH 458 0
DWIDTH 22 0
BBX 18 35 2 0
BITMAP
100080
180180
1C0300
0E0700
071E00
03FC00
03FC00
01F800
00F000
00F000
000000
000000
000000
00F800
07FE00
0E0F00
1C0780
380780
3803C0
7003C0
7003C0
FFFFC0
FFFF80
F00000
F00000
F00000
F00000
F80000
780000
780000
7C00C0
3E0180
1F0700
0FFE00
03F800
ENDCHAR
STARTCHAR 011C
ENCODING 284
SWIDTH 583 0
DWIDTH 28 0
BBX 24 41 2 0
BITMAP
000C00
001E00
003F00
007F80
00F3C0
01E1E0
038070
030030
020020
000000
000000
001FE0
00FFF8
01C0FC
078038
0F0010
1E0000
1C0000
380000
380000
780000
700000
F00000
F00000
F00000
F00000
F00000
F007FF
F000FE
F0003C
F0003C
F8003C
78003C
78003C
3C003C
3E003C
1E003C
0F003C
07C0F8
03FFE0
007F00
ENDCHAR
STARTCHAR 011D
ENCODING 285
SWIDTH 479 0
DWIDTH 23 0
BBX 24 45 0 -11
BITMAP
003800
007C00
007E00
00EF00
01C300
038180
0700C0
060060
0C0020
000000
000000
000000
00FC02
03FF7E
0707FC
0E03E0
1E01E0
1C01F0
3C00F0
3C00F0
3C00F0
3C00F0
3E00E0
1F01C0
0F8380
07FF00
01FC00
03C000
078000
0F8000
0FE000
07FF80
03FFF0
07BFFC
0E00FE
3C001F
78000F
F0000F
F0000F
F0000E
F8001C
7C0038
3F80F0
0FFFC0
01FE00
ENDCHAR
STARTCHAR 011E
ENCODING 286
SWIDTH 583 0
DWIDTH 28 0
BBX 24 41 2 0
BITMAP
020020
060018
030030
038070
01C0E0
01FFE0
00FFC0
007F00
000800
000000
000000
001FE0
00FFF8
01C0FC
078038
0F0010
1E0000
1C0000
380000
380000
780000
700000
F00000
F00000
F00000
F00000
F00000
F007FF
F000FE
F0003C
F0003C
F8003C
78003C
78003C
3C003C
3E003C
1E003C
0F003C
07C0F8
03FFE0
007F00
ENDCHAR
STARTCHAR 011F
ENCODING 287
SWIDTH 479 0
DWIDTH 23 0
BBX 24 44 0 -11
BITMAP
040020
0C0060
060060
0700C0
0383C0
01FF80
00FF00
007C00
000000
000000
000000
00FC02
03FF7E
0707FC
0E03E0
1E01E0
1C01F0
3C00F0
3C00F0
3C00F0
3C00F0
3E00E0
1F01C0
0F8380
07FF00
01FC00
03C000
078000
0F8000
0FE000
07FF80
03FFF0
07BFFC
0E00FE
3C001F
78000F
F0000F
F0000F
F0000E
F8001C
7C0038
3F80F0
0FFFC0
01FE00
ENDCHAR
STARTCHAR 0120
ENCODING 288
SWIDTH 583 0
DWIDTH 28 0
BBX 24 38 2 0
BITMAP
000800
000E00
001E00
001E00
001E00
000800
000000
000000
001FE0
00FFF8
01C0FC
078038
0F0010
1E0000
1C0000
380000
380000
780000
700000
F00000
F00000
F00000
F00000
F00000
F007FF
F000FE
F0003C
F0003C
F8003C
78003C
78003C
3C003C
3E003C
1E003C
0F003C
07C0F8
03FFE0
007F00
ENDCHAR
STARTCHAR 0121
ENCODING 289
SWIDTH 479 0
DWIDTH 23 0
BBX 24 43 0 -11
BITMAP
001800
003C00
003C00
003C00
003800
000000
000000
000000
000000
000000
00FC02
03FF7E
0707FC
0E03E0
1E01E0
1C01F0
3C00F0
3C00F0
3C00F0
3C00F0
3E00E0
1F01C0
0F8380
07FF00
01FC00
03C000
078000
0F8000
0FE000
07FF80
03FFF0
07BFFC
0E00FE
3C001F
78000F
F0000F
F0000F
F0000E
F8001C
7C0038
3F80F0
0FFFC0
01FE00
ENDCHAR
STARTCHAR 0124
ENCODING 292
SWIDTH 645 0
DWIDTH 31 0
BBX 27 41 2 0
BITMAP
000E0000
001F0000
003F0000
003F8000
0071C000
00E0E000
01C07000
03001800
02001000
00000000
00000000
FFC07FE0
7F803FC0
1E000F00
1E000F00
1E000F00
1E000F00
1E000F00
1E000F00
1E000F00
1E000F00
1E000F00
1E000F00
1E000F00
1E000F00
1FFFFF00
1FFFFF00
1E000F00
1E000F00
1E000F00
1E000F00
1E000F00
1E000F00
1E000F00
1E000F00
1E000F00
1E000F00
1E000F00
1E000F00
7F001FC0
FFC07FE0
ENDCHAR
STARTCHAR 0125
ENCODING 293
SWIDTH 541 0
DWIDTH 26 0
BBX 23 46 2 0
BITMAP
003C00
007C00
00FE00
01EF00
038380
0701C0
0E00E0
080040
000000
000000
060000
7E0000
FE0000
3E0000
1E0000
1E0000
1E0000
1E0000
1E0000
1E0000
1E0000
1E0000
1E0000
1E0000
1E0780
1C1FE0
1C31E0
1C60F0
1CC0F0
1D80F0
1F00F0
1F00F0
1E00F0
1E00F0
1E00F0
1E00F0
1E00F0
1E00F0
1E00F0
1E00F0
1E00F0
1E00F0
1E00F0
1E00F0
3F83F8
FFC7FE
ENDCHAR
STARTCHAR 0128
ENCODING 296
SWIDTH 291 0
DWIDTH 14 0
BBX 16 39 -1 0
BITMAP
0402
1F03
3F86
7FFE
61FC
C0F8
8040
0000
0000
1FF8
0FF0
03C0
03C0
03C0
03C0
03C0
03C0
03C0
03C0
03C0
03C0
03C0
03C0
03C0
03C0
03C0
03C0
03C0
03C0
03C0
03C0
03C0
03C0
03C0
03C0
03C0
03C0
0FF0
1FF8
ENDCHAR
STARTCHAR 0129
ENCODING 297
SWIDTH 270 0
DWIDTH 13 0
BBX 16 32 -1 0
BITMAP
1E03
3F02
7F86
7FCC
E3F8
80F0
0000
0000
0000
0000
00C0
0FC0
1FC0
07C0
03C0
03C0
03C0
03C0
03C0
03C0
03C0
03C0
03C0
03C0
03C0
03C0
03C0
03C0
03C0
03C0
07E0
1FF8
ENDCHAR
STARTCHAR 012A
ENCODING 298
SWIDTH 291 0
DWIDTH 14 0
BBX 12 38 1 0
BITMAP
7FF0
FFF0
7FE0
0000
0000
0000
0000
0000
7FE0
3FC0
0F00
0F00
0F00
0F00
0F00
0F00
0F00
0F00
0F00
0F00
0F00
0F00
0F00
0F00
0F00
0F00
0F00
0F00
0F00
0F00
0F00
0F00
0F00
0F00
0F00
0F00
3FC0
7FE0
ENDCHAR
STARTCHAR 012B
ENCODING 299
SWIDTH 270 0
DWIDTH 13 0
BBX 12 30 1 0
BITMAP
FFF0
FFE0
0000
0000
0000
0000
0000
0000
0300
3F00
7F00
1F00
0F00
0F00
0F00
0F00
0F00
0F00
0F00
0F00
0F00
0F00
0F00
0F00
0F00
0F00
0F00
0F00
1F80
7FE0
ENDCHAR
STARTCHAR 012C
ENCODING 300
SWIDTH 291 0
DWIDTH 14 0
BBX 16 41 -1 0
BITMAP
4004
C002
6007
600E
381C
3FF8
1FF8
0FE0
0100
0000
0000
1FF8
0FF0
03C0
03C0
03C0
03C0
03C0
03C0
03C0
03C0
03C0
03C0
03C0
03C0
03C0
03C0
03C0
03C0
03C0
03C0
03C0
03C0
03C0
03C0
03C0
03C0
03C0
03C0
0FF0
1FF8
ENDCHAR
STARTCHAR 012D
ENCODING 301
SWIDTH 270 0
DWIDTH 13 0
BBX 15 33 -1 0
BITMAP
4002
C006
6006
700C
383C
3FF8
1FF0
07C0
0000
0000
0000
00C0
0FC0
1FC0
07C0
03C0
03C0
03C0
03C0
03C0
03C0
03C0
03C0
03C0
03C0
03C0
03C0
03C0
03C0
03C0
03C0
07E0
1FF8
ENDCHAR
STARTCHAR 0130
ENCODING 304
SWIDTH 291 0
DWIDTH 14 0
BBX 10 38 2 0
BITMAP
0800
0E00
1E00
1E00
1C00
0800
0000
0000
FFC0
7F80
1E00
1E00
1E00
1E00
1E00
1E00
1E00
1E00
1E00
1E00
1E00
1E00
1E00
1E00
1E00
1E00
1E00
1E00
1E00
1E00
1E00
1E00
1E00
1E00
1E00
1E00
7F80
FFC0
ENDCHAR
STARTCHAR 0131
ENCODING 305
SWIDTH 270 0
DWIDTH 13 0
BBX 10 22 2 0
BITMAP
0600
7E00
FE00
3E00
1E00
1E00
1E00
1E00
1E00
1E00
1E00
1E00
1E00
1E00
1E00
1E00
1E00
1E00
1E00
1E00
3F00
FFC0
ENDCHAR
STARTCHAR 0132
ENCODING 306
SWIDTH 604 0
DWIDTH 29 0
BBX 26 38 2 -8
BITMAP
FFC3FFC0
7F80FF00
1E003C00
1E003C00
1E003C00
1E003C00
1E003C00
1E003C00
1E003C00
1E003C00
1E003C00
1E003C00
1E003C00
1E003C00
1E003C00
1E003C00
1E003C00
1E003C00
1E003C00
1E003C00
1E003C00
1E003C00
1E003C00
1E003C00
1E003C00
1E003C00
1E003C00
1E003C00
7F803C00
FFC03C00
00003800
00003800
00003800
00007000
00006000
0070C000
00FF0000
007C0000
ENDCHAR
STARTCHAR 0133
ENCODING 307
SWIDTH 520 0
DWIDTH 25 0
BBX 20 43 2 -11
BITMAP
1C00E0
1E00F0
3E01F0
3E01F0
1C00E0
000000
000000
000000
000000
000000
060030
7E03F0
FE07F0
3E01F0
1E00F0
1E00F0
1E00F0
1E00F0
1E00F0
1E00F0
1E00F0
1E00F0
1E00F0
1E00F0
1E00F0
1E00F0
1E00F0
1E00F0
1E00F0
1E00F0
3F00F0
FFC0F0
0000F0
0000F0
0000E0
0000E0
0001E0
0001C0
0001C0
00C380
01FE00
03FC00
00F000
ENDCHAR
STARTCHAR 0139
ENCODING 313
SWIDTH 479 0
DWIDTH 23 0
BBX 21 41 1 0
BITMAP
000200
000380
000FC0
001F80
003E00
00F800
01E000
038000
020000
000000
000000
FFC000
7F8000
1E0000
1E0000
1E0000
1E0000
1E0000
1E0000
1E0000
1E0000
1E0000
1E0000
1E0000
1E0000
1E0000
1E0000
1E0000
1E0000
1E0000
1E0000
1E0000
1E0000
1E0000
1E0000
1E0008
1E0018
1E0018
1F0030
7FFFF0
FFFFF0
ENDCHAR
STARTCHAR 013A
ENCODING 314
SWIDTH 270 0
DWIDTH 13 0
BBX 14 48 1 0
BITMAP
0030
0078
01FC
03F0
07C0
1F00
3C00
3000
0000
0000
0000
0000
0300
3F00
7F00
1F00
0F00
0F00
0F00
0F00
0F00
0F00
0F00
0F00
0F00
0F00
0F00
0F00
0F00
0F00
0F00
0F00
0F00
0F00
0F00
0F00
0F00
0F00
0F00
0F00
0F00
0F00
0F00
0F00
0F00
0F00
1F80
FFF0
ENDCHAR
STARTCHAR 0141
ENCODING 321
SWIDTH 479 0
DWIDTH 23 0
BBX 22 30 0 0
BITMAP
7FE000
3FC000
0F0000
0F0000
0F0000
0F0000
0F0000
0F0000
0F0000
0F0000
0F0600
0F1C00
0F7C00
0FF000
0FC000
1F0000
7F0000
7F0000
CF0000
0F0000
0F0000
0F0000
0F0000
0F0000
0F0004
0F000C
0F000C
0F8018
3FFFF8
7FFFF8
ENDCHAR
STARTCHAR 0142
ENCODING 322
SWIDTH 270 0
DWIDTH 13 0
BBX 12 36 1 0
BITMAP
0300
3F00
7F00
1F00
0F00
0F00
0F00
0F00
0F00
0F00
0F00
0F00
0F00
0F10
0F70
0FE0
0FC0
0F00
1F00
3F00
7F00
CF00
8F00
0F00
0F00
0F00
0F00
0F00
0F00
0F00
0F00
0F00
0F00
0F00
1F80
FFF0
ENDCHAR
STARTCHAR 0143
ENCODING 323
SWIDTH 645 0
DWIDTH 31 0
BBX 27 41 2 0
BITMAP
00002000
00007000
0000F800
0001F800
0007E000
000F8000
001E0000
00780000
00200000
00000000
00000000
FC003FE0
7C000F80
1E000700
1F000700
1F000700
1F800700
1FC00700
1DC00700
1CE00700
1CF00700
1C780700
1C380700
1C3C0700
1C1E0700
1C0E0700
1C0F0700
1C078700
1C078700
1C03C700
1C01E700
1C01E700
1C00F700
1C007F00
1C007F00
1C003F00
1C001F00
1C001F00
1C000F00
3E000700
FF800300
ENDCHAR
STARTCHAR 0144
ENCODING 324
SWIDTH 541 0
DWIDTH 26 0
BBX 23 35 2 0
BITMAP
0003C0
0003E0
0007C0
000780
000F00
001E00
001C00
003800
003000
006000
000000
000000
000000
0C07C0
FE0FE0
3E31E0
1E60F0
1EC0F0
1E80F0
1F00F0
1F00F0
1E00F0
1E00F0
1E00F0
1E00F0
1E00F0
1E00F0
1E00F0
1E00F0
1E00F0
1E00F0
1E00F0
1E00F0
7F83F8
FFC7FE
ENDCHAR
STARTCHAR 0147
ENCODING 327
SWIDTH 645 0
DWIDTH 31 0
BBX 27 41 2 0
BITMAP
02001000
03801800
01C07000
00E0E000
0071C000
003FC000
001F8000
001F0000
000E0000
00000000
00000000
FC003FE0
7C000F80
1E000700
1F000700
1F000700
1F800700
1FC00700
1DC00700
1CE00700
1CF00700
1C780700
1C380700
1C3C0700
1C1E0700
1C0E0700
1C0F0700
1C078700
1C078700
1C03C700
1C01E700
1C01E700
1C00F700
1C007F00
1C007F00
1C003F00
1C001F00
1C001F00
1C000F00
3E000700
FF800300
ENDCHAR
STARTCHAR 0148
ENCODING 328
SWIDTH 541 0
DWIDTH 26 0
BBX 23 35 2 0
BITMAP
040060
0E00E0
0701C0
038380
03C780
01EF00
00FE00
007E00
007C00
003800
000000
000000
000000
0C07C0
FE0FE0
3E31E0
1E60F0
1EC0F0
1E80F0
1F00F0
1F00F0
1E00F0
1E00F0
1E00F0
1E00F0
1E00F0
1E00F0
1E00F0
1E00F0
1E00F0
1E00F0
1E00F0
1E00F0
7F83F8
FFC7FE
ENDCHAR
STARTCHAR 014A
ENCODING 330
SWIDTH 604 0
DWIDTH 29 0
BBX 24 39 2 -9
BITMAP
0601F8
7E07FC
FE0FFE
3E1C3E
1E381F
1E701F
1EE00F
1FC00F
1F800F
1F800F
1F000F
1F000F
1E000F
1E000F
1E000F
1E000F
1E000F
1E000F
1E000F
1E000F
1E000F
1E000F
1E000F
1E000F
1E000F
1E000F
1E000F
1E000F
7F800E
FFC00E
00001E
00001C
00001C
000038
000030
018060
03E0C0
07FF80
00FC00
ENDCHAR
STARTCHAR 014B
ENCODING 331
SWIDTH 541 0
DWIDTH 26 0
BBX 20 33 2 -11
BITMAP
0E0780
FE0FE0
3E31E0
1E60F0
1EC0F0
1E80F0
1F00F0
1F00F0
1E00F0
1E00F0
1E00F0
1E00F0
1E00F0
1E00F0
1E00F0
1E00F0
1E00F0
1E00F0
1E00F0
1E00F0
7F80F0
FFC0F0
0000F0
0000F0
0000E0
0000E0
0001E0
0001C0
000180
060300
0F8600
1FFC00
03E000
ENDCHAR
STARTCHAR 014C
ENCODING 332
SWIDTH 604 0
DWIDTH 29 0
BBX 25 38 2 0
BITMAP
03FFF000
07FFF800
07FFF000
00000000
00000000
00000000
00000000
00000000
003F0000
00FFE000
03C1F000
0700F800
0E007C00
1C003E00
3C001E00
38001F00
78000F00
78000F00
70000F80
F0000780
F0000780
F0000780
F0000780
F0000780
F0000780
F0000780
F0000780
F8000700
78000F00
78000F00
7C000E00
3C001C00
3E001C00
1F003800
0F807000
07C1E000
03FF8000
00FE0000
ENDCHAR
STARTCHAR 014D
ENCODING 333
SWIDTH 500 0
DWIDTH 24 0
BBX 20 30 2 0
BITMAP
1FFFE0
1FFFC0
000000
000000
000000
000000
000000
000000
00FC00
07FF00
0E0F80
1C07C0
3803C0
3803E0
7001E0
7001F0
F000F0
F000F0
F000F0
F000F0
F000F0
F000F0
F800E0
7801E0
7C01C0
3C01C0
3E0380
1F0700
0FFE00
03F000
ENDCHAR
STARTCHAR 014E
ENCODING 334
SWIDTH 604 0
DWIDTH 29 0
BBX 25 41 2 0
BITMAP
04002000
04003000
06003000
03006000
0380E000
01FFC000
00FF8000
007F0000
00100000
00000000
00000000
003F0000
00FFE000
03C1F000
0700F800
0E007C00
1C003E00
3C001E00
38001F00
78000F00
78000F00
70000F80
F0000780
F0000780
F0000780
F0000780
F0000780
F0000780
F0000780
F0000780
F8000700
78000F00
78000F00
7C000E00
3C001C00
3E001C00
1F003800
0F807000
07C1E000
03FF8000
00FE0000
ENDCHAR
STARTCHAR 014F
ENCODING 335
SWIDTH 500 0
DWIDTH 24 0
BBX 20 33 2 0
BITMAP
100040
1800C0
1C01C0
0E0380
070700
07FF00
03FE00
00F800
000000
000000
000000
00FC00
07FF00
0E0F80
1C07C0
3803C0
3803E0
7001E0
7001F0
F000F0
F000F0
F000F0
F000F0
F000F0
F000F0
F800E0
7801E0
7C01C0
3C01C0
3E0380
1F0700
0FFE00
03F000
ENDCHAR
STARTCHAR 0150
ENCODING 336
SWIDTH 604 0
DWIDTH 29 0
BBX 25 43 2 0
BITMAP
00204000
001C3800
003E7C00
003C7000
0038F000
0070E000
0060C000
00E1C000
00C18000
01830000
00820000
00000000
00000000
003F0000
00FFE000
03C1F000
0700F800
0E007C00
1C003E00
3C001E00
38001F00
78000F00
78000F00
70000F80
F0000780
F0000780
F0000780
F0000780
F0000780
F0000780
F0000780
F0000780
F8000700
78000F00
78000F00
7C000E00
3C001C00
3E001C00
1F003800
0F807000
07C1E000
03FF8000
00FE0000
ENDCHAR
STARTCHAR 0151
ENCODING 337
SWIDTH 500 0
DWIDTH 24 0
BBX 20 35 2 0
BITMAP
0070E0
0078F0
00F1E0
00E1C0
00E3C0
01C380
018700
038600
030600
060C00
000000
000000
000000
00FC00
07FF00
0E0F80
1C07C0
3803C0
3803E0
7001E0
7001F0
F000F0
F000F0
F000F0
F000F0
F000F0
F000F0
F800E0
7801E0
7C01C0
3C01C0
3E0380
1F0700
0FFE00
03F000
ENDCHAR
STARTCHAR 0152
ENCODING 338
SWIDTH 791 0
DWIDTH 38 0
BBX 36 30 1 0
BITMAP
003FFFFFE0
00FFFFFFE0
03C0FE00E0
07003E0060
0E001E0040
1C001E0040
1C001E0000
38001E0000
78001E0000
78001E0000
70001E0000
F0001E0000
F0001E0000
F0001FFF00
F0001FFF00
F0001E0600
F0001E0000
F0001E0000
F0001E0000
F8001E0000
78001E0000
78001E0000
7C001E0000
3C001E0000
3E001E0010
1F001E0030
0F801E0030
07E03E0070
03FFFFFFE0
007FFFFFE0
ENDCHAR
STARTCHAR 0153
ENCODING 339
SWIDTH 791 0
DWIDTH 38 0
BBX 34 22 2 0
BITMAP
00F800F800
03FF03FE00
0F1F8F0F00
1C07DC0780
3C03D80780
3803F803C0
7801F003C0
7001F003C0
F000FFFFC0
F000FFFF80
F000F00000
F000F00000
F000F00000
F000F80000
F800F80000
7801F80000
7801FC0040
3C01BE01C0
3E033F0780
1F061FFF00
0FFC0FFC00
03F003F000
ENDCHAR
STARTCHAR 0154
ENCODING 340
SWIDTH 562 0
DWIDTH 27 0
BBX 26 41 1 0
BITMAP
00010000
0001C000
0003E000
000FC000
001F0000
003C0000
00F00000
01C00000
01000000
00000000
00000000
07FE0000
FFFFC000
6F07E000
0F01F000
0F00F000
0F007800
0F007800
0F007800
0F007800
0F007800
0F007000
0F00F000
0F01E000
0F03C000
0FFF0000
0FFE0000
0F0E0000
0F070000
0F078000
0F038000
0F03C000
0F01C000
0F01E000
0F00F000
0F00F000
0F007800
0F007C00
0F003E00
3FC03FC0
7FE01F00
ENDCHAR
STARTCHAR 0155
ENCODING 341
SWIDTH 395 0
DWIDTH 19 0
BBX 17 35 1 0
BITMAP
000F00
000F80
001F00
001E00
003C00
007800
007000
00E000
00C000
018000
000000
000000
000000
040F00
7E3F80
FE7F80
1EE380
1EC380
1F8100
1F8000
1F0000
1F0000
1E0000
1E0000
1E0000
1E0000
1E0000
1E0000
1E0000
1E0000
1E0000
1E0000
1E0000
3F8000
FFE000
ENDCHAR
STARTCHAR 0158
ENCODING 344
SWIDTH 562 0
DWIDTH 27 0
BBX 26 41 1 0
BITMAP
08004000
0C00E000
0601C000
07838000
03CF0000
01FE0000
00FC0000
00780000
00300000
00000000
00000000
07FE0000
FFFFC000
6F07E000
0F01F000
0F00F000
0F007800
0F007800
0F007800
0F007800
0F007800
0F007000
0F00F000
0F01E000
0F03C000
0FFF0000
0FFE0000
0F0E0000
0F070000
0F078000
0F038000
0F03C000
0F01C000
0F01E000
0F00F000
0F00F000
0F007800
0F007C00
0F003E00
3FC03FC0
7FE01F00
ENDCHAR
STARTCHAR 0159
ENCODING 345
SWIDTH 395 0
DWIDTH 19 0
BBX 17 35 1 0
BITMAP
100180
380380
1C0700
0E0E00
0F1E00
07BC00
03F800
01F800
01F000
00E000
000000
000000
000000
040F00
7E3F80
FE7F80
1EE380
1EC380
1F8100
1F8000
1F0000
1F0000
1E0000
1E0000
1E0000
1E0000
1E0000
1E0000
1E0000
1E0000
1E0000
1E0000
1E0000
3F8000
FFE000
ENDCHAR
STARTCHAR 015A
ENCODING 346
SWIDTH 479 0
DWIDTH 23 0
BBX 18 41 3 0
BITMAP
000400
000E00
001F00
003F80
00FC00
01F000
03C000
070000
040000
000000
000000
03F800
1FFE00
3C3F00
780E00
700400
F00000
F00000
F00000
F80000
FC0000
7F0000
7FC000
3FF000
1FF800
07FE00
01FF00
007F80
001F80
000FC0
0007C0
0003C0
0003C0
0003C0
800380
C00380
E00700
F00F00
FC3E00
FFF800
0FE000
ENDCHAR
STARTCHAR 015B
ENCODING 347
SWIDTH 395 0
DWIDTH 19 0
BBX 15 35 2 0
BITMAP
003C
003C
0078
00F0
00E0
01E0
01C0
0380
0700
0600
0000
0000
0000
0FC0
3FF8
7878
7038
F010
F000
F800
FC00
7F00
3FC0
1FF0
07F8
01FC
007E
003E
801E
801E
C01E
E03C
F078
FFF0
1FC0
ENDCHAR
STARTCHAR 015C
ENCODING 348
SWIDTH 479 0
DWIDTH 23 0
BBX 18 41 3 0
BITMAP
01C000
01E000
03F000
07F800
0F3C00
1C1C00
380E00
700300
400200
000000
000000
03F800
1FFE00
3C3F00
780E00
700400
F00000
F00000
F00000
F80000
FC0000
7F0000
7FC000
3FF000
1FF800
07FE00
01FF00
007F80
001F80
000FC0
0007C0
0003C0
0003C0
0003C0
800380
C00380
E00700
F00F00
FC3E00
FFF800
0FE000
ENDCHAR
STARTCHAR 015D
ENCODING 349
SWIDTH 395 0
DWIDTH 19 0
BBX 15 34 2 0
BITMAP
0380
07C0
0FC0
1EE0
1C70
3038
601C
C00C
8006
0000
0000
0000
0FC0
3FF8
7878
7038
F010
F000
F800
FC00
7F00
3FC0
1FF0
07F8
01FC
007E
003E
801E
801E
C01E
E03C
F078
FFF0
1FC0
ENDCHAR
STARTCHAR 0160
ENCODING 352
SWIDTH 479 0
DWIDTH 23 0
BBX 18 41 3 0
BITMAP
400200
700300
380600
1C1C00
0F3C00
07F800
03F000
01E000
01C000
000000
000000
03F800
1FFE00
3C3F00
780E00
700400
F00000
F00000
F00000
F80000
FC0000
7F0000
7FC000
3FF000
1FF800
07FE00
01FF00
007F80
001F80
000FC0
0007C0
0003C0
0003C0
0003C0
800380
C00380
E00700
F00F00
FC3E00
FFF800
0FE000
ENDCHAR
STARTCHAR 0161
ENCODING 353
SWIDTH 395 0
DWIDTH 19 0
BBX 15 35 2 0
BITMAP
8004
E00E
701C
3838
3C70
1EF0
0FE0
0FC0
07C0
0380
0000
0000
0000
0FC0
3FF8
7878
7038
F010
F000
F800
FC00
7F00
3FC0
1FF0
07F8
01FC
007E
003E
801E
801E
C01E
E03C
F078
FFF0
1FC0
ENDCHAR
STARTCHAR 0164
ENCODING 356
SWIDTH 541 0
DWIDTH 26 0
BBX 26 41 0 0
BITMAP
04002000
07003000
03806000
01C1E000
00F3C000
007F8000
003F0000
001E0000
000C0000
00000000
00000000
7FFFFFC0
7FFFFFC0
601E0180
C01E0180
C01E0180
801E0080
001E0000
001E0000
001E0000
001E0000
001E0000
001E0000
001E0000
001E0000
001E0000
001E0000
001E0000
001E0000
001E0000
001E0000
001E0000
001E0000
001E0000
001E0000
001E0000
001E0000
001E0000
001E0000
007F8000
01FFE000
ENDCHAR
STARTCHAR 0168
ENCODING 360
SWIDTH 645 0
DWIDTH 31 0
BBX 27 39 2 0
BITMAP
00200800
007C0C00
00FE1800
01FFF800
0187F000
0303E000
02010000
00000000
00000000
FFC07FE0
7F803FC0
1E000F00
1E000F00
1E000F00
1E000F00
1E000F00
1E000F00
1E000F00
1E000F00
1E000F00
1E000F00
1E000F00
1E000F00
1E000F00
1E000F00
1E000F00
1E000F00
1E000F00
1E000F00
1E000F00
1E000F00
1E001E00
0F001E00
0F001E00
07803C00
07C07800
03E0F000
01FFE000
003F8000
ENDCHAR
STARTCHAR 0169
ENCODING 361
SWIDTH 520 0
DWIDTH 25 0
BBX 24 32 1 0
BITMAP
00E030
03F020
07F860
07FCC0
0E3F80
0C0F00
000000
000000
000000
000000
060070
FE07F0
7E07F0
1E00F0
1E00F0
1E00F0
1E00F0
1E00F0
1E00F0
1E00F0
1E00F0
1E00F0
1E00F0
1E00F0
1E00F0
1E00F0
1E00F0
1E01F0
1F02F0
0F0CFF
0FF8FC
03E070
ENDCHAR
STARTCHAR 016A
ENCODING 362
SWIDTH 645 0
DWIDTH 31 0
BBX 27 38 2 0
BITMAP
01FFFC00
03FFFC00
01FFF800
00000000
00000000
00000000
00000000
00000000
FFC07FE0
7F803FC0
1E000F00
1E000F00
1E000F00
1E000F00
1E000F00
1E000F00
1E000F00
1E000F00
1E000F00
1E000F00
1E000F00
1E000F00
1E000F00
1E000F00
1E000F00
1E000F00
1E000F00
1E000F00
1E000F00
1E000F00
1E001E00
0F001E00
0F001E00
07803C00
07C07800
03E0F000
01FFE000
003F8000
ENDCHAR
STARTCHAR 016B
ENCODING 363
SWIDTH 520 0
DWIDTH 25 0
BBX 24 30 1 0
BITMAP
07FFF0
0FFFE0
000000
000000
000000
000000
000000
000000
060070
FE07F0
7E07F0
1E00F0
1E00F0
1E00F0
1E00F0
1E00F0
1E00F0
1E00F0
1E00F0
1E00F0
1E00F0
1E00F0
1E00F0
1E00F0
1E00F0
1E01F0
1F02F0
0F0CFF
0FF8FC
03E070
ENDCHAR
STARTCHAR 016C
ENCODING 364
SWIDTH 645 0
DWIDTH 31 0
BBX 27 41 2 0
BITMAP
02001000
03000800
01801800
01803800
00E07000
00FFE000
007FE000
003F8000
00040000
00000000
00000000
FFC07FE0
7F803FC0
1E000F00
1E000F00
1E000F00
1E000F00
1E000F00
1E000F00
1E000F00
1E000F00
1E000F00
1E000F00
1E000F00
1E000F00
1E000F00
1E000F00
1E000F00
1E000F00
1E000F00
1E000F00
1E000F00
1E000F00
1E001E00
0F001E00
0F001E00
07803C00
07C07800
03E0F000
01FFE000
003F8000
ENDCHAR
STARTCHAR 016D
ENCODING 365
SWIDTH 520 0
DWIDTH 25 0
BBX 24 33 1 0
BITMAP
040020
0C0060
060060
0700C0
0383C0
01FF80
00FF00
007C00
000000
000000
000000
060070
FE07F0
7E07F0
1E00F0
1E00F0
1E00F0
1E00F0
1E00F0
1E00F0
1E00F0
1E00F0
1E00F0
1E00F0
1E00F0
1E00F0
1E00F0
1E00F0
1E01F0
1F02F0
0F0CFF
0FF8FC
03E070
ENDCHAR
STARTCHAR 016E
ENCODING 366
SWIDTH 645 0
DWIDTH 31 0
BBX 27 42 2 0
BITMAP
00020000
000F8000
001FC000
0030C000
0030C000
0030C000
00308000
003F8000
001F0000
00080000
00000000
00000000
FFC07FE0
7F803FC0
1E000F00
1E000F00
1E000F00
1E000F00
1E000F00
1E000F00
1E000F00
1E000F00
1E000F00
1E000F00
1E000F00
1E000F00
1E000F00
1E000F00
1E000F00
1E000F00
1E000F00
1E000F00
1E000F00
1E000F00
1E001E00
0F001E00
0F001E00
07803C00
07C07800
03E0F000
01FFE000
003F8000
ENDCHAR
STARTCHAR 016F
ENCODING 367
SWIDTH 520 0
DWIDTH 25 0
BBX 24 34 1 0
BITMAP
001C00
007E00
006700
00C300
00C300
00C300
00E600
00FC00
007800
000000
000000
000000
060070
FE07F0
7E07F0
1E00F0
1E00F0
1E00F0
1E00F0
1E00F0
1E00F0
1E00F0
1E00F0
1E00F0
1E00F0
1E00F0
1E00F0
1E00F0
1E00F0
1E01F0
1F02F0
0F0CFF
0FF8FC
03E070
ENDCHAR
STARTCHAR 0170
ENCODING 368
SWIDTH 645 0
DWIDTH 31 0
BBX 27 43 2 0
BITMAP
00081000
000F1E00
000F1E00
000E3C00
001C3800
001C7000
00387000
00306000
0060C000
0060C000
00408000
00000000
00000000
FFC07FE0
7F803FC0
1E000F00
1E000F00
1E000F00
1E000F00
1E000F00
1E000F00
1E000F00
1E000F00
1E000F00
1E000F00
1E000F00
1E000F00
1E000F00
1E000F00
1E000F00
1E000F00
1E000F00
1E000F00
1E000F00
1E000F00
1E001E00
0F001E00
0F001E00
07803C00
07C07800
03E0F000
01FFE000
003F8000
ENDCHAR
STARTCHAR 0171
ENCODING 369
SWIDTH 520 0
DWIDTH 25 0
BBX 24 35 1 0
BITMAP
001870
003C78
0038F0
0078E0
0070E0
00E1C0
00C180
01C380
018300
010600
000000
000000
000000
060070
FE07F0
7E07F0
1E00F0
1E00F0
1E00F0
1E00F0
1E00F0
1E00F0
1E00F0
1E00F0
1E00F0
1E00F0
1E00F0
1E00F0
1E00F0
1E00F0
1E01F0
1F02F0
0F0CFF
0FF8FC
03E070
ENDCHAR
STARTCHAR 0174
ENCODING 372
SWIDTH 854 0
DWIDTH 41 0
BBX 40 41 0 0
BITMAP
0000180000
00003C0000
00007E0000
0000FF0000
0001E78000
0003C1C000
000300E000
0006007000
0004002000
0000000000
0000000000
FFE01803FF
3F001800FC
0E001C0030
0F003C0070
0F003C0070
0F003E0070
07007E0060
07007F00E0
07807F00E0
07806700E0
0780E780E0
0380E780C0
03C0C381C0
03C1C3C1C0
03C1C3C1C0
01C181C1C0
01C381E180
01E381E380
01E300E380
01E700F380
00E700F380
00F6007300
00FE007F00
00FE003F00
007C003F00
007C003E00
007C001E00
007C001E00
0078001E00
0030000800
ENDCHAR
STARTCHAR 0175
ENCODING 373
SWIDTH 708 0
DWIDTH 34 0
BBX 33 34 0 0
BITMAP
0000E00000
0001F00000
0003F80000
0003BC0000
00071C0000
000E0E0000
001C070000
0018038000
0030018000
0000000000
0000000000
0000000000
FFC0603F80
3E00E00F00
1E00E00E00
1E00F00E00
0E01F00C00
0F01F00C00
0F01F81C00
0703F81C00
0703381800
07833C1800
03871C3800
03861E3000
03C61E3000
01CE0E7000
01CC0F6000
01FC0F6000
01FC076000
00F807E000
00F807C000
00F003C000
007003C000
0060030000
ENDCHAR
STARTCHAR 0176
ENCODING 374
SWIDTH 604 0
DWIDTH 29 0
BBX 28 41 0 0
BITMAP
00060000
000F0000
001F8000
003FC000
0079E000
00F07000
00C03800
01801C00
01000800
00000000
00000000
FC003FF0
FE003FF0
1F000F80
0F000700
0F800E00
07C00E00
03C01C00
03E03C00
01E03800
00F07800
00F87000
0078E000
007DE000
003DC000
003FC000
001F8000
001F8000
000F0000
000F0000
000F0000
000F0000
000F0000
000F0000
000F0000
000F0000
000F0000
000F0000
000F0000
003FC000
00FFF000
ENDCHAR
STARTCHAR 0177
ENCODING 375
SWIDTH 500 0
DWIDTH 24 0
BBX 24 45 -1 -11
BITMAP
000E00
001F00
003F80
007B80
0071C0
00E0E0
01C070
038030
030018
000000
000000
000000
7FE0FF
1F003E
0F001C
0F0018
078038
078038
038030
03C070
03C060
01E0E0
01E0E0
00E0C0
00F1C0
00F1C0
007980
007B80
003B00
003F00
003F00
001E00
001E00
000C00
000C00
001C00
001800
003800
007000
007000
00E000
3FC000
7F8000
FF0000
7C0000
ENDCHAR
STARTCHAR 0178
ENCODING 376
SWIDTH 604 0
DWIDTH 29 0
BBX 28 38 0 0
BITMAP
00401000
00E03800
01E07800
01E07800
01E07800
00802000
00000000
00000000
FC003FF0
FE003FF0
1F000F80
0F000700
0F800E00
07C00E00
03C01C00
03E03C00
01E03800
00F07800
00F87000
0078E000
007DE000
003DC000
003FC000
001F8000
001F8000
000F0000
000F0000
000F0000
000F0000
000F0000
000F0000
000F0000
000F0000
000F0000
000F0000
000F0000
003FC000
00FFF000
ENDCHAR
STARTCHAR 0179
ENCODING 377
SWIDTH 520 0
DWIDTH 25 0
BBX 22 41 1 0
BITMAP
000080
0000E0
0003F0
0007E0
000F80
003E00
007800
00E000
008000
000000
000000
3FFFFC
3FFFFC
380078
3000F8
3001F0
2001E0
2003E0
0003C0
000780
000F80
000F00
001F00
001E00
003C00
007C00
007800
00F800
01F000
01E000
03E000
03C000
078000
0F8000
0F0004
1F000C
3E000C
3C000C
7C001C
7FFFFC
FFFFFC
ENDCHAR
STARTCHAR 017A
ENCODING 378
SWIDTH 437 0
DWIDTH 21 0
BBX 17 35 2 0
BITMAP
000F00
001F00
001E00
003C00
003800
007000
007000
00E000
01C000
018000
000000
000000
000000
7FFF80
7FFF80
600F00
600F00
401E00
403C00
003C00
007800
00F000
00F000
01E000
03C000
03C000
078000
0F0000
0E0000
1E0080
3C0080
780080
780180
FFFF80
FFFF80
ENDCHAR
STARTCHAR 017B
ENCODING 379
SWIDTH 520 0
DWIDTH 25 0
BBX 22 38 1 0
BITMAP
001000
001C00
003C00
003C00
003C00
001000
000000
000000
3FFFFC
3FFFFC
380078
3000F8
3001F0
2001E0
2003E0
0003C0
000780
000F80
000F00
001F00
001E00
003C00
007C00
007800
00F800
01F000
01E000
03E000
03C000
078000
0F8000
0F0004
1F000C
3E000C
3C000C
7C001C
7FFFFC
FFFFFC
ENDCHAR
STARTCHAR 017C
ENCODING 380
SWIDTH 437 0
DWIDTH 21 0
BBX 17 32 2 0
BITMAP
00E000
00E000
01E000
01E000
00C000
000000
000000
000000
000000
000000
7FFF80
7FFF80
600F00
600F00
401E00
403C00
003C00
007800
00F000
00F000
01E000
03C000
03C000
078000
0F0000
0E0000
1E0080
3C0080
780080
780180
FFFF80
FFFF80
ENDCHAR
STARTCHAR 017D
ENCODING 381
SWIDTH 520 0
DWIDTH 25 0
BBX 22 41 1 0
BITMAP
040040
060060
0700E0
03C1C0
01E780
00FF00
007E00
003C00
001800
000000
000000
3FFFFC
3FFFFC
380078
3000F8
3001F0
2001E0
2003E0
0003C0
000780
000F80
000F00
001F00
001E00
003C00
007C00
007800
00F800
01F000
01E000
03E000
03C000
078000
0F8000
0F0004
1F000C
3E000C
3C000C
7C001C
7FFFFC
FFFFFC
ENDCHAR
STARTCHAR 017E
ENCODING 382
SWIDTH 437 0
DWIDTH 21 0
BBX 17 35 2 0
BITMAP
200100
380380
1C0700
1E0E00
0F1C00
07BC00
03F800
03F000
01F000
00E000
000000
000000
000000
7FFF80
7FFF80
600F00
600F00
401E00
403C00
003C00
007800
00F000
00F000
01E000
03C000
03C000
078000
0F0000
0E0000
1E0080
3C0080
780080
780180
FFFF80
FFFF80
ENDCHAR
STARTCHAR 0181
ENCODING 385
SWIDTH 687 0
DWIDTH 33 0
BBX 29 30 1 0
BITMAP
01FFF000
0FFFFE00
3E783F00
78780F80
F07807C0
F07803C0
F07803C0
F87803C0
FC7803C0
70780380
00780780
00780F00
00783E00
007FFF00
007FFF80
00780FE0
007803E0
007801F0
007800F0
007800F8
00780078
00780078
00780078
00780078
00780070
007800F0
007801E0
007807C0
01FFFF80
03FFFC00
ENDCHAR
STARTCHAR 0186
ENCODING 390
SWIDTH 541 0
DWIDTH 26 0
BBX 23 30 1 0
BITMAP
03FC00
0FFF00
3C0FC0
7003E0
C001F0
0000F8
000078
00007C
00003C
00003C
00003E
00001E
00001E
00001E
00001E
00001E
00001E
00001E
04001E
3C001C
78003C
F0003C
F00038
F00078
F00070
F800E0
7C01C0
3F0780
1FFE00
07F800
ENDCHAR
STARTCHAR 0189
ENCODING 393
SWIDTH 583 0
DWIDTH 28 0
BBX 25 30 1 0
BITMAP
07FE0000
FFFFC000
7F03F000
0F00F800
0F007C00
0F003E00
0F001E00
0F001F00
0F000F00
0F000F00
0F000F80
0F000780
0F000780
0F000780
FFFE0780
FFFC0780
0F000780
0F000780
0F000780
0F000700
0F000F00
0F000F00
0F001E00
0F001E00
0F003C00
0F007C00
0F00F800
0F03E000
1FFFC000
7FFE0000
ENDCHAR
STARTCHAR 018A
ENCODING 394
SWIDTH 708 0
DWIDTH 34 0
BBX 31 30 1 0
BITMAP
00FFF800
0FFFFF00
3E781FC0
787807E0
F07801F0
F07800F8
F0780078
F878007C
FC78003C
7078003C
0078003E
0078001E
0078001E
0078001E
0078001E
0078001E
0078001E
0078001E
0078001E
0078003C
0078003C
0078003C
00780078
00780078
007800F0
007801E0
007803C0
007C0F80
01FFFF00
03FFF800
ENDCHAR
STARTCHAR 018E
ENCODING 398
SWIDTH 500 0
DWIDTH 24 0
BBX 21 30 1 0
BITMAP
1FFFF8
1FFFF0
3803C0
3003C0
3003C0
2003C0
0003C0
0003C0
0003C0
0003C0
0003C0
0003C0
0403C0
07FFC0
0FFFC0
0003C0
0003C0
0003C0
0003C0
0003C0
0003C0
0003C0
0003C0
6003C0
6003C0
6003C0
6003C0
6007C0
FFFFF0
FFFFF8
ENDCHAR
STARTCHAR 0190
ENCODING 400
SWIDTH 500 0
DWIDTH 24 0
BBX 21 30 2 0
BITMAP
00FF80
03FFE0
0F03F0
1C00E0
380040
700000
F00000
F00000
F00000
F00000
F80000
7C0000
7F8000
3FF800
0FF800
0FC000
3E0000
7C0000
780000
F00000
F00000
F00000
F00000
F00000
F80010
780038
7C0070
3F01E0
0FFF80
03FC00
ENDCHAR
STARTCHAR 0192
ENCODING 402
SWIDTH 291 0
DWIDTH 14 0
BBX 25 47 -6 -11
BITMAP
00003E00
0000FF80
00018F00
00070600
000E0000
000E0000
001E0000
001C0000
001C0000
003C0000
003C0000
003C0000
003C0000
003C0000
00FFF800
03FFF000
003C2000
003C0000
003C0000
003C0000
003C0000
003C0000
003C0000
003C0000
003C0000
003C0000
003C0000
003C0000
003C0000
003C0000
003C0000
003C0000
003C0000
003C0000
003C0000
003C0000
003C0000
003C0000
00380000
00380000
00780000
00700000
00600000
30E00000
7F800000
FF000000
3C000000
ENDCHAR
STARTCHAR 0197
ENCODING 407
SWIDTH 291 0
DWIDTH 14 0
BBX 12 30 1 0
BITMAP
7FE0
3FC0
0F00
0F00
0F00
0F00
0F00
0F00
0F00
0F00
0F00
0F00
0F00
0F00
FFF0
FFF0
0F00
0F00
0F00
0F00
0F00
0F00
0F00
0F00
0F00
0F00
0F00
0F00
1F80
7FE0
ENDCHAR
STARTCHAR 0198
ENCODING 408
SWIDTH 625 0
DWIDTH 30 0
BBX 27 30 2 0
BITMAP
FFC01F80
7F807FC0
1E00E3E0
1E01C1E0
1E0181E0
1E0381E0
1E0701E0
1E0E03C0
1E1C0300
1E180000
1E380000
1E700000
1EE00000
1EC00000
1FE00000
1EF00000
1EF80000
1E7C0000
1E3E0000
1E1E0000
1E0F0000
1E0F8000
1E07C000
1E03E000
1E01F000
1E00F000
1E00F800
1E007E00
7F803FC0
FFC01E00
ENDCHAR
STARTCHAR 0199
ENCODING 409
SWIDTH 500 0
DWIDTH 24 0
BBX 23 36 1 0
BITMAP
000F80
003FF0
0063F0
01C0E0
038040
030000
070000
0F0000
0E0000
0E0000
1E0000
1E0000
1E0000
1E0000
1E07FC
1E01F0
1E01C0
1E0380
1E0700
1E1E00
1E3800
1E7000
1EE000
1FE000
1EF000
1EF800
1E7800
1E3C00
1E1E00
1E0F00
1E0F80
1E07C0
1E03E0
1E01E0
3F00FE
FFC07C
ENDCHAR
STARTCHAR 019A
ENCODING 410
SWIDTH 312 0
DWIDTH 15 0
BBX 12 36 2 0
BITMAP
0300
1F00
7F00
1F00
0F00
0F00
0F00
0F00
0F00
0F00
0F00
0F00
0F00
0F00
0F00
0F00
0F00
FFF0
FFF0
0F00
0F00
0F00
0F00
0F00
0F00
0F00
0F00
0F00
0F00
0F00
0F00
0F00
0F00
0F00
1F80
FFF0
ENDCHAR
STARTCHAR 019D
ENCODING 413
SWIDTH 645 0
DWIDTH 31 0
BBX 34 38 -5 -8
BITMAP
01F8007FC0
00F8001F00
003C000E00
003E000E00
003E000E00
003F000E00
003F800E00
003B800E00
0039C00E00
0039E00E00
0038E00E00
0038700E00
0038780E00
00383C0E00
00381C0E00
00381E0E00
00380F0E00
0038070E00
0038078E00
003803CE00
003801CE00
003801EE00
003800FE00
0038007E00
0038007E00
0038003E00
0038001E00
0038001E00
0038000E00
0038000600
0030000000
0030000000
0070000000
0060000000
00E0000000
70C0000000
FF00000000
7C00000000
ENDCHAR
STARTCHAR 019F
ENCODING 415
SWIDTH 604 0
DWIDTH 29 0
BBX 25 30 2 0
BITMAP
003F0000
00FFE000
03C1F000
0700F800
0E007C00
1C003E00
3C001E00
38001F00
78000F00
78000F00
70000F80
F0000780
F0000780
F0000780
FFFFFF80
FFFFFF80
F0000780
F0000780
F0000780
F0000700
78000F00
78000F00
7C000E00
3C001C00
3E001C00
1E003800
0F007000
07C1E000
03FF8000
00FE0000
ENDCHAR
STARTCHAR 01A0
ENCODING 416
SWIDTH 625 0
DWIDTH 30 0
BBX 28 35 1 0
BITMAP
00000060
000001F0
000003F0
000000F0
000000E0
003F80E0
00FFE180
03C1FB00
07007C00
0E003E00
1C001F00
1C000F00
38000F80
78000780
78000780
700007C0
F00003C0
F00003C0
F00003C0
F00003C0
F00003C0
F00003C0
F00003C0
F0000380
F8000380
78000780
78000700
7C000700
3C000E00
3E000E00
1F001C00
0F803800
07E0F000
03FFC000
007F0000
ENDCHAR
STARTCHAR 01A1
ENCODING 417
SWIDTH 541 0
DWIDTH 26 0
BBX 23 27 2 0
BITMAP
000004
00001E
00003E
00001E
00001C
01F81C
07FE38
0E0F70
1C07C0
3803E0
3803E0
7001F0
7001F0
F000F0
F000F0
F000F0
F000F0
F000F0
F000F0
F800E0
7801E0
7C01C0
3C01C0
3E0380
1F0700
0FFC00
03F000
ENDCHAR
STARTCHAR 01A9
ENCODING 425
SWIDTH 520 0
DWIDTH 25 0
BBX 23 30 1 0
BITMAP
7FFFFC
7FFFFC
3E001C
1E001C
1F000C
0F800C
078008
07C000
03E000
01E000
00F000
00F800
007800
003C00
003C00
003800
007000
007000
00E000
01C000
01C000
038000
070006
0F0006
0E0006
1C000C
38000C
7FFFFC
7FFFFC
FFFFFC
ENDCHAR
STARTCHAR 01AA
ENCODING 426
SWIDTH 354 0
DWIDTH 17 0
BBX 22 47 1 -11
BITMAP
0F8000
1FC000
79E000
71E000
F0F000
F0F000
F0F000
F9F000
7FF000
3CF000
00F000
00F000
00F000
00F000
00F000
00F000
00F000
00F000
00F000
00F000
00F000
00F000
01E000
01E000
01E000
01E000
01E000
01E000
01E000
01E000
01E000
01E000
01E000
01E000
01E000
01E000
01E000
01E000
01E000
01E000
01E018
00F07C
00F038
00F078
0078F0
003FE0
001F00
ENDCHAR
STARTCHAR 01AF
ENCODING 431
SWIDTH 687 0
DWIDTH 33 0
BBX 31 35 2 0
BITMAP
00000006
0000001E
0000003E
0000001E
0000001E
FFC03FFC
7F801FF8
1E0007F0
1E0007C0
1E000780
1E000780
1E000780
1E000780
1E000780
1E000780
1E000780
1E000780
1E000780
1E000780
1E000780
1E000780
1E000780
1E000780
1E000780
1E000780
1E000780
1E000780
1F000F00
0F000F00
0F000F00
07801E00
07C03C00
03F07800
00FFF000
003FC000
ENDCHAR
STARTCHAR 01B0
ENCODING 432
SWIDTH 604 0
DWIDTH 29 0
BBX 28 27 1 0
BITMAP
00000020
000001F0
000001F0
000000F0
000010E0
1E01F8E0
FE03F9C0
3E007780
1E007E00
1E007800
1E007800
1E007800
1E007800
1E007800
1E007800
1E007800
1E007800
1E007800
1E007800
1E007800
1E007800
1E00F800
1E01F800
1F037900
0F867F00
0FF87C00
03E03000
ENDCHAR
STARTCHAR 01B3
ENCODING 435
SWIDTH 687 0
DWIDTH 33 0
BBX 34 30 0 0
BITMAP
7C00003E00
FE0000FF80
1F0003C7C0
0F000383C0
0F800703C0
07C00F03C0
03C01E03C0
03E01C0700
01E03C0000
00F0780000
00F8700000
0078F00000
007DE00000
003DC00000
003FC00000
001F800000
001F800000
000F000000
000F000000
000F000000
000F000000
000F000000
000F000000
000F000000
000F000000
000F000000
000F000000
000F000000
003FC00000
00FFF00000
ENDCHAR
STARTCHAR 01B4
ENCODING 436
SWIDTH 500 0
DWIDTH 24 0
BBX 33 41 -1 -11
BITMAP
0000001F00
0000007F80
000000FF80
000001FF00
000003C200
0000078000
0000070000
00000E0000
7FE00E0000
1F000C0000
0F001C0000
0F00180000
0780380000
0780380000
0380300000
03C0700000
03C0700000
01E0600000
01E0E00000
00E0C00000
00F1C00000
00F1C00000
0079800000
007B800000
003B000000
003F000000
003F000000
001E000000
001E000000
000E000000
000C000000
001C000000
0018000000
0038000000
0070000000
0070000000
21E0000000
7FC0000000
FF80000000
FF00000000
7C00000000
ENDCHAR
STARTCHAR 01B7
ENCODING 439
SWIDTH 520 0
DWIDTH 25 0
BBX 21 30 2 0
BITMAP
7FFFE0
7FFFF0
7007C0
6007C0
600F80
401F00
C03E00
003E00
007C00
00F800
01F000
01F000
03FF00
07FFC0
0F07E0
0803F0
0001F0
0000F8
000078
000078
000078
000078
000078
000070
2000F0
7000E0
FC01C0
FF0780
3FFE00
07F800
ENDCHAR
STARTCHAR 01CD
ENCODING 461
SWIDTH 604 0
DWIDTH 29 0
BBX 28 41 0 0
BITMAP
01001000
01801800
01C03800
00F07000
0079E000
003FC000
001F8000
000F0000
00060000
00000000
00000000
00020000
00070000
000F0000
000F0000
001F8000
001F8000
001B8000
003BC000
0039C000
0031E000
0071E000
0070E000
0060F000
00E0F000
00E07000
00C07800
01C07800
01C03800
01FFFC00
03FFFC00
03801E00
03001E00
07001E00
07000F00
06000F00
0E000F00
0E000780
0C000780
3E0007C0
FFC03FF0
ENDCHAR
STARTCHAR 01CE
ENCODING 462
SWIDTH 458 0
DWIDTH 22 0
BBX 20 35 2 0
BITMAP
200100
380380
1C0700
1E0E00
0F1C00
07BC00
03F800
03F000
01F000
00E000
000000
000000
000000
01F800
0FFE00
1C1E00
780F00
700F00
F00F00
800F00
000F00
000F00
00FF00
07FF00
1F8F00
3E0F00
780F00
F80F00
F00F00
F00F00
F01F00
F03F00
78EF20
7F8FF0
1E0780
ENDCHAR
STARTCHAR 01CF
ENCODING 463
SWIDTH 291 0
DWIDTH 14 0
BBX 15 41 -1 0
BITMAP
4004
6006
F00E
383C
1E78
0FF0
07E0
03C0
0180
0000
0000
1FF8
0FF0
03C0
03C0
03C0
03C0
03C0
03C0
03C0
03C0
03C0
03C0
03C0
03C0
03C0
03C0
03C0
03C0
03C0
03C0
03C0
03C0
03C0
03C0
03C0
03C0
03C0
03C0
0FF0
1FF8
ENDCHAR
STARTCHAR 01D0
ENCODING 464
SWIDTH 270 0
DWIDTH 13 0
BBX 15 35 -1 0
BITMAP
4002
E00E
701C
3838
1C78
1EF0
0FE0
07E0
07C0
0380
0000
0000
0000
00C0
0FC0
1FC0
07C0
03C0
03C0
03C0
03C0
03C0
03C0
03C0
03C0
03C0
03C0
03C0
03C0
03C0
03C0
03C0
03C0
07E0
1FF8
ENDCHAR
STARTCHAR 01D1
ENCODING 465
SWIDTH 604 0
DWIDTH 29 0
BBX 25 43 2 0
BITMAP
04002000
06003000
03006000
0380E000
01C3C000
00F78000
00FF0000
007F0000
003E0000
003C0000
001C0000
00000000
00000000
003F0000
00FFE000
03C1F000
0700F800
0E007C00
1C003E00
3C001E00
38001F00
78000F00
78000F00
70000F80
F0000780
F0000780
F0000780
F0000780
F0000780
F0000780
F0000780
F0000780
F8000700
78000F00
78000F00
7C000E00
3C001C00
3E001C00
1F003800
0F807000
07C1E000
03FF8000
00FE0000
ENDCHAR
STARTCHAR 01D2
ENCODING 466
SWIDTH 500 0
DWIDTH 24 0
BBX 20 35 2 0
BITMAP
0800C0
1C01C0
0E0380
070700
078F00
03DE00
01FC00
00FC00
00F800
007000
000000
000000
000000
00FC00
07FF00
0E0F80
1C07C0
3803C0
3803E0
7001E0
7001F0
F000F0
F000F0
F000F0
F000F0
F000F0
F000F0
F800E0
7801E0
7C01C0
3C01C0
3E0380
1F0700
0FFE00
03F000
ENDCHAR
STARTCHAR 01D3
ENCODING 467
SWIDTH 645 0
DWIDTH 31 0
BBX 27 41 2 0
BITMAP
01001000
03801800
01C03000
00E0F000
0079E000
003FC000
001F8000
000F0000
00060000
00000000
00000000
FFC07FE0
7F803FC0
1E000F00
1E000F00
1E000F00
1E000F00
1E000F00
1E000F00
1E000F00
1E000F00
1E000F00
1E000F00
1E000F00
1E000F00
1E000F00
1E000F00
1E000F00
1E000F00
1E000F00
1E000F00
1E000F00
1E000F00
1E001E00
0F001E00
0F001E00
07803C00
07C07800
03E0F000
01FFE000
003F8000
ENDCHAR
STARTCHAR 01D4
ENCODING 468
SWIDTH 520 0
DWIDTH 25 0
BBX 24 35 1 0
BITMAP
040020
0E0060
0701C0
0383C0
01C780
01EF00
00FE00
007E00
007C00
003800
000000
000000
000000
060070
FE07F0
7E07F0
1E00F0
1E00F0
1E00F0
1E00F0
1E00F0
1E00F0
1E00F0
1E00F0
1E00F0
1E00F0
1E00F0
1E00F0
1E00F0
1E00F0
1E01F0
1F02F0
0F0CFF
0FF8FC
03E070
ENDCHAR
STARTCHAR 01D5
ENCODING 469
SWIDTH 645 0
DWIDTH 31 0
BBX 27 45 2 0
BITMAP
01FFFC00
03FFF800
00000000
00000000
00000000
00000000
00000000
00802000
00E03800
01E07800
01E07800
01C07000
00802000
00000000
00000000
FFC07FE0
7F803FC0
1E000F00
1E000F00
1E000F00
1E000F00
1E000F00
1E000F00
1E000F00
1E000F00
1E000F00
1E000F00
1E000F00
1E000F00
1E000F00
1E000F00
1E000F00
1E000F00
1E000F00
1E000F00
1E000F00
1E000F00
1E001E00
0F001E00
0F001E00
07803C00
07C07800
03E0F000
01FFE000
003F8000
ENDCHAR
STARTCHAR 01D6
ENCODING 470
SWIDTH 520 0
DWIDTH 25 0
BBX 24 38 1 0
BITMAP
0FFFF0
07FFE0
000000
000000
000000
000000
0300C0
0781E0
0781E0
0781E0
0701C0
000000
000000
000000
000000
000000
060070
FE07F0
7E07F0
1E00F0
1E00F0
1E00F0
1E00F0
1E00F0
1E00F0
1E00F0
1E00F0
1E00F0
1E00F0
1E00F0
1E00F0
1E00F0
1E00F0
1E01F0
1F02F0
0F0CFF
0FF8FC
03E070
ENDCHAR
STARTCHAR 01D7
ENCODING 471
SWIDTH 645 0
DWIDTH 31 0
BBX 27 48 2 0
BITMAP
00003000
00007800
0000FC00
0003F000
0007C000
000F0000
003C0000
00300000
00000000
00000000
00802000
00E03800
01E07800
01E07800
01C07000
00802000
00000000
00000000
FFC07FE0
7F803FC0
1E000F00
1E000F00
1E000F00
1E000F00
1E000F00
1E000F00
1E000F00
1E000F00
1E000F00
1E000F00
1E000F00
1E000F00
1E000F00
1E000F00
1E000F00
1E000F00
1E000F00
1E000F00
1E000F00
1E000F00
1E001E00
0F001E00
0F001E00
07803C00
07C07800
03E0F000
01FFE000
003F8000
ENDCHAR
STARTCHAR 01D8
ENCODING 472
SWIDTH 520 0
DWIDTH 25 0
BBX 24 43 1 0
BITMAP
0003E0
0003C0
000780
000700
000F00
001E00
001C00
003800
003000
006000
000000
0300C0
0781E0
0781E0
0781E0
0701C0
000000
000000
000000
000000
000000
060070
FE07F0
7E07F0
1E00F0
1E00F0
1E00F0
1E00F0
1E00F0
1E00F0
1E00F0
1E00F0
1E00F0
1E00F0
1E00F0
1E00F0
1E00F0
1E00F0
1E01F0
1F02F0
0F0CFF
0FF8FC
03E070
ENDCHAR
STARTCHAR 01D9
ENCODING 473
SWIDTH 645 0
DWIDTH 31 0
BBX 27 48 2 0
BITMAP
01000800
03803800
00E07000
0070E000
0079C000
003F8000
001F0000
000F0000
00000000
00000000
00802000
00E03800
01E07800
01E07800
01C07000
00802000
00000000
00000000
FFC07FE0
7F803FC0
1E000F00
1E000F00
1E000F00
1E000F00
1E000F00
1E000F00
1E000F00
1E000F00
1E000F00
1E000F00
1E000F00
1E000F00
1E000F00
1E000F00
1E000F00
1E000F00
1E000F00
1E000F00
1E000F00
1E000F00
1E001E00
0F001E00
0F001E00
07803C00
07C07800
03E0F000
01FFE000
003F8000
ENDCHAR
STARTCHAR 01DA
ENCODING 474
SWIDTH 520 0
DWIDTH 25 0
BBX 24 43 1 0
BITMAP
0C0060
0700E0
0381C0
03C380
01E780
00FF00
00FE00
007C00
003C00
003800
000000
0300C0
0781E0
0781E0
0781E0
0701C0
000000
000000
000000
000000
000000
060070
FE07F0
7E07F0
1E00F0
1E00F0
1E00F0
1E00F0
1E00F0
1E00F0
1E00F0
1E00F0
1E00F0
1E00F0
1E00F0
1E00F0
1E00F0
1E00F0
1E01F0
1F02F0
0F0CFF
0FF8FC
03E070
ENDCHAR
STARTCHAR 01DB
ENCODING 475
SWIDTH 645 0
DWIDTH 31 0
BBX 27 48 2 0
BITMAP
00C00000
03E00000
03F00000
00F80000
003E0000
000F0000
00038000
0000C000
00000000
00000000
00802000
00E03800
01E07800
01E07800
01C07000
00802000
00000000
00000000
FFC07FE0
7F803FC0
1E000F00
1E000F00
1E000F00
1E000F00
1E000F00
1E000F00
1E000F00
1E000F00
1E000F00
1E000F00
1E000F00
1E000F00
1E000F00
1E000F00
1E000F00
1E000F00
1E000F00
1E000F00
1E000F00
1E000F00
1E001E00
0F001E00
0F001E00
07803C00
07C07800
03E0F000
01FFE000
003F8000
ENDCHAR
STARTCHAR 01DC
ENCODING 476
SWIDTH 520 0
DWIDTH 25 0
BBX 24 43 1 0
BITMAP
078000
07C000
03E000
01E000
00F000
007000
003800
001C00
000C00
000800
000000
0300C0
0781E0
0781E0
0781E0
0701C0
000000
000000
000000
000000
000000
060070
FE07F0
7E07F0
1E00F0
1E00F0
1E00F0
1E00F0
1E00F0
1E00F0
1E00F0
1E00F0
1E00F0
1E00F0
1E00F0
1E00F0
1E00F0
1E00F0
1E01F0
1F02F0
0F0CFF
0FF8FC
03E070
ENDCHAR
STARTCHAR 01DD
ENCODING 477
SWIDTH 458 0
DWIDTH 22 0
BBX 18 22 2 0
BITMAP
03F000
0FFC00
3FFE00
783F00
E01F00
800F80
000780
0007C0
0003C0
0003C0
0003C0
1FFFC0
7FFFC0
F003C0
F00380
F00380
F00700
F80700
780E00
3E1C00
1FF800
07E000
ENDCHAR
STARTCHAR 01DE
ENCODING 478
SWIDTH 604 0
DWIDTH 29 0
BBX 28 45 0 0
BITMAP
01FFFC00
03FFFC00
00000000
00000000
00000000
00000000
00000000
00802000
00E03800
01E07800
01E07800
01E07800
00802000
00000000
00000000
00020000
00070000
000F0000
000F0000
001F8000
001F8000
001B8000
003BC000
0039C000
0031E000
0071E000
0070E000
0060F000
00E0F000
00E07000
00C07800
01C07800
01C03800
01FFFC00
03FFFC00
03801E00
03001E00
07001E00
07000F00
06000F00
0E000F00
0E000780
0C000780
3E0007C0
FFC03FF0
ENDCHAR
STARTCHAR 01DF
ENCODING 479
SWIDTH 458 0
DWIDTH 22 0
BBX 20 38 2 0
BITMAP
3FFF80
3FFF80
000000
000000
000000
000000
1C0700
1C0700
3C0F00
3C0F00
180600
000000
000000
000000
000000
000000
01F800
0FFE00
1C1E00
780F00
700F00
F00F00
800F00
000F00
000F00
00FF00
07FF00
1F8F00
3E0F00
780F00
F80F00
F00F00
F00F00
F01F00
F03F00
78EF20
7F8FF0
1E0780
ENDCHAR
STARTCHAR 01E0
ENCODING 480
SWIDTH 604 0
DWIDTH 29 0
BBX 28 45 0 0
BITMAP
01FFFC00
03FFFC00
00000000
00000000
00000000
00000000
00000000
00040000
00070000
000F0000
000F0000
000F0000
00040000
00000000
00000000
00020000
00070000
000F0000
000F0000
001F8000
001F8000
001B8000
003BC000
0039C000
0031E000
0071E000
0070E000
0060F000
00E0F000
00E07000
00C07800
01C07800
01C03800
01FFFC00
03FFFC00
03801E00
03001E00
07001E00
07000F00
06000F00
0E000F00
0E000780
0C000780
3E0007C0
FFC03FF0
ENDCHAR
STARTCHAR 01E1
ENCODING 481
SWIDTH 458 0
DWIDTH 22 0
BBX 20 38 2 0
BITMAP
3FFF80
3FFF80
000000
000000
000000
000000
00E000
00E000
01E000
01E000
00C000
000000
000000
000000
000000
000000
01F800
0FFE00
1C1E00
780F00
700F00
F00F00
800F00
000F00
000F00
00FF00
07FF00
1F8F00
3E0F00
780F00
F80F00
F00F00
F00F00
F01F00
F03F00
78EF20
7F8FF0
1E0780
ENDCHAR
STARTCHAR 01E2
ENCODING 482
SWIDTH 770 0
DWIDTH 37 0
BBX 36 38 0 0
BITMAP
0001FFF800
0003FFFC00
0003FFF800
0000000000
0000000000
0000000000
0000000000
0000000000
007FFFFFC0
001FFFFFE0
0007FC00C0
00073C00C0
00073C00C0
000E3C00C0
000E3C0000
001E3C0000
001C3C0000
001C3C0000
003C3C0000
00383C0000
00783C0000
007FFFFF00
007FFFFF00
00F03C0600
00E03C0000
01E03C0000
01C03C0000
01C03C0000
03803C0000
03803C0000
07803C0000
07003C0000
07003C0010
0E003C0030
0E003C0030
1E003E0070
3E007FFFE0
FFC1FFFFE0
ENDCHAR
STARTCHAR 01E3
ENCODING 483
SWIDTH 687 0
DWIDTH 33 0
BBX 29 30 2 0
BITMAP
00FFFE00
00FFFE00
00000000
00000000
00000000
00000000
00000000
00000000
01F81F80
07FC7FC0
1C3EE1E0
381FC0F0
700F8070
F00F8078
F00F0078
C00F0078
007FFFF8
03FFFFF0
0F8F0000
1E0F0000
3C0F0000
780F0000
F00F0000
F00F8000
F01F8018
F03FC030
F8F3E0F0
7FE3FFC0
7F80FF80
1E007E00
ENDCHAR
STARTCHAR 01E6
ENCODING 486
SWIDTH 583 0
DWIDTH 28 0
BBX 24 41 2 0
BITMAP
020020
030030
038070
01E0E0
00F3C0
007F80
003F00
001E00
000C00
000000
000000
001FE0
00FFF8
01C0FC
078038
0F0010
1E0000
1C0000
380000
380000
780000
700000
F00000
F00000
F00000
F00000
F00000
F007FF
F000FE
F0003C
F0003C
F8003C
78003C
78003C
3C003C
3E003C
1E003C
0F003C
07C0F8
03FFE0
007F00
ENDCHAR
STARTCHAR 01E7
ENCODING 487
SWIDTH 479 0
DWIDTH 23 0
BBX 24 46 0 -11
BITMAP
040020
0E00E0
0701C0
0383C0
01C780
01EF00
00FE00
007E00
007C00
003800
000000
000000
000000
00FC02
03FF7E
0707FC
0E03E0
1E01E0
1C01F0
3C00F0
3C00F0
3C00F0
3C00F0
3E00E0
1F01C0
0F8380
07FF00
01FC00
03C000
078000
0F8000
0FE000
07FF80
03FFF0
07BFFC
0E00FE
3C001F
78000F
F0000F
F0000F
F0000E
F8001C
7C0038
3F80F0
0FFFC0
01FE00
ENDCHAR
STARTCHAR 01E8
ENCODING 488
SWIDTH 583 0
DWIDTH 28 0
BBX 26 41 1 0
BITMAP
04002000
07003000
03806000
01C1E000
00F3C000
007F8000
003F0000
001E0000
000C0000
00000000
00000000
FFC1FF80
7F807C00
1E007800
1E00F000
1E01E000
1E01C000
1E038000
1E070000
1E0E0000
1E1C0000
1E380000
1E780000
1E700000
1EE00000
1FE00000
1EF00000
1E780000
1E7C0000
1E3E0000
1E1E0000
1E0F0000
1E078000
1E07C000
1E03E000
1E01F000
1E00F800
1E007C00
1E007E00
7F803FC0
FFC01F00
ENDCHAR
STARTCHAR 01E9
ENCODING 489
SWIDTH 500 0
DWIDTH 24 0
BBX 23 46 1 0
BITMAP
0C0060
0700C0
038380
01C780
00FF00
00FE00
007C00
003800
000000
000000
060000
7E0000
FE0000
3E0000
1E0000
1E0000
1E0000
1E0000
1E0000
1E0000
1E0000
1E0000
1E0000
1E0000
1E07FC
1E01F0
1E01C0
1E0380
1E0700
1E0E00
1E3800
1E7000
1EE000
1FE000
1EF000
1EF800
1E7800
1E3C00
1E1E00
1E0F00
1E0F80
1E07C0
1E03E0
1E01E0
3F00FE
FFC07C
ENDCHAR
STARTCHAR 01EE
ENCODING 494
SWIDTH 520 0
DWIDTH 25 0
BBX 21 43 2 0
BITMAP
100080
1800C0
0C0180
0E0380
078700
03CE00
03FE00
01FC00
00F800
007800
007000
000000
000000
7FFFE0
7FFFF0
7007C0
6007C0
600F80
401F00
C03E00
003E00
007C00
00F800
01F000
01F000
03FF00
07FFC0
0F07E0
0803F0
0001F0
0000F8
000078
000078
000078
000078
000078
000070
2000F0
7000E0
FC01C0
FF0780
3FFE00
07F800
ENDCHAR
STARTCHAR 01EF
ENCODING 495
SWIDTH 458 0
DWIDTH 22 0
BBX 20 44 0 -11
BITMAP
180080
1C01C0
0E0380
078F00
03DE00
01FC00
00F800
007000
000000
000000
000000
3FFFC0
3FFFE0
3007C0
300F80
200F00
201E00
003C00
007C00
007800
00F000
01E000
03C000
07C000
07FC00
0FFF00
081F80
0007C0
0003E0
0001E0
0001F0
0000F0
0000F0
0000F0
0000F0
0000F0
0000E0
0000E0
1001C0
3801C0
7C0380
FE0F00
3FFC00
07F000
ENDCHAR
STARTCHAR 01F4
ENCODING 500
SWIDTH 583 0
DWIDTH 28 0
BBX 24 41 2 0
BITMAP
000040
000070
0001F8
0003F0
0007C0
001F00
003C00
007000
004000
000000
000000
001FE0
00FFF8
01C0FC
078038
0F0010
1E0000
1C0000
380000
380000
780000
700000
F00000
F00000
F00000
F00000
F00000
F007FF
F000FE
F0003C
F0003C
F8003C
78003C
78003C
3C003C
3E003C
1E003C
0F003C
07C0F8
03FFE0
007F00
ENDCHAR
STARTCHAR 01F5
ENCODING 501
SWIDTH 479 0
DWIDTH 23 0
BBX 24 46 0 -11
BITMAP
0001C0
0003E0
0007C0
000780
000F00
000E00
001C00
003800
003000
006000
000000
000000
000000
00FC02
03FF7E
0707FC
0E03E0
1E01E0
1C01F0
3C00F0
3C00F0
3C00F0
3C00F0
3E00E0
1F01C0
0F8380
07FF00
01FC00
03C000
078000
0F8000
0FE000
07FF80
03FFF0
07BFFC
0E00FE
3C001F
78000F
F0000F
F0000F
F0000E
F8001C
7C0038
3F80F0
0FFFC0
01FE00
ENDCHAR
STARTCHAR 01F8
ENCODING 504
SWIDTH 645 0
DWIDTH 31 0
BBX 27 41 2 0
BITMAP
00800000
01C00000
03E00000
03F80000
00FC0000
001E0000
00070000
0001C000
00008000
00000000
00000000
FC003FE0
7C000F80
1E000700
1F000700
1F000700
1F800700
1FC00700
1DC00700
1CE00700
1CF00700
1C780700
1C380700
1C3C0700
1C1E0700
1C0E0700
1C0F0700
1C078700
1C078700
1C03C700
1C01E700
1C01E700
1C00F700
1C007F00
1C007F00
1C003F00
1C001F00
1C001F00
1C000F00
3E000700
FF800300
ENDCHAR
STARTCHAR 01F9
ENCODING 505
SWIDTH 541 0
DWIDTH 26 0
BBX 23 35 2 0
BITMAP
078000
078000
03C000
01E000
00E000
007000
007000
003800
001C00
000C00
000000
000000
000000
0C07C0
FE0FE0
3E31E0
1E60F0
1EC0F0
1E80F0
1F00F0
1F00F0
1E00F0
1E00F0
1E00F0
1E00F0
1E00F0
1E00F0
1E00F0
1E00F0
1E00F0
1E00F0
1E00F0
1E00F0
7F83F8
FFC7FE
ENDCHAR
STARTCHAR 01FA
ENCODING 506
SWIDTH 604 0
DWIDTH 29 0
BBX 28 51 0 0
BITMAP
00001000
00007800
0000FC00
0001F800
0007E000
000F0000
001C0000
00300000
00000000
00020000
000F8000
001FC000
0018C000
0030C000
0030C000
0030C000
003F8000
001F0000
00080000
00000000
00000000
00020000
00070000
000F0000
000F0000
001F8000
001F8000
001B8000
003BC000
0039C000
0031E000
0071E000
0070E000
0060F000
00E0F000
00E07000
00C07800
01C07800
01C03800
01FFFC00
03FFFC00
03801E00
03001E00
07001E00
07000F00
06000F00
0E000F00
0E000780
0C000780
3E0007C0
FFC03FF0
ENDCHAR
STARTCHAR 01FB
ENCODING 507
SWIDTH 458 0
DWIDTH 22 0
BBX 20 45 2 0
BITMAP
000F00
001F00
001E00
003C00
003800
007000
00E000
00C000
018000
010000
000000
00F000
01F800
031800
031800
061800
061800
073800
03F000
01C000
000000
000000
000000
01F800
0FFE00
1C1E00
780F00
700F00
F00F00
800F00
000F00
000F00
00FF00
07FF00
1F8F00
3E0F00
780F00
F80F00
F00F00
F00F00
F01F00
F03F00
78EF20
7F8FF0
1E0780
ENDCHAR
STARTCHAR 01FC
ENCODING 508
SWIDTH 770 0
DWIDTH 37 0
BBX 36 41 0 0
BITMAP
0000002000
0000007000
000000F800
000001FC00
000007E000
00000F8000
00001E0000
0000380000
0000200000
0000000000
0000000000
007FFFFFC0
001FFFFFE0
0007FC00C0
00073C00C0
00073C00C0
000E3C00C0
000E3C0000
001E3C0000
001C3C0000
001C3C0000
003C3C0000
00383C0000
00783C0000
007FFFFF00
007FFFFF00
00F03C0600
00E03C0000
01E03C0000
01C03C0000
01C03C0000
03803C0000
03803C0000
07803C0000
07003C0000
07003C0010
0E003C0030
0E003C0030
1E003E0070
3E007FFFE0
FFC1FFFFE0
ENDCHAR
STARTCHAR 01FD
ENCODING 509
SWIDTH 687 0
DWIDTH 33 0
BBX 29 35 2 0
BITMAP
00003C00
00003C00
00007800
0000F000
0000E000
0001E000
0001C000
00038000
00070000
00060000
00000000
00000000
00000000
01F81F80
07FC7FC0
1C3EE1E0
381FC0F0
700F8070
F00F8078
F00F0078
C00F0078
007FFFF8
03FFFFF0
0F8F0000
1E0F0000
3C0F0000
780F0000
F00F0000
F00F8000
F01F8018
F03FC030
F8F3E0F0
7FE3FFC0
7F80FF80
1E007E00
ENDCHAR
STARTCHAR 01FE
ENCODING 510
SWIDTH 604 0
DWIDTH 29 0
BBX 25 42 2 -1
BITMAP
00008000
0000E000
0003F000
0007E000
000F8000
001E0000
00780000
00E00000
00800000
00000000
00000000
003F0780
01FFCF00
03C1FE00
07007E00
0E003C00
1C007E00
38007E00
3800FF00
7801EF00
7801EF00
7003CF80
F0078780
F0070780
F00F0780
F01E0780
F03C0780
F03C0780
F0780780
F0F00780
F0E00700
79E00700
7BC00F00
7B800E00
3F800C00
3F001C00
1E003800
1F007000
3FC1E000
79FF8000
F07E0000
C0000000
ENDCHAR
STARTCHAR 01FF
ENCODING 511
SWIDTH 500 0
DWIDTH 24 0
BBX 20 36 2 -1
BITMAP
000780
000780
000F00
001E00
001C00
003C00
003800
007000
00E000
00C000
000000
000000
000030
01F870
07FEE0
0E0FC0
1C07C0
3803E0
3807E0
700FE0
701CF0
F018F0
F038F0
F070F0
F0E0F0
F0C0F0
F1C0F0
F380E0
FF00E0
7E01C0
7E01C0
3E0380
3F0700
77FE00
E1F800
800000
ENDCHAR
STARTCHAR 021E
ENCODING 542
SWIDTH 645 0
DWIDTH 31 0
BBX 27 41 2 0
BITMAP
02001000
03001800
01C07000
00E0E000
0071C000
003F8000
003F8000
001F0000
000E0000
00000000
00000000
FFC07FE0
7F803FC0
1E000F00
1E000F00
1E000F00
1E000F00
1E000F00
1E000F00
1E000F00
1E000F00
1E000F00
1E000F00
1E000F00
1E000F00
1FFFFF00
1FFFFF00
1E000F00
1E000F00
1E000F00
1E000F00
1E000F00
1E000F00
1E000F00
1E000F00
1E000F00
1E000F00
1E000F00
1E000F00
7F001FC0
FFC07FE0
ENDCHAR
STARTCHAR 021F
ENCODING 543
SWIDTH 541 0
DWIDTH 26 0
BBX 23 46 2 0
BITMAP
0C0060
0700C0
038380
01C700
01EF00
00FE00
007C00
003800
000000
000000
060000
7E0000
FE0000
3E0000
1E0000
1E0000
1E0000
1E0000
1E0000
1E0000
1E0000
1E0000
1E0000
1E0000
1E0780
1C1FE0
1C31E0
1C60F0
1CC0F0
1D80F0
1F00F0
1F00F0
1E00F0
1E00F0
1E00F0
1E00F0
1E00F0
1E00F0
1E00F0
1E00F0
1E00F0
1E00F0
1E00F0
1E00F0
3F83F8
FFC7FE
ENDCHAR
STARTCHAR 0226
ENCODING 550
SWIDTH 604 0
DWIDTH 29 0
BBX 28 38 0 0
BITMAP
00040000
00070000
000F0000
000F0000
000F0000
00040000
00000000
00000000
00020000
00070000
000F0000
000F0000
001F8000
001F8000
001B8000
003BC000
0039C000
0031E000
0071E000
0070E000
0060F000
00E0F000
00E07000
00C07800
01C07800
01C03800
01FFFC00
03FFFC00
03801E00
03001E00
07001E00
07000F00
06000F00
0E000F00
0E000780
0C000780
3E0007C0
FFC03FF0
ENDCHAR
STARTCHAR 0227
ENCODING 551
SWIDTH 458 0
DWIDTH 22 0
BBX 20 32 2 0
BITMAP
00E000
00E000
01E000
01E000
00C000
000000
000000
000000
000000
000000
01F800
0FFE00
1C1E00
780F00
700F00
F00F00
800F00
000F00
000F00
00FF00
07FF00
1F8F00
3E0F00
780F00
F80F00
F00F00
F00F00
F01F00
F03F00
78EF20
7F8FF0
1E0780
ENDCHAR
STARTCHAR 0228
ENCODING 552
SWIDTH 500 0
DWIDTH 24 0
BBX 20 40 2 -10
BITMAP
FFFFE0
7FFFF0
1E0060
1E0060
1E0060
1E0060
1E0000
1E0000
1E0000
1E0000
1E0000
1E0000
1E0000
1FFF80
1FFF80
1E0300
1E0000
1E0000
1E0000
1E0000
1E0000
1E0000
1E0000
1E0000
1E0010
1E0030
1E0030
1F0070
7FFFE0
FFFFE0
002000
004000
006000
007800
00FC00
003C00
003C00
007800
00F000
038000
ENDCHAR
STARTCHAR 0229
ENCODING 553
SWIDTH 458 0
DWIDTH 22 0
BBX 19 32 2 -10
BITMAP
00F800
07FE00
0E0F00
1C0780
380780
3803C0
7003C0
7003C0
FFFFC0
FFFF80
F00000
F00000
F00000
F00000
F80000
780000
7C0000
7C0040
3E01E0
1F8380
0FFF00
03FC00
006000
00E000
00F000
00FC00
00FC00
003C00
003C00
007800
01E000
070000
ENDCHAR
STARTCHAR 022A
ENCODING 554
SWIDTH 604 0
DWIDTH 29 0
BBX 25 45 2 0
BITMAP
07FFF800
07FFF000
00000000
00000000
00000000
00000000
00000000
01004000
0380E000
0380E000
0781E000
0380E000
02008000
00000000
00000000
003F0000
00FFE000
03C1F000
0700F800
0E007C00
1C003E00
3C001E00
38001F00
78000F00
78000F00
70000F80
F0000780
F0000780
F0000780
F0000780
F0000780
F0000780
F0000780
F0000780
F8000700
78000F00
78000F00
7C000E00
3C001C00
3E001C00
1F003800
0F807000
07C1E000
03FF8000
00FE0000
ENDCHAR
STARTCHAR 022B
ENCODING 555
SWIDTH 500 0
DWIDTH 24 0
BBX 20 38 2 0
BITMAP
1FFFE0
1FFFC0
000000
000000
000000
000000
060180
0F03C0
0F03C0
0E0380
0E0380
000000
000000
000000
000000
000000
00FC00
07FF00
0E0F80
1C07C0
3803C0
3803E0
7001E0
7001F0
F000F0
F000F0
F000F0
F000F0
F000F0
F000F0
F800E0
7801E0
7C01C0
3C01C0
3E0380
1F0700
0FFE00
03F000
ENDCHAR
STARTCHAR 022C
ENCODING 556
SWIDTH 604 0
DWIDTH 29 0
BBX 25 45 2 0
BITMAP
07FFF800
07FFF000
00000000
00000000
00000000
00000000
00402000
01F83000
03FC3000
03FFE000
061FC000
040F8000
0C020000
00000000
00000000
003F0000
00FFE000
03C1F000
0700F800
0E007C00
1C003E00
3C001E00
38001F00
78000F00
78000F00
70000F80
F0000780
F0000780
F0000780
F0000780
F0000780
F0000780
F0000780
F0000780
F8000700
78000F00
78000F00
7C000E00
3C001C00
3E001C00
1F003800
0F807000
07C1E000
03FF8000
00FE0000
ENDCHAR
STARTCHAR 022D
ENCODING 557
SWIDTH 500 0
DWIDTH 24 0
BBX 20 38 2 0
BITMAP
1FFFE0
1FFFC0
000000
000000
000000
000000
03C040
07E060
0FF0C0
0FF980
1C7F00
101E00
000000
000000
000000
000000
00FC00
07FF00
0E0F80
1C07C0
3803C0
3803E0
7001E0
7001F0
F000F0
F000F0
F000F0
F000F0
F000F0
F000F0
F800E0
7801E0
7C01C0
3C01C0
3E0380
1F0700
0FFE00
03F000
ENDCHAR
STARTCHAR 022E
ENCODING 558
SWIDTH 604 0
DWIDTH 29 0
BBX 25 38 2 0
BITMAP
00080000
001C0000
001C0000
003C0000
001C0000
00100000
00000000
00000000
003F0000
00FFE000
03C1F000
0700F800
0E007C00
1C003E00
3C001E00
38001F00
78000F00
78000F00
70000F80
F0000780
F0000780
F0000780
F0000780
F0000780
F0000780
F0000780
F0000780
F8000700
78000F00
78000F00
7C000E00
3C001C00
3E001C00
1F003800
0F807000
07C1E000
03FF8000
00FE0000
ENDCHAR
STARTCHAR 022F
ENCODING 559
SWIDTH 500 0
DWIDTH 24 0
BBX 20 32 2 0
BITMAP
003000
007800
007800
007000
007000
000000
000000
000000
000000
000000
00FC00
07FF00
0E0F80
1C07C0
3803C0
3803E0
7001E0
7001F0
F000F0
F000F0
F000F0
F000F0
F000F0
F000F0
F800E0
7801E0
7C01C0
3C01C0
3E0380
1F0700
0FFE00
03F000
ENDCHAR
STARTCHAR 0230
ENCODING 560
SWIDTH 604 0
DWIDTH 29 0
BBX 25 45 2 0
BITMAP
07FFF800
07FFF000
00000000
00000000
00000000
00000000
00000000
00080000
001C0000
001C0000
003C0000
001C0000
00100000
00000000
00000000
003F0000
00FFE000
03C1F000
0700F800
0E007C00
1C003E00
3C001E00
38001F00
78000F00
78000F00
70000F80
F0000780
F0000780
F0000780
F0000780
F0000780
F0000780
F0000780
F0000780
F8000700
78000F00
78000F00
7C000E00
3C001C00
3E001C00
1F003800
0F807000
07C1E000
03FF8000
00FE0000
ENDCHAR
STARTCHAR 0231
ENCODING 561
SWIDTH 500 0
DWIDTH 24 0
BBX 20 38 2 0
BITMAP
1FFFE0
1FFFC0
000000
000000
000000
000000
003000
007800
007800
007000
007000
000000
000000
000000
000000
000000
00FC00
07FF00
0E0F80
1C07C0
3803C0
3803E0
7001E0
7001F0
F000F0
F000F0
F000F0
F000F0
F000F0
F000F0
F800E0
7801E0
7C01C0
3C01C0
3E0380
1F0700
0FFE00
03F000
ENDCHAR
STARTCHAR 0232
ENCODING 562
SWIDTH 604 0
DWIDTH 29 0
BBX 28 38 0 0
BITMAP
01FFFC00
01FFFC00
03FFF800
00000000
00000000
00000000
00000000
00000000
FC003FF0
FE003FF0
1F000F80
0F000700
0F800E00
07C00E00
03C01C00
03E03C00
01E03800
00F07800
00F87000
0078E000
007DE000
003DC000
003FC000
001F8000
001F8000
000F0000
000F0000
000F0000
000F0000
000F0000
000F0000
000F0000
000F0000
000F0000
000F0000
000F0000
003FC000
00FFF000
ENDCHAR
STARTCHAR 0233
ENCODING 563
SWIDTH 500 0
DWIDTH 24 0
BBX 24 41 -1 -11
BITMAP
03FFFC
03FFF8
000000
000000
000000
000000
000000
000000
7FE0FF
1F003E
0F001C
0F0018
078038
078038
038030
03C070
03C060
01E0E0
01E0E0
00E0C0
00F1C0
00F1C0
007980
007B80
003B00
003F00
003F00
001E00
001E00
000C00
000C00
001C00
001800
003800
007000
007000
00E000
3FC000
7F8000
FF0000
7C0000
ENDCHAR
STARTCHAR 0237
ENCODING 567
SWIDTH 250 0
DWIDTH 12 0
BBX 14 33 -5 -11
BITMAP
000C
00FC
01FC
007C
003C
003C
003C
003C
003C
003C
003C
003C
003C
003C
003C
003C
003C
003C
003C
003C
003C
003C
003C
003C
0038
0038
0078
0070
0070
30E0
7F80
FF00
7C00
ENDCHAR
STARTCHAR 023D
ENCODING 573
SWIDTH 479 0
DWIDTH 23 0
BBX 22 30 0 0
BITMAP
7FE000
3FC000
0F0000
0F0000
0F0000
0F0000
0F0000
0F0000
0F0000
0F0000
0F0000
0F0000
0F0000
0F0000
0F0000
7FFC00
FFFC00
0F0000
0F0000
0F0000
0F0000
0F0000
0F0000
0F0000
0F0004
0F000C
0F000C
0F8018
3FFFF8
7FFFF8
ENDCHAR
STARTCHAR 0241
ENCODING 577
SWIDTH 458 0
DWIDTH 22 0
BBX 20 30 1 0
BITMAP
01FE00
07FF80
1E0FC0
3C03E0
7801F0
F000F0
F000F0
F000F0
F000F0
4000F0
0001E0
0003C0
0007C0
000F00
001E00
003C00
007800
007000
00F000
00F000
00F000
00F000
00F000
00F000
00F000
00F000
00F000
00F000
03FC00
0FFF00
ENDCHAR
STARTCHAR 0242
ENCODING 578
SWIDTH 416 0
DWIDTH 20 0
BBX 16 22 2 0
BITMAP
03F0
1FFC
3C3E
781F
F00F
F00F
F00F
E00F
001E
003C
0078
01E0
03C0
0380
0780
0780
0780
0780
0780
0780
1FE0
7FF8
ENDCHAR
STARTCHAR 0244
ENCODING 580
SWIDTH 645 0
DWIDTH 31 0
BBX 29 30 1 0
BITMAP
7FE03FF0
3FC01FE0
0F000780
0F000780
0F000780
0F000780
0F000780
0F000780
0F000780
0F000780
0F000780
0F000780
0F000780
0F000780
7FFFFFF8
FFFFFFF0
0F000780
0F000780
0F000780
0F000780
0F000780
0F000780
0F000700
0F800F00
07800F00
07C01E00
03E03E00
01F07C00
00FFF000
001FC000
ENDCHAR
STARTCHAR 0245
ENCODING 581
SWIDTH 645 0
DWIDTH 31 0
BBX 30 30 0 0
BITMAP
00018000
00078000
0007C000
0007C000
000FC000
000FE000
001DE000
001CE000
001CF000
0038F000
00387800
00387800
00707800
00703C00
00703C00
00E01C00
00E01E00
00C01E00
01C00F00
01C00F00
01800F00
03800780
03800780
07000380
070003C0
070003C0
0E0001E0
0E0001E0
1F0001F0
FFC00FFC
ENDCHAR
STARTCHAR 024A
ENCODING 586
SWIDTH 604 0
DWIDTH 29 0
BBX 33 41 1 -11
BITMAP
000FC10000
007FF38000
00FFFF0000
03E0FF0000
07803F0000
0F001F0000
1E000F0000
1C000F0000
3C000F0000
78000F0000
78000F0000
70000F0000
F0000F0000
F0000F0000
F0000F0000
F0000F0000
F0000F0000
F0000F0000
F0000F0000
F8000F0000
78000F0000
78000F0000
7C001F0000
3C003F0000
3E007F0000
1F00EF0000
0FC3CF0000
07FF8F0000
03FF0F0000
00F80F0000
00000F0000
00000F0000
00000F0000
00000F0000
00000F0180
00000F0780
00000F0780
00000F0700
0000078E00
000007FC00
000003F000
ENDCHAR
STARTCHAR 024B
ENCODING 587
SWIDTH 520 0
DWIDTH 25 0
BBX 29 33 2 -11
BITMAP
00FC3000
03FF6000
070FE000
1E03E000
1C01E000
3801E000
7801E000
7001E000
F001E000
F001E000
F001E000
F001E000
F001E000
F001E000
F001E000
7801E000
7801E000
7C03E000
3E07E000
1F19E000
0FF1E000
07C1E000
0001E000
0001E000
0001E000
0001E000
0001E018
0001E078
0001E078
0001F070
0000F0E0
0000FFC0
00003E00
ENDCHAR
STARTCHAR 0251
ENCODING 593
SWIDTH 500 0
DWIDTH 24 0
BBX 22 22 2 0
BITMAP
00F840
03FEC0
0F0FC0
1C07C0
3803C0
3803C0
7803C0
7003C0
F003C0
F003C0
F003C0
F003C0
F003C0
F003C0
F003C0
7803C0
7803C0
7C07C0
3C0BC8
1F13FC
0FE3F0
07C1C0
ENDCHAR
STARTCHAR 0253
ENCODING 595
SWIDTH 500 0
DWIDTH 24 0
BBX 19 36 3 0
BITMAP
007C00
01FF80
031F80
0E0700
1C0200
180000
380000
780000
700000
700000
F00000
F00000
F00000
F00000
F03C00
F0FF00
F3FF80
F71F80
FE07C0
FC07C0
F803E0
F003E0
F001E0
F001E0
F001E0
F001E0
F001E0
F001E0
F001C0
F001C0
F00380
F00300
F80700
7E0E00
1FF800
07E000
ENDCHAR
STARTCHAR 0254
ENCODING 596
SWIDTH 458 0
DWIDTH 22 0
BBX 18 22 2 0
BITMAP
03F000
0FFC00
3FFE00
707F00
E01F00
800F80
000780
0007C0
0003C0
0003C0
0003C0
0003C0
3803C0
F803C0
F00380
F00780
F00780
F00700
780E00
7E1C00
3FF800
0FE000
ENDCHAR
STARTCHAR 0256
ENCODING 598
SWIDTH 500 0
DWIDTH 24 0
BBX 29 47 2 -11
BITMAP
0000E000
000FE000
000FE000
0001E000
0001E000
0001E000
0001E000
0001E000
0001E000
0001E000
0001E000
0001E000
0001E000
0001E000
00FDE000
03FFE000
0F0FE000
1C03E000
3C01E000
3801E000
7801E000
7001E000
F001E000
F001E000
F001E000
F001E000
F001E000
F001E000
F001E000
7801E000
7801E000
7C03E000
3E05E000
1F19E000
0FF1E000
07C1E000
0001E000
0001E000
0001E000
0001E000
0001E030
0001E0F8
0001E0F0
0001F0F0
0000F1E0
0000FF80
00003E00
ENDCHAR
STARTCHAR 0257
ENCODING 599
SWIDTH 520 0
DWIDTH 25 0
BBX 28 36 2 0
BITMAP
000003C0
00000FF0
000011F0
00007060
00006080
0000E000
0000E000
0001E000
0001E000
0001E000
0001E000
0001E000
0001E000
0001E000
00FDE000
03FFE000
0F0FE000
1C03E000
3C01E000
3801E000
7801E000
7001E000
F001E000
F001E000
F001E000
F001E000
F001E000
F001E000
F001E000
7801E000
7801E000
7C03E000
3E05E400
1F19FE00
0FF0F800
07C0E000
ENDCHAR
STARTCHAR 0259
ENCODING 601
SWIDTH 458 0
DWIDTH 22 0
BBX 18 22 2 0
BITMAP
03F000
0FFC00
3FFE00
783F00
E01F00
800F80
000780
0007C0
0003C0
0003C0
0003C0
1FFFC0
7FFFC0
F003C0
F00380
F00380
F00700
F80700
780E00
3E1C00
1FF800
07E000
ENDCHAR
STARTCHAR 025B
ENCODING 603
SWIDTH 416 0
DWIDTH 20 0
BBX 18 22 2 0
BITMAP
01FC00
0FFF00
1C1F00
780700
700200
F00000
F00000
F80000
FE0000
7FE000
1FE000
1F0000
7C0000
F80000
F00000
F00000
F00000
F00080
F803C0
7E0F00
3FFE00
0FF000
ENDCHAR
STARTCHAR 0263
ENCODING 611
SWIDTH 500 0
DWIDTH 24 0
BBX 24 33 0 -11
BITMAP
FFC0FF
3E003C
1E0038
1E0038
0F0070
0F0070
0780E0
0780E0
03C1C0
03C1C0
01E380
01E380
00F700
00F600
007E00
007C00
003C00
003E00
003E00
007F00
007F00
00EF80
00EF80
01C780
01C7C0
0383C0
0383C0
0383C0
0383C0
038380
01C780
01FF00
007C00
ENDCHAR
STARTCHAR 0268
ENCODING 616
SWIDTH 270 0
DWIDTH 13 0
BBX 12 32 1 0
BITMAP
0E00
0F00
1F00
1F00
0E00
0000
0000
0000
0000
0000
0300
3F00
7F00
0F00
0F00
0F00
0F00
0F00
0F00
0F00
FFF0
FFE0
0F00
0F00
0F00
0F00
0F00
0F00
0F00
0F00
3FC0
7FE0
ENDCHAR
STARTCHAR 0269
ENCODING 617
SWIDTH 291 0
DWIDTH 14 0
BBX 13 22 1 0
BITMAP
0600
7E00
FE00
1E00
1E00
1E00
1E00
1E00
1E00
1E00
1E00
1E00
1E00
1E00
1E00
1E00
1E00
1E08
1E38
1FF0
1FC0
0F00
ENDCHAR
STARTCHAR 026B
ENCODING 619
SWIDTH 333 0
DWIDTH 16 0
BBX 16 36 0 0
BITMAP
00C0
07C0
1FC0
07C0
03C0
03C0
03C0
03C0
03C0
03C0
03C0
03C0
03C0
03C0
03C0
03C1
1FC3
3FC6
63FC
C3F8
83C0
03C0
03C0
03C0
03C0
03C0
03C0
03C0
03C0
03C0
03C0
03C0
03C0
03C0
07F0
3FFC
ENDCHAR
STARTCHAR 0272
ENCODING 626
SWIDTH 541 0
DWIDTH 26 0
BBX 31 33 -6 -11
BITMAP
00180780
01FC1FE0
007C31E0
003CC0F0
003D80F0
003D00F0
003E00F0
003E00F0
003C00F0
003C00F0
003C00F0
003C00F0
003C00F0
003C00F0
003C00F0
003C00F0
003C00F0
003C00F0
003C00F0
003C00F0
003C03F8
003C07FE
003C0000
003C0000
00380000
00380000
00780000
00700000
00E00000
31C00000
7F800000
FF000000
7C000000
ENDCHAR
STARTCHAR 0275
ENCODING 629
SWIDTH 500 0
DWIDTH 24 0
BBX 20 22 2 0
BITMAP
00FC00
07FF00
0E0F80
1C07C0
3803C0
3803E0
7001E0
7001F0
F000F0
F000F0
FFFFF0
FFFFF0
F000F0
F000F0
F800E0
7801E0
7C01C0
3C01C0
3E0380
1F0F00
0FFE00
03F000
ENDCHAR
STARTCHAR 0283
ENCODING 643
SWIDTH 270 0
DWIDTH 13 0
BBX 22 47 -5 -11
BITMAP
0001F0
0007FC
000C78
003830
003000
007000
007000
00F000
00F000
00F000
00F000
00F000
00F000
00F000
00F000
00F800
00F800
007800
007800
007800
007800
007800
007C00
007C00
003C00
003C00
003C00
003C00
003E00
003E00
001E00
001E00
001E00
001E00
001E00
001E00
001E00
001E00
001C00
001C00
003C00
003800
007000
70E000
FFC000
FF8000
3E0000
ENDCHAR
STARTCHAR 0289
ENCODING 649
SWIDTH 520 0
DWIDTH 25 0
BBX 24 22 1 0
BITMAP
0E0070
FE07F0
3E01F0
1E00F0
1E00F0
1E00F0
1E00F0
1E00F0
1E00F0
1E00F0
FFFFFE
FFFFFE
1E00F0
1E00F0
1E00F0
1E00F0
1E01F0
1E01F0
1F07F2
0F8CFF
0FF8FC
03E070
ENDCHAR
STARTCHAR 028A
ENCODING 650
SWIDTH 479 0
DWIDTH 23 0
BBX 20 22 2 0
BITMAP
FF1FF0
3FBF80
0F1E00
0E0E00
1C0700
3C0780
7803C0
7803C0
7003E0
F001E0
F001E0
F001E0
F001E0
F001E0
F001C0
F801C0
7803C0
7C0380
3E0700
1F0E00
0FFC00
03F000
ENDCHAR
STARTCHAR 028C
ENCODING 652
SWIDTH 500 0
DWIDTH 24 0
BBX 23 22 0 0
BITMAP
001800
003800
007C00
007C00
007E00
00FE00
00CE00
00CF00
01CF00
018780
038780
038380
0303C0
0703C0
0601E0
0601E0
0E00E0
0C00F0
1C00F0
1C0078
3C007C
FF03FE
ENDCHAR
STARTCHAR 0292
ENCODING 658
SWIDTH 458 0
DWIDTH 22 0
BBX 20 33 0 -11
BITMAP
3FFFC0
3FFFE0
3007C0
300F80
200F00
201E00
003C00
007C00
007800
00F000
01E000
03C000
07C000
07FC00
0FFF00
081F80
0007C0
0003E0
0001E0
0001F0
0000F0
0000F0
0000F0
0000F0
0000F0
0000E0
0000E0
1001C0
3801C0
7C0380
FE0F00
3FFC00
07F000
ENDCHAR
STARTCHAR 0294
ENCODING 660
SWIDTH 437 0
DWIDTH 21 0
BBX 19 36 1 0
BITMAP
01FC00
07FF00
1E1F80
3C07C0
7803C0
7003E0
F001E0
F001E0
F001E0
0001E0
0001E0
0003C0
0003C0
000780
000F00
001E00
003C00
003800
007800
00F000
00E000
01E000
01E000
01E000
01E000
01E000
01E000
01E000
01E000
01E000
01E000
01E000
01E000
01E000
07F800
1FFE00
ENDCHAR
STARTCHAR 02A0
ENCODING 672
SWIDTH 520 0
DWIDTH 25 0
BBX 28 47 2 -11
BITMAP
000003C0
00000FF0
000011F0
000070E0
00006040
0000E000
0000E000
0001E000
0001E000
0001E000
0001E000
0001E000
0001E000
0001E000
00FDE000
03FFE000
0F0FE000
1E03E000
3C01E000
3801E000
7801E000
7001E000
F001E000
F001E000
F001E000
F001E000
F001E000
F001E000
F001E000
7801E000
7801E000
7C03E000
3E07E000
1F1DE000
0FF9E000
03E1E000
0001E000
0001E000
0001E000
0001E000
0001E000
0001E000
0001E000
0001E000
0001E000
0003F000
001FFC00
ENDCHAR
STARTCHAR 02BC
ENCODING 700
SWIDTH 229 0
DWIDTH 11 0
BBX 8 10 1 25
BITMAP
3E
FF
3F
0F
0F
0E
0E
1C
18
30
ENDCHAR
STARTCHAR 02C0
ENCODING 704
SWIDTH 312 0
DWIDTH 15 0
BBX 14 18 0 19
BITMAP
07E0
1FF0
78F8
707C
F03C
F03C
003C
0038
0078
00F0
00E0
01C0
01C0
0380
0380
0380
0380
0380
ENDCHAR
STARTCHAR 02C6
ENCODING 710
SWIDTH 354 0
DWIDTH 17 0
BBX 15 9 1 25
BITMAP
0380
07C0
0FE0
0EF0
1C70
3838
701C
600E
C006
ENDCHAR
STARTCHAR 02C7
ENCODING 711
SWIDTH 354 0
DWIDTH 17 0
BBX 15 10 1 25
BITMAP
4006
E00E
701C
3838
1C78
1EF0
0FE0
07E0
07C0
0380
ENDCHAR
STARTCHAR 02C9
ENCODING 713
SWIDTH 500 0
DWIDTH 24 0
BBX 16 2 4 28
BITMAP
7FFF
FFFE
ENDCHAR
STARTCHAR 02CA
ENCODING 714
SWIDTH 187 0
DWIDTH 9 0
BBX 9 10 0 25
BITMAP
0780
0780
0F00
1E00
1E00
3C00
3800
7000
E000
C000
ENDCHAR
STARTCHAR 02CB
ENCODING 715
SWIDTH 208 0
DWIDTH 10 0
BBX 10 10 0 25
BITMAP
7000
F800
7800
3C00
1E00
0E00
0700
0300
0180
00C0
ENDCHAR
STARTCHAR 02CD
ENCODING 717
SWIDTH 500 0
DWIDTH 24 0
BBX 16 2 4 -4
BITMAP
7FFE
FFFF
ENDCHAR
STARTCHAR 02D7
ENCODING 727
SWIDTH 333 0
DWIDTH 16 0
BBX 14 2 1 11
BITMAP
7FFC
FFF8
ENDCHAR
STARTCHAR 02D8
ENCODING 728
SWIDTH 354 0
DWIDTH 17 0
BBX 15 8 1 25
BITMAP
8002
C006
600E
700C
3838
3FF8
1FF0
07C0
ENDCHAR
STARTCHAR 02D9
ENCODING 729
SWIDTH 187 0
DWIDTH 9 0
BBX 4 5 3 27
BITMAP
70
F0
F0
F0
E0
ENDCHAR
STARTCHAR 02DA
ENCODING 730
SWIDTH 250 0
DWIDTH 12 0
BBX 8 9 2 25
BITMAP
1C
3E
67
C3
C3
C3
E6
7C
38
ENDCHAR
STARTCHAR 02DB
ENCODING 731
SWIDTH 250 0
DWIDTH 12 0
BBX 10 11 2 -10
BITMAP
0180
0300
0E00
1C00
3800
7000
F000
F080
F0C0
7F00
3E00
ENDCHAR
STARTCHAR 02DC
ENCODING 732
SWIDTH 395 0
DWIDTH 19 0
BBX 16 6 2 26
BITMAP
1E03
3F02
7F86
7FCC
E3F8
80F0
ENDCHAR
STARTCHAR 02DD
ENCODING 733
SWIDTH 375 0
DWIDTH 18 0
BBX 14 10 2 25
BITMAP
0E18
1E3C
1E38
3C78
3870
30E0
70E0
60C0
C180
C100
ENDCHAR
STARTCHAR 0300
ENCODING 768
SWIDTH 0 0
DWIDTH 0 0
BBX 10 10 -17 25
BITMAP
7000
F800
7800
3C00
1E00
0E00
0700
0300
0180
00C0
ENDCHAR
STARTCHAR 0301
ENCODING 769
SWIDTH 0 0
DWIDTH 0 0
BBX 9 10 -15 25
BITMAP
0780
0780
0F00
1E00
1C00
3C00
3800
7000
E000
C000
ENDCHAR
STARTCHAR 0302
ENCODING 770
SWIDTH 0 0
DWIDTH 0 0
BBX 14 9 -19 25
BITMAP
0780
0780
0FC0
1CE0
3870
7030
6018
C00C
8004
ENDCHAR
STARTCHAR 0303
ENCODING 771
SWIDTH 0 0
DWIDTH 0 0
BBX 16 6 -20 26
BITMAP
0E03
3F02
3F86
7FCC
E3F8
C0F0
ENDCHAR
STARTCHAR 0304
ENCODING 772
SWIDTH 0 0
DWIDTH 0 0
BBX 16 2 -20 28
BITMAP
7FFF
FFFE
ENDCHAR
STARTCHAR 0306
ENCODING 774
SWIDTH 0 0
DWIDTH 0 0
BBX 16 8 -20 25
BITMAP
4002
C003
6006
700C
3C3C
1FF8
0FF0
07C0
ENDCHAR
STARTCHAR 0307
ENCODING 775
SWIDTH 0 0
DWIDTH 0 0
BBX 4 5 -14 27
BITMAP
70
F0
F0
F0
E0
ENDCHAR
STARTCHAR 0308
ENCODING 776
SWIDTH 0 0
DWIDTH 0 0
BBX 14 5 -19 27
BITMAP
701C
F03C
F03C
F03C
E038
ENDCHAR
STARTCHAR 0309
ENCODING 777
SWIDTH 0 0
DWIDTH 0 0
BBX 8 9 -16 25
BITMAP
1E
3F
63
E3
02
0C
18
38
0C
ENDCHAR
STARTCHAR 030A
ENCODING 778
SWIDTH 0 0
DWIDTH 0 0
BBX 8 9 -16 25
BITMAP
1C
3E
67
C3
C3
C3
E6
7C
38
ENDCHAR
STARTCHAR 030B
ENCODING 779
SWIDTH 0 0
DWIDTH 0 0
BBX 14 10 -17 25
BITMAP
0E1C
0F3C
1E3C
1C38
3870
3870
70E0
60C0
6180
C180
ENDCHAR
STARTCHAR 030C
ENCODING 780
SWIDTH 0 0
DWIDTH 0 0
BBX 14 10 -19 25
BITMAP
8004
C00C
E018
7038
38F0
1FE0
1FE0
0FC0
0780
0780
ENDCHAR
STARTCHAR 031B
ENCODING 795
SWIDTH 41 0
DWIDTH 2 0
BBX 9 10 -7 17
BITMAP
0100
0F80
0F80
0780
0700
0F00
0E00
3800
F000
8000
ENDCHAR
STARTCHAR 0323
ENCODING 803
SWIDTH 0 0
DWIDTH 0 0
BBX 4 5 -14 -10
BITMAP
70
F0
F0
F0
E0
ENDCHAR
STARTCHAR 0327
ENCODING 807
SWIDTH 0 0
DWIDTH 0 0
BBX 8 10 -16 -10
BITMAP
18
38
30
3E
7F
0F
0F
1E
78
E0
ENDCHAR
STARTCHAR 0328
ENCODING 808
SWIDTH 0 0
DWIDTH 0 0
BBX 10 11 -17 -10
BITMAP
0180
0300
0E00
1C00
3800
7000
F000
F080
F0C0
7F00
3E00
ENDCHAR
STARTCHAR 0331
ENCODING 817
SWIDTH 0 0
DWIDTH 0 0
BBX 16 2 -20 -8
BITMAP
7FFF
FFFE
ENDCHAR
STARTCHAR 033F
ENCODING 831
SWIDTH 0 0
DWIDTH 0 0
BBX 26 9 -24 28
BITMAP
7FFFFFC0
FFFFFF80
00000000
00000000
00000000
00000000
00000000
7FFFFFC0
FFFFFF80
ENDCHAR
STARTCHAR 035E
ENCODING 862
SWIDTH 0 0
DWIDTH 0 0
BBX 30 2 -15 40
BITMAP
FFFFFFFC
FFFFFFFC
ENDCHAR
STARTCHAR 035F
ENCODING 863
SWIDTH 0 0
DWIDTH 0 0
BBX 30 2 -15 -17
BITMAP
FFFFFFFC
FFFFFFFC
ENDCHAR
STARTCHAR 03A0
ENCODING 928
SWIDTH 625 0
DWIDTH 30 0
BBX 26 30 2 0
BITMAP
FFFFFFC0
7FFFFF80
1F003E00
1E001E00
1E001E00
1E001E00
1E001E00
1E001E00
1E001E00
1E001E00
1E001E00
1E001E00
1E001E00
1E001E00
1E001E00
1E001E00
1E001E00
1E001E00
1E001E00
1E001E00
1E001E00
1E001E00
1E001E00
1E001E00
1E001E00
1E001E00
1E001E00
1E001E00
7F807F80
FFC0FFC0
ENDCHAR
STARTCHAR 03A9
ENCODING 937
SWIDTH 625 0
DWIDTH 30 0
BBX 25 30 2 0
BITMAP
003F8000
00FFE000
03C0F800
07807C00
0F003E00
1E001E00
1C000F00
3C000F00
3C000F80
78000780
78000780
78000780
78000780
78000780
78000780
78000780
78000700
3C000F00
3C000F00
3C001E00
1E001C00
1E003C00
0F007800
07807000
47C0E080
43C1C180
61E38180
E0730380
FFF3FF80
FFF3FF00
ENDCHAR
STARTCHAR 03C0
ENCODING 960
SWIDTH 520 0
DWIDTH 25 0
BBX 24 22 0 0
BITMAP
0FFFFF
1FFFFE
3FFFFE
7FFFF8
6180C0
8180C0
0180C0
0181C0
0181C0
0181C0
0381C0
0381C0
0381C0
0381C0
0381C0
0381C0
0781C0
0781E0
0781E1
0F80FF
0F00FC
1C0078
ENDCHAR
STARTCHAR 1E02
ENCODING 7682
SWIDTH 541 0
DWIDTH 26 0
BBX 24 38 0 0
BITMAP
000800
001C00
001C00
003C00
001C00
001000
000000
000000
07FE00
FFFFC0
6F07E0
0F01F0
0F00F8
0F0078
0F0078
0F0078
0F0078
0F0070
0F00F0
0F01E0
0F07C0
0FFFC0
0FFFF0
0F01F8
0F007C
0F003E
0F001E
0F001F
0F000F
0F000F
0F000F
0F000F
0F000E
0F001E
0F003C
0F00F8
3FFFF0
7FFF80
ENDCHAR
STARTCHAR 1E03
ENCODING 7683
SWIDTH 500 0
DWIDTH 24 0
BBX 22 36 0 0
BITMAP
060000
7E0000
FE0000
1E0000
1E0600
1E0F00
1E0F00
1E0F00
1E0E00
1E0000
1E0000
1E0000
1E0000
1E0000
1E0F80
1E3FE0
1E7FF0
1EE3F0
1FC0F8
1F80F8
1F007C
1E007C
1E003C
1E003C
1E003C
1E003C
1E003C
1E003C
1E0038
1E0038
1E0070
1E0060
1F00E0
0FC1C0
03FF00
00FC00
ENDCHAR
STARTCHAR 1E04
ENCODING 7684
SWIDTH 541 0
DWIDTH 26 0
BBX 24 40 0 -10
BITMAP
07FE00
FFFFC0
6F07E0
0F01F0
0F00F8
0F0078
0F0078
0F0078
0F0078
0F0070
0F00F0
0F01E0
0F07C0
0FFFC0
0FFFF0
0F01F8
0F007C
0F003E
0F001E
0F001F
0F000F
0F000F
0F000F
0F000F
0F000E
0F001E
0F003C
0F00F8
3FFFF0
7FFF80
000000
000000
000000
000000
000000
001C00
001C00
003C00
003C00
001800
ENDCHAR
STARTCHAR 1E05
ENCODING 7685
SWIDTH 500 0
DWIDTH 24 0
BBX 22 46 0 -10
BITMAP
060000
7E0000
FE0000
1E0000
1E0000
1E0000
1E0000
1E0000
1E0000
1E0000
1E0000
1E0000
1E0000
1E0000
1E0F80
1E3FE0
1E7FF0
1EE3F0
1FC0F8
1F80F8
1F007C
1E007C
1E003C
1E003C
1E003C
1E003C
1E003C
1E003C
1E0038
1E0038
1E0070
1E0060
1F00E0
0FC1C0
03FF00
00FC00
000000
000000
000000
000000
000000
003800
003800
007800
007800
003000
ENDCHAR
STARTCHAR 1E06
ENCODING 7686
SWIDTH 541 0
DWIDTH 26 0
BBX 24 38 0 -8
BITMAP
07FE00
FFFFC0
6F07E0
0F01F0
0F00F8
0F0078
0F0078
0F0078
0F0078
0F0070
0F00F0
0F01E0
0F07C0
0FFFC0
0FFFF0
0F01F8
0F007C
0F003E
0F001E
0F001F
0F000F
0F000F
0F000F
0F000F
0F000E
0F001E
0F003C
0F00F8
3FFFF0
7FFF80
000000
000000
000000
000000
000000
000000
07FFF0
0FFFF0
ENDCHAR
STARTCHAR 1E07
ENCODING 7687
SWIDTH 500 0
DWIDTH 24 0
BBX 22 44 0 -8
BITMAP
060000
7E0000
FE0000
1E0000
1E0000
1E0000
1E0000
1E0000
1E0000
1E0000
1E0000
1E0000
1E0000
1E0000
1E0F80
1E3FE0
1E7FF0
1EE3F0
1FC0F8
1F80F8
1F007C
1E007C
1E003C
1E003C
1E003C
1E003C
1E003C
1E003C
1E0038
1E0038
1E0070
1E0060
1F00E0
0FC1C0
03FF00
00FC00
000000
000000
000000
000000
000000
000000
0FFFE0
1FFFE0
ENDCHAR
STARTCHAR 1E08
ENCODING 7688
SWIDTH 541 0
DWIDTH 26 0
BBX 22 51 2 -10
BITMAP
000040
0001F0
0003F0
0007E0
000F80
001E00
007800
00E000
000000
000000
000000
001FE0
00FFFC
01C0FC
078038
0E0010
0E0000
1C0000
380000
380000
780000
700000
700000
F00000
F00000
F00000
F00000
F00000
F00000
F00000
F00000
780000
780000
7C0000
3C0000
3E0008
1F003C
0F80F0
07FFE0
03FF80
00FE00
001800
001000
001C00
003E00
003F00
000F00
000F00
001E00
007800
01C000
ENDCHAR
STARTCHAR 1E09
ENCODING 7689
SWIDTH 437 0
DWIDTH 21 0
BBX 18 45 2 -10
BITMAP
000F00
000F80
001F00
001E00
003C00
007800
007000
00E000
00C000
018000
000000
000000
000000
007F00
03FFC0
0707C0
0E0180
1C0080
380000
780000
700000
F00000
F00000
F00000
F00000
F00000
F00000
F00000
780000
780100
7C0380
3E0700
1FFE00
0FF800
07F000
004000
008000
00E000
00F000
01F800
007800
007800
00F000
03C000
0E0000
ENDCHAR
STARTCHAR 1E0A
ENCODING 7690
SWIDTH 583 0
DWIDTH 28 0
BBX 25 38 1 0
BITMAP
00100000
001C0000
003C0000
003C0000
00380000
00100000
00000000
00000000
07FE0000
FFFFC000
6F03F000
0F00F800
0F007C00
0F003E00
0F001E00
0F001F00
0F000F00
0F000F00
0F000F80
0F000780
0F000780
0F000780
0F000780
0F000780
0F000780
0F000780
0F000780
0F000700
0F000F00
0F000F00
0F001E00
0F001E00
0F003C00
0F007C00
0F00F800
0F03E000
3FFFC000
7FFE0000
ENDCHAR
STARTCHAR 1E0B
ENCODING 7691
SWIDTH 520 0
DWIDTH 25 0
BBX 23 36 2 0
BITMAP
0000E0
000FE0
000FE0
0001E0
0601E0
0F01E0
0F01E0
0F01E0
0E01E0
0001E0
0001E0
0001E0
0001E0
0001E0
00FDE0
03FFE0
0F0FE0
1C03E0
3C01E0
3801E0
7801E0
7001E0
F001E0
F001E0
F001E0
F001E0
F001E0
F001E0
F001E0
7801E0
7801E0
7C03E0
3E05E4
1F19FE
0FF0F8
07C0E0
ENDCHAR
STARTCHAR 1E0C
ENCODING 7692
SWIDTH 583 0
DWIDTH 28 0
BBX 25 40 1 -10
BITMAP
07FE0000
FFFFC000
6F03F000
0F00F800
0F007C00
0F003E00
0F001E00
0F001F00
0F000F00
0F000F00
0F000F80
0F000780
0F000780
0F000780
0F000780
0F000780
0F000780
0F000780
0F000780
0F000700
0F000F00
0F000F00
0F001E00
0F001E00
0F003C00
0F007C00
0F00F800
0F03E000
3FFFC000
7FFE0000
00000000
00000000
00000000
00000000
00000000
001C0000
003C0000
003C0000
003C0000
00380000
ENDCHAR
STARTCHAR 1E0D
ENCODING 7693
SWIDTH 520 0
DWIDTH 25 0
BBX 23 46 2 -10
BITMAP
0000E0
000FE0
000FE0
0001E0
0001E0
0001E0
0001E0
0001E0
0001E0
0001E0
0001E0
0001E0
0001E0
0001E0
00FDE0
03FFE0
0F0FE0
1C03E0
3C01E0
3801E0
7801E0
7001E0
F001E0
F001E0
F001E0
F001E0
F001E0
F001E0
F001E0
7801E0
7801E0
7C03E0
3E05E4
1F19FE
0FF0F8
07C0E0
000000
000000
000000
000000
000000
007000
007000
00F000
00F000
006000
ENDCHAR
STARTCHAR 1E0E
ENCODING 7694
SWIDTH 583 0
DWIDTH 28 0
BBX 25 38 1 -8
BITMAP
07FE0000
FFFFC000
6F03F000
0F00F800
0F007C00
0F003E00
0F001E00
0F001F00
0F000F00
0F000F00
0F000F80
0F000780
0F000780
0F000780
0F000780
0F000780
0F000780
0F000780
0F000780
0F000700
0F000F00
0F000F00
0F001E00
0F001E00
0F003C00
0F007C00
0F00F800
0F03E000
3FFFC000
7FFE0000
00000000
00000000
00000000
00000000
00000000
00000000
07FFF000
0FFFE000
ENDCHAR
STARTCHAR 1E0F
ENCODING 7695
SWIDTH 520 0
DWIDTH 25 0
BBX 23 44 2 -8
BITMAP
0000E0
000FE0
000FE0
0001E0
0001E0
0001E0
0001E0
0001E0
0001E0
0001E0
0001E0
0001E0
0001E0
0001E0
00FDE0
03FFE0
0F0FE0
1C03E0
3C01E0
3801E0
7801E0
7001E0
F001E0
F001E0
F001E0
F001E0
F001E0
F001E0
F001E0
7801E0
7801E0
7C03E0
3E05E4
1F19FE
0FF0F8
07C0E0
000000
000000
000000
000000
000000
000000
1FFFC0
3FFFC0
ENDCHAR
STARTCHAR 1E14
ENCODING 7700
SWIDTH 500 0
DWIDTH 24 0
BBX 21 48 1 0
BITMAP
060000
1F0000
1F8000
07C000
01F000
007800
001C00
000600
000000
000000
0FFFC0
1FFFE0
0FFFC0
000000
000000
000000
000000
000000
FFFFE0
7FFFF0
1E0060
1E0060
1E0060
1E0060
1E0000
1E0000
1E0000
1E0000
1E0000
1E0000
1E0000
1FFF80
1FFF80
1E0300
1E0000
1E0000
1E0000
1E0000
1E0000
1E0000
1E0000
1E0000
1E0008
1E0018
1E0018
1F0038
7FFFF0
FFFFF0
ENDCHAR
STARTCHAR 1E15
ENCODING 7701
SWIDTH 458 0
DWIDTH 22 0
BBX 18 43 2 0
BITMAP
1F0000
0F0000
0F8000
078000
03C000
01E000
00E000
007000
003000
002800
000000
000000
000000
1FFFC0
3FFFC0
000000
000000
000000
000000
000000
000000
00F800
07FE00
0E0F00
1C0780
380780
3803C0
7003C0
7003C0
FFFFC0
FFFF80
F00000
F00000
F00000
F00000
F80000
780000
780000
7C00C0
3E0180
1F0700
0FFE00
03F800
ENDCHAR
STARTCHAR 1E16
ENCODING 7702
SWIDTH 500 0
DWIDTH 24 0
BBX 21 48 1 0
BITMAP
000180
0003C0
000FE0
001F80
003E00
007800
01E000
018000
000000
000000
0FFFC0
1FFFE0
0FFFC0
000000
000000
000000
000000
000000
FFFFE0
7FFFF0
1E0060
1E0060
1E0060
1E0060
1E0000
1E0000
1E0000
1E0000
1E0000
1E0000
1E0000
1FFF80
1FFF80
1E0300
1E0000
1E0000
1E0000
1E0000
1E0000
1E0000
1E0000
1E0000
1E0008
1E0018
1E0018
1F0038
7FFFF0
FFFFF0
ENDCHAR
STARTCHAR 1E17
ENCODING 7703
SWIDTH 458 0
DWIDTH 22 0
BBX 18 43 2 0
BITMAP
000780
000F80
001F00
001E00
003C00
003800
007000
00E000
00C000
008000
000000
000000
000000
1FFFC0
3FFFC0
000000
000000
000000
000000
000000
000000
00F800
07FE00
0E0F00
1C0780
380780
3803C0
7003C0
7003C0
FFFFC0
FFFF80
F00000
F00000
F00000
F00000
F80000
780000
780000
7C00C0
3E0180
1F0700
0FFE00
03F800
ENDCHAR
STARTCHAR 1E1C
ENCODING 7708
SWIDTH 500 0
DWIDTH 24 0
BBX 20 50 2 -10
BITMAP
100080
300180
180380
1E0F00
0FFE00
07FC00
01F000
000000
000000
000000
FFFFE0
7FFFF0
1E0060
1E0060
1E0060
1E0060
1E0000
1E0000
1E0000
1E0000
1E0000
1E0000
1E0000
1FFF80
1FFF80
1E0300
1E0000
1E0000
1E0000
1E0000
1E0000
1E0000
1E0000
1E0000
1E0010
1E0030
1E0030
1F0070
7FFFE0
FFFFE0
002000
004000
006000
007800
00FC00
003C00
003C00
007800
00F000
038000
ENDCHAR
STARTCHAR 1E1D
ENCODING 7709
SWIDTH 458 0
DWIDTH 22 0
BBX 19 43 2 -10
BITMAP
100080
3000C0
180180
1C0300
0F0F00
07FE00
03FC00
01F000
000000
000000
000000
00F800
07FE00
0E0F00
1C0780
380780
3803C0
7003C0
7003C0
FFFFC0
FFFF80
F00000
F00000
F00000
F00000
F80000
780000
7C0000
7C0040
3E01E0
1F8380
0FFF00
03FC00
006000
00E000
00F000
00FC00
00FC00
003C00
003C00
007800
01E000
070000
ENDCHAR
STARTCHAR 1E1E
ENCODING 7710
SWIDTH 479 0
DWIDTH 23 0
BBX 20 38 1 0
BITMAP
004000
007000
00F000
00F000
00F000
004000
000000
000000
FFFFF0
7FFFF0
1E0060
1E0060
1E0020
1E0020
1E0000
1E0000
1E0000
1E0000
1E0000
1E0000
1E0000
1FFF00
1FFF00
1E0600
1E0000
1E0000
1E0000
1E0000
1E0000
1E0000
1E0000
1E0000
1E0000
1E0000
1E0000
1E0000
7F8000
FFE000
ENDCHAR
STARTCHAR 1E1F
ENCODING 7711
SWIDTH 312 0
DWIDTH 15 0
BBX 19 43 0 0
BITMAP
007000
00F000
00F000
00E000
004000
000000
000000
000F80
003FE0
0063C0
01C180
038000
038000
078000
070000
0F0000
0F0000
0F0000
0F0000
0F0000
0F0000
3FFE00
FFFC00
0F0800
0F0000
0F0000
0F0000
0F0000
0F0000
0F0000
0F0000
0F0000
0F0000
0F0000
0F0000
0F0000
0F0000
0F0000
0F0000
0F0000
0F0000
1FE000
7FF800
ENDCHAR
STARTCHAR 1E20
ENCODING 7712
SWIDTH 583 0
DWIDTH 28 0
BBX 24 38 2 0
BITMAP
03FFF8
03FFF8
07FFF0
000000
000000
000000
000000
000000
001FE0
00FFF8
01C0FC
078038
0F0010
1E0000
1C0000
380000
380000
780000
700000
F00000
F00000
F00000
F00000
F00000
F007FF
F000FE
F0003C
F0003C
F8003C
78003C
78003C
3C003C
3E003C
1E003C
0F003C
07C0F8
03FFE0
007F00
ENDCHAR
STARTCHAR 1E21
ENCODING 7713
SWIDTH 479 0
DWIDTH 23 0
BBX 24 41 0 -11
BITMAP
07FFF0
0FFFE0
000000
000000
000000
000000
000000
000000
00FC02
03FF7E
0707FC
0E03E0
1E01E0
1C01F0
3C00F0
3C00F0
3C00F0
3C00F0
3E00E0
1F01C0
0F8380
07FF00
01FC00
03C000
078000
0F8000
0FE000
07FF80
03FFF0
07BFFC
0E00FE
3C001F
78000F
F0000F
F0000F
F0000E
F8001C
7C0038
3F80F0
0FFFC0
01FE00
ENDCHAR
STARTCHAR 1E22
ENCODING 7714
SWIDTH 645 0
DWIDTH 31 0
BBX 27 38 2 0
BITMAP
00040000
000E0000
000F0000
000E0000
000E0000
00080000
00000000
00000000
FFC07FE0
7F803FC0
1E000F00
1E000F00
1E000F00
1E000F00
1E000F00
1E000F00
1E000F00
1E000F00
1E000F00
1E000F00
1E000F00
1E000F00
1FFFFF00
1FFFFF00
1E000F00
1E000F00
1E000F00
1E000F00
1E000F00
1E000F00
1E000F00
1E000F00
1E000F00
1E000F00
1E000F00
1E000F00
7F001FC0
FFC07FE0
ENDCHAR
STARTCHAR 1E23
ENCODING 7715
SWIDTH 541 0
DWIDTH 26 0
BBX 23 43 2 0
BITMAP
003800
003C00
003C00
003800
003000
000000
000000
060000
7E0000
FE0000
3E0000
1E0000
1E0000
1E0000
1E0000
1E0000
1E0000
1E0000
1E0000
1E0000
1E0000
1E0780
1C1FE0
1C31E0
1C60F0
1CC0F0
1D80F0
1F00F0
1F00F0
1E00F0
1E00F0
1E00F0
1E00F0
1E00F0
1E00F0
1E00F0
1E00F0
1E00F0
1E00F0
1E00F0
1E00F0
3F83F8
FFC7FE
ENDCHAR
STARTCHAR 1E24
ENCODING 7716
SWIDTH 645 0
DWIDTH 31 0
BBX 27 40 2 -10
BITMAP
FFC07FE0
7F803FC0
1E000F00
1E000F00
1E000F00
1E000F00
1E000F00
1E000F00
1E000F00
1E000F00
1E000F00
1E000F00
1E000F00
1E000F00
1FFFFF00
1FFFFF00
1E000F00
1E000F00
1E000F00
1E000F00
1E000F00
1E000F00
1E000F00
1E000F00
1E000F00
1E000F00
1E000F00
1E000F00
7F001FC0
FFC07FE0
00000000
00000000
00000000
00000000
00000000
00060000
000F0000
000F0000
000E0000
000E0000
ENDCHAR
STARTCHAR 1E25
ENCODING 7717
SWIDTH 541 0
DWIDTH 26 0
BBX 23 46 2 -10
BITMAP
060000
7E0000
FE0000
3E0000
1E0000
1E0000
1E0000
1E0000
1E0000
1E0000
1E0000
1E0000
1E0000
1E0000
1E0780
1C1FE0
1C31E0
1C60F0
1CC0F0
1D80F0
1F00F0
1F00F0
1E00F0
1E00F0
1E00F0
1E00F0
1E00F0
1E00F0
1E00F0
1E00F0
1E00F0
1E00F0
1E00F0
1E00F0
3F83F8
FFC7FE
000000
000000
000000
000000
000000
001800
003C00
003C00
003800
003800
ENDCHAR
STARTCHAR 1E26
ENCODING 7718
SWIDTH 645 0
DWIDTH 31 0
BBX 27 38 2 0
BITMAP
00802000
01C07000
01E07800
01C07000
01C07000
01004000
00000000
00000000
FFC07FE0
7F803FC0
1E000F00
1E000F00
1E000F00
1E000F00
1E000F00
1E000F00
1E000F00
1E000F00
1E000F00
1E000F00
1E000F00
1E000F00
1FFFFF00
1FFFFF00
1E000F00
1E000F00
1E000F00
1E000F00
1E000F00
1E000F00
1E000F00
1E000F00
1E000F00
1E000F00
1E000F00
1E000F00
7F001FC0
FFC07FE0
ENDCHAR
STARTCHAR 1E27
ENCODING 7719
SWIDTH 541 0
DWIDTH 26 0
BBX 23 43 2 0
BITMAP
0701C0
0781E0
0781E0
0701C0
060180
000000
000000
060000
7E0000
FE0000
3E0000
1E0000
1E0000
1E0000
1E0000
1E0000
1E0000
1E0000
1E0000
1E0000
1E0000
1E0780
1C1FE0
1C31E0
1C60F0
1CC0F0
1D80F0
1F00F0
1F00F0
1E00F0
1E00F0
1E00F0
1E00F0
1E00F0
1E00F0
1E00F0
1E00F0
1E00F0
1E00F0
1E00F0
1E00F0
3F83F8
FFC7FE
ENDCHAR
STARTCHAR 1E2E
ENCODING 7726
SWIDTH 291 0
DWIDTH 14 0
BBX 15 48 0 0
BITMAP
0018
003C
007E
01F8
03E0
0780
1E00
1800
0000
0000
4010
701C
F03C
F03C
E038
4010
0000
0000
3FF0
1FE0
0780
0780
0780
0780
0780
0780
0780
0780
0780
0780
0780
0780
0780
0780
0780
0780
0780
0780
0780
0780
0780
0780
0780
0780
0780
0780
1FE0
3FF0
ENDCHAR
STARTCHAR 1E2F
ENCODING 7727
SWIDTH 270 0
DWIDTH 13 0
BBX 14 43 0 0
BITMAP
0078
007C
00F0
01E0
01C0
03C0
0380
0700
0600
0C00
0000
6018
F03C
F03C
E038
E038
0000
0000
0000
0000
0000
0180
1F80
3F80
0F80
0780
0780
0780
0780
0780
0780
0780
0780
0780
0780
0780
0780
0780
0780
0780
0780
0FC0
3FF0
ENDCHAR
STARTCHAR 1E30
ENCODING 7728
SWIDTH 583 0
DWIDTH 28 0
BBX 26 41 1 0
BITMAP
00004000
0000F000
0001F800
0003F000
0007C000
001F0000
003C0000
00700000
00400000
00000000
00000000
FFC1FF80
7F807C00
1E007800
1E00F000
1E01E000
1E01C000
1E038000
1E070000
1E0E0000
1E1C0000
1E380000
1E780000
1E700000
1EE00000
1FE00000
1EF00000
1E780000
1E7C0000
1E3E0000
1E1E0000
1E0F0000
1E078000
1E07C000
1E03E000
1E01F000
1E00F800
1E007C00
1E007E00
7F803FC0
FFC01F00
ENDCHAR
STARTCHAR 1E31
ENCODING 7729
SWIDTH 500 0
DWIDTH 24 0
BBX 23 46 1 0
BITMAP
0001C0
0003E0
0007F0
000F80
003E00
007800
00E000
018000
000000
000000
060000
7E0000
FE0000
3E0000
1E0000
1E0000
1E0000
1E0000
1E0000
1E0000
1E0000
1E0000
1E0000
1E0000
1E07FC
1E01F0
1E01C0
1E0380
1E0700
1E0E00
1E3800
1E7000
1EE000
1FE000
1EF000
1EF800
1E7800
1E3C00
1E1E00
1E0F00
1E0F80
1E07C0
1E03E0
1E01E0
3F00FE
FFC07C
ENDCHAR
STARTCHAR 1E32
ENCODING 7730
SWIDTH 583 0
DWIDTH 28 0
BBX 26 40 1 -10
BITMAP
FFC1FF80
7F807C00
1E007800
1E00F000
1E01E000
1E01C000
1E038000
1E070000
1E0E0000
1E1C0000
1E380000
1E780000
1E700000
1EE00000
1FE00000
1EF00000
1E780000
1E7C0000
1E3E0000
1E1E0000
1E0F0000
1E078000
1E07C000
1E03E000
1E01F000
1E00F800
1E007C00
1E007E00
7F803FC0
FFC01F00
00000000
00000000
00000000
00000000
00000000
000E0000
000E0000
001E0000
001E0000
000C0000
ENDCHAR
STARTCHAR 1E33
ENCODING 7731
SWIDTH 500 0
DWIDTH 24 0
BBX 23 46 1 -10
BITMAP
060000
7E0000
FE0000
3E0000
1E0000
1E0000
1E0000
1E0000
1E0000
1E0000
1E0000
1E0000
1E0000
1E0000
1E07FC
1E01F0
1E01C0
1E0380
1E0700
1E0E00
1E3800
1E7000
1EE000
1FE000
1EF000
1EF800
1E7800
1E3C00
1E1E00
1E0F00
1E0F80
1E07C0
1E03E0
1E01E0
3F00FE
FFC07C
000000
000000
000000
000000
000000
001800
003C00
003C00
003800
003800
ENDCHAR
STARTCHAR 1E34
ENCODING 7732
SWIDTH 583 0
DWIDTH 28 0
BBX 26 38 1 -8
BITMAP
FFC1FF80
7F807C00
1E007800
1E00F000
1E01E000
1E01C000
1E038000
1E070000
1E0E0000
1E1C0000
1E380000
1E780000
1E700000
1EE00000
1FE00000
1EF00000
1E780000
1E7C0000
1E3E0000
1E1E0000
1E0F0000
1E078000
1E07C000
1E03E000
1E01F000
1E00F800
1E007C00
1E007E00
7F803FC0
FFC01F00
00000000
00000000
00000000
00000000
00000000
00000000
03FFF800
07FFF800
ENDCHAR
STARTCHAR 1E35
ENCODING 7733
SWIDTH 500 0
DWIDTH 24 0
BBX 23 44 1 -8
BITMAP
060000
7E0000
FE0000
3E0000
1E0000
1E0000
1E0000
1E0000
1E0000
1E0000
1E0000
1E0000
1E0000
1E0000
1E07FC
1E01F0
1E01C0
1E0380
1E0700
1E0E00
1E3800
1E7000
1EE000
1FE000
1EF000
1EF800
1E7800
1E3C00
1E1E00
1E0F00
1E0F80
1E07C0
1E03E0
1E01E0
3F00FE
FFC07C
000000
000000
000000
000000
000000
000000
0FFFF0
0FFFE0
ENDCHAR
STARTCHAR 1E36
ENCODING 7734
SWIDTH 479 0
DWIDTH 23 0
BBX 21 40 1 -10
BITMAP
FFC000
7F8000
1E0000
1E0000
1E0000
1E0000
1E0000
1E0000
1E0000
1E0000
1E0000
1E0000
1E0000
1E0000
1E0000
1E0000
1E0000
1E0000
1E0000
1E0000
1E0000
1E0000
1E0000
1E0000
1E0008
1E0018
1E0018
1F0030
7FFFF0
FFFFF0
000000
000000
000000
000000
000000
003000
007800
007800
007000
007000
ENDCHAR
STARTCHAR 1E37
ENCODING 7735
SWIDTH 270 0
DWIDTH 13 0
BBX 12 46 1 -10
BITMAP
0300
3F00
7F00
1F00
0F00
0F00
0F00
0F00
0F00
0F00
0F00
0F00
0F00
0F00
0F00
0F00
0F00
0F00
0F00
0F00
0F00
0F00
0F00
0F00
0F00
0F00
0F00
0F00
0F00
0F00
0F00
0F00
0F00
0F00
1F80
FFF0
0000
0000
0000
0000
0000
0600
0F00
0F00
0E00
0E00
ENDCHAR
STARTCHAR 1E38
ENCODING 7736
SWIDTH 479 0
DWIDTH 23 0
BBX 21 48 1 -10
BITMAP
1FFFC0
1FFFC0
3FFF80
000000
000000
000000
000000
000000
FFC000
7F8000
1E0000
1E0000
1E0000
1E0000
1E0000
1E0000
1E0000
1E0000
1E0000
1E0000
1E0000
1E0000
1E0000
1E0000
1E0000
1E0000
1E0000
1E0000
1E0000
1E0000
1E0000
1E0000
1E0008
1E0018
1E0018
1F0030
7FFFF0
FFFFF0
000000
000000
000000
000000
000000
003000
007800
007800
007000
007000
ENDCHAR
STARTCHAR 1E39
ENCODING 7737
SWIDTH 270 0
DWIDTH 13 0
BBX 16 55 -1 -10
BITMAP
7FFF
FFFE
0000
0000
0000
0000
0000
0000
0000
00C0
0FC0
1FC0
07C0
03C0
03C0
03C0
03C0
03C0
03C0
03C0
03C0
03C0
03C0
03C0
03C0
03C0
03C0
03C0
03C0
03C0
03C0
03C0
03C0
03C0
03C0
03C0
03C0
03C0
03C0
03C0
03C0
03C0
03C0
07E0
3FFC
0000
0000
0000
0000
0000
0180
03C0
03C0
0380
0380
ENDCHAR
STARTCHAR 1E3A
ENCODING 7738
SWIDTH 479 0
DWIDTH 23 0
BBX 21 38 1 -8
BITMAP
FFC000
7F8000
1E0000
1E0000
1E0000
1E0000
1E0000
1E0000
1E0000
1E0000
1E0000
1E0000
1E0000
1E0000
1E0000
1E0000
1E0000
1E0000
1E0000
1E0000
1E0000
1E0000
1E0000
1E0000
1E0008
1E0018
1E0018
1F0030
7FFFF0
FFFFF0
000000
000000
000000
000000
000000
000000
1FFFE0
1FFFC0
ENDCHAR
STARTCHAR 1E3B
ENCODING 7739
SWIDTH 270 0
DWIDTH 13 0
BBX 16 44 -1 -8
BITMAP
00C0
0FC0
1FC0
07C0
03C0
03C0
03C0
03C0
03C0
03C0
03C0
03C0
03C0
03C0
03C0
03C0
03C0
03C0
03C0
03C0
03C0
03C0
03C0
03C0
03C0
03C0
03C0
03C0
03C0
03C0
03C0
03C0
03C0
03C0
07E0
3FFC
0000
0000
0000
0000
0000
0000
FFFF
FFFE
ENDCHAR
STARTCHAR 1E3E
ENCODING 7742
SWIDTH 812 0
DWIDTH 39 0
BBX 36 41 1 0
BITMAP
0000020000
0000038000
00000FC000
00001F8000
00003E0000
0000780000
0001E00000
0003800000
0002000000
0000000000
0000000000
7F00000FE0
1F80001F80
0F80001F00
0F80003F00
0FC0003F00
0FC0003700
0FE0007700
0EE0007700
0EF000E700
0EF000E700
0E7800C700
0E7801C700
0E3801C700
0E3C038700
0E1C038700
0E1E070700
0E1E070700
0E0F060700
0E0F0E0700
0E070E0700
0E079C0700
0E039C0700
0E03D80700
0E03F80700
0E01F80700
0E01F00700
0E00F00700
0E00E00700
3F00E01FC0
FFC0607FF0
ENDCHAR
STARTCHAR 1E3F
ENCODING 7743
SWIDTH 812 0
DWIDTH 39 0
BBX 36 35 2 0
BITMAP
00000F0000
00000F8000
00001F0000
00001E0000
00003C0000
0000780000
0000700000
0000E00000
0000C00000
0001800000
0000000000
0000000000
0000000000
0C07C07C00
FE1FE0FF00
3E31E38F00
1E60F70780
1EC0FE0780
1F80FC0780
1F00F80780
1F00F80780
1E00F00780
1E00F00780
1E00F00780
1E00F00780
1E00F00780
1E00F00780
1E00F00780
1E00F00780
1E00F00780
1E00F00780
1E00F00780
1E00F00780
7F83FC1FC0
FFC7FE3FF0
ENDCHAR
STARTCHAR 1E40
ENCODING 7744
SWIDTH 812 0
DWIDTH 39 0
BBX 36 38 1 0
BITMAP
0000400000
0000700000
0000F00000
0000F00000
0000F00000
0000400000
0000000000
0000000000
7F00000FE0
1F80001F80
0F80001F00
0F80003F00
0FC0003F00
0FC0003700
0FE0007700
0EE0007700
0EF000E700
0EF000E700
0E7800C700
0E7801C700
0E3801C700
0E3C038700
0E1C038700
0E1E070700
0E1E070700
0E0F060700
0E0F0E0700
0E070E0700
0E079C0700
0E039C0700
0E03D80700
0E03F80700
0E01F80700
0E01F00700
0E00F00700
0E00E00700
3F00E01FC0
FFC0607FF0
ENDCHAR
STARTCHAR 1E41
ENCODING 7745
SWIDTH 812 0
DWIDTH 39 0
BBX 36 32 2 0
BITMAP
0000600000
0000F00000
0000F00000
0000E00000
0000E00000
0000000000
0000000000
0000000000
0000000000
0000000000
0C07C07C00
FE1FE0FF00
3E31E38F00
1E60F70780
1EC0FE0780
1F80FC0780
1F00F80780
1F00F80780
1E00F00780
1E00F00780
1E00F00780
1E00F00780
1E00F00780
1E00F00780
1E00F00780
1E00F00780
1E00F00780
1E00F00780
1E00F00780
1E00F00780
7F83FC1FC0
FFC7FE3FF0
ENDCHAR
STARTCHAR 1E42
ENCODING 7746
SWIDTH 812 0
DWIDTH 39 0
BBX 36 40 1 -10
BITMAP
7F00000FE0
1F80001F80
0F80001F00
0F80003F00
0FC0003F00
0FC0003700
0FE0007700
0EE0007700
0EF000E700
0EF000E700
0E7800C700
0E7801C700
0E3801C700
0E3C038700
0E1C038700
0E1E070700
0E1E070700
0E0F060700
0E0F0E0700
0E070E0700
0E079C0700
0E039C0700
0E03D80700
0E03F80700
0E01F80700
0E01F00700
0E00F00700
0E00E00700
3F00E01FC0
FFC0607FF0
0000000000
0000000000
0000000000
0000000000
0000000000
0000700000
0000F00000
0000F00000
0000F00000
0000600000
ENDCHAR
STARTCHAR 1E43
ENCODING 7747
SWIDTH 812 0
DWIDTH 39 0
BBX 36 32 2 -10
BITMAP
0C07C07C00
FE1FE0FF00
3E31E38F00
1E60F70780
1EC0FE0780
1F80FC0780
1F00F80780
1F00F80780
1E00F00780
1E00F00780
1E00F00780
1E00F00780
1E00F00780
1E00F00780
1E00F00780
1E00F00780
1E00F00780
1E00F00780
1E00F00780
1E00F00780
7F83FC1FC0
FFC7FE3FF0
0000000000
0000000000
0000000000
0000000000
0000000000
0000600000
0000F00000
0000F00000
0000E00000
0000E00000
ENDCHAR
STARTCHAR 1E44
ENCODING 7748
SWIDTH 645 0
DWIDTH 31 0
BBX 27 38 2 0
BITMAP
00040000
000E0000
000F0000
000F0000
000E0000
00080000
00000000
00000000
FC003FE0
7C000F80
1E000700
1F000700
1F000700
1F800700
1FC00700
1DC00700
1CE00700
1CF00700
1C780700
1C380700
1C3C0700
1C1E0700
1C0E0700
1C0F0700
1C078700
1C078700
1C03C700
1C01E700
1C01E700
1C00F700
1C007F00
1C007F00
1C003F00
1C001F00
1C001F00
1C000F00
3E000700
FF800300
ENDCHAR
STARTCHAR 1E45
ENCODING 7749
SWIDTH 541 0
DWIDTH 26 0
BBX 23 32 2 0
BITMAP
001800
003C00
003C00
003800
003800
000000
000000
000000
000000
000000
0C07C0
FE0FE0
3E31E0
1E60F0
1EC0F0
1E80F0
1F00F0
1F00F0
1E00F0
1E00F0
1E00F0
1E00F0
1E00F0
1E00F0
1E00F0
1E00F0
1E00F0
1E00F0
1E00F0
1E00F0
7F83F8
FFC7FE
ENDCHAR
STARTCHAR 1E46
ENCODING 7750
SWIDTH 645 0
DWIDTH 31 0
BBX 27 40 2 -10
BITMAP
FC003FE0
7C000F80
1E000700
1F000700
1F000700
1F800700
1FC00700
1DC00700
1CE00700
1CF00700
1C780700
1C380700
1C3C0700
1C1E0700
1C0E0700
1C0F0700
1C078700
1C078700
1C03C700
1C01E700
1C01E700
1C00F700
1C007F00
1C007F00
1C003F00
1C001F00
1C001F00
1C000F00
3E000700
FF800300
00000000
00000000
00000000
00000000
00000000
00060000
000F0000
000F0000
000E0000
000E0000
ENDCHAR
STARTCHAR 1E47
ENCODING 7751
SWIDTH 541 0
DWIDTH 26 0
BBX 23 32 2 -10
BITMAP
0C07C0
FE0FE0
3E31E0
1E60F0
1EC0F0
1E80F0
1F00F0
1F00F0
1E00F0
1E00F0
1E00F0
1E00F0
1E00F0
1E00F0
1E00F0
1E00F0
1E00F0
1E00F0
1E00F0
1E00F0
7F83F8
FFC7FE
000000
000000
000000
000000
000000
001800
003C00
003C00
003800
003800
ENDCHAR
STARTCHAR 1E48
ENCODING 7752
SWIDTH 645 0
DWIDTH 31 0
BBX 27 38 2 -8
BITMAP
FC003FE0
7C000F80
1E000700
1F000700
1F000700
1F800700
1FC00700
1DC00700
1CE00700
1CF00700
1C780700
1C380700
1C3C0700
1C1E0700
1C0E0700
1C0F0700
1C078700
1C078700
1C03C700
1C01E700
1C01E700
1C00F700
1C007F00
1C007F00
1C003F00
1C001F00
1C001F00
1C000F00
3E000700
FF800300
00000000
00000000
00000000
00000000
00000000
00000000
03FFFC00
03FFF800
ENDCHAR
STARTCHAR 1E49
ENCODING 7753
SWIDTH 541 0
DWIDTH 26 0
BBX 23 30 2 -8
BITMAP
0C07C0
FE0FE0
3E31E0
1E60F0
1EC0F0
1E80F0
1F00F0
1F00F0
1E00F0
1E00F0
1E00F0
1E00F0
1E00F0
1E00F0
1E00F0
1E00F0
1E00F0
1E00F0
1E00F0
1E00F0
7F83F8
FFC7FE
000000
000000
000000
000000
000000
000000
0FFFE0
0FFFE0
ENDCHAR
STARTCHAR 1E4C
ENCODING 7756
SWIDTH 604 0
DWIDTH 29 0
BBX 25 48 2 0
BITMAP
00004000
0001F000
0003F000
0007E000
001F0000
003C0000
00700000
00C00000
00000000
00402000
01F83000
03FC3000
03FFE000
061FC000
040F8000
0C020000
00000000
00000000
003F0000
00FFE000
03C1F000
0700F800
0E007C00
1C003E00
3C001E00
38001F00
78000F00
78000F00
70000F80
F0000780
F0000780
F0000780
F0000780
F0000780
F0000780
F0000780
F0000780
F8000700
78000F00
78000F00
7C000E00
3C001C00
3E001C00
1F003800
0F807000
07C1E000
03FF8000
00FE0000
ENDCHAR
STARTCHAR 1E4D
ENCODING 7757
SWIDTH 500 0
DWIDTH 24 0
BBX 20 43 2 0
BITMAP
000780
0007C0
000F00
001E00
001C00
003800
003000
006000
00E000
004000
000000
03C040
07E060
0FF0C0
0FF980
1C7F00
101E00
000000
000000
000000
000000
00FC00
07FF00
0E0F80
1C07C0
3803C0
3803E0
7001E0
7001F0
F000F0
F000F0
F000F0
F000F0
F000F0
F000F0
F800E0
7801E0
7C01C0
3C01C0
3E0380
1F0700
0FFE00
03F000
ENDCHAR
STARTCHAR 1E4E
ENCODING 7758
SWIDTH 604 0
DWIDTH 29 0
BBX 25 45 2 0
BITMAP
0380E000
0380E000
0781E000
0380E000
0300C000
00000000
00402000
01F83000
03FC3000
03FFE000
061FC000
040F8000
0C020000
00000000
00000000
003F0000
00FFE000
03C1F000
0700F800
0E007C00
1C003E00
3C001E00
38001F00
78000F00
78000F00
70000F80
F0000780
F0000780
F0000780
F0000780
F0000780
F0000780
F0000780
F0000780
F8000700
78000F00
78000F00
7C000E00
3C001C00
3E001C00
1F003800
0F807000
07C1E000
03FF8000
00FE0000
ENDCHAR
STARTCHAR 1E4F
ENCODING 7759
SWIDTH 500 0
DWIDTH 24 0
BBX 20 40 2 0
BITMAP
0E0380
0F03C0
0F03C0
0E0380
040100
000000
000000
000000
03C040
07E060
0FF0C0
0FF980
1C7F00
101E00
000000
000000
000000
000000
00FC00
07FF00
0E0F80
1C07C0
3803C0
3803E0
7001E0
7001F0
F000F0
F000F0
F000F0
F000F0
F000F0
F000F0
F800E0
7801E0
7C01C0
3C01C0
3E0380
1F0700
0FFE00
03F000
ENDCHAR
STARTCHAR 1E50
ENCODING 7760
SWIDTH 604 0
DWIDTH 29 0
BBX 25 48 2 0
BITMAP
01000000
07800000
07E00000
03F00000
00F80000
003E0000
000F0000
00038000
00000000
00000000
03FFF000
07FFF800
07FFF000
00000000
00000000
00000000
00000000
00000000
003F0000
00FFE000
03C1F000
0700F800
0E007C00
1C003E00
3C001E00
38001F00
78000F00
78000F00
70000F80
F0000780
F0000780
F0000780
F0000780
F0000780
F0000780
F0000780
F0000780
F8000700
78000F00
78000F00
7C000E00
3C001C00
3E001C00
1F003800
0F807000
07C1E000
03FF8000
00FE0000
ENDCHAR
STARTCHAR 1E51
ENCODING 7761
SWIDTH 500 0
DWIDTH 24 0
BBX 20 43 2 0
BITMAP
0F0000
0F8000
078000
03C000
01E000
00E000
007000
003000
001800
001000
000000
000000
000000
1FFFE0
1FFFC0
000000
000000
000000
000000
000000
000000
00FC00
07FF00
0E0F80
1C07C0
3803C0
3803E0
7001E0
7001F0
F000F0
F000F0
F000F0
F000F0
F000F0
F000F0
F800E0
7801E0
7C01C0
3C01C0
3E0380
1F0700
0FFE00
03F000
ENDCHAR
STARTCHAR 1E52
ENCODING 7762
SWIDTH 604 0
DWIDTH 29 0
BBX 25 48 2 0
BITMAP
00004000
0001F000
0003F000
0007E000
001F0000
003C0000
00700000
00C00000
00000000
00000000
03FFF000
07FFF800
07FFF000
00000000
00000000
00000000
00000000
00000000
003F0000
00FFE000
03C1F000
0700F800
0E007C00
1C003E00
3C001E00
38001F00
78000F00
78000F00
70000F80
F0000780
F0000780
F0000780
F0000780
F0000780
F0000780
F0000780
F0000780
F8000700
78000F00
78000F00
7C000E00
3C001C00
3E001C00
1F003800
0F807000
07C1E000
03FF8000
00FE0000
ENDCHAR
STARTCHAR 1E53
ENCODING 7763
SWIDTH 500 0
DWIDTH 24 0
BBX 20 43 2 0
BITMAP
000780
0007C0
000F00
001E00
001C00
003800
003000
006000
00E000
004000
000000
000000
000000
1FFFE0
1FFFC0
000000
000000
000000
000000
000000
000000
00FC00
07FF00
0E0F80
1C07C0
3803C0
3803E0
7001E0
7001F0
F000F0
F000F0
F000F0
F000F0
F000F0
F000F0
F800E0
7801E0
7C01C0
3C01C0
3E0380
1F0700
0FFE00
03F000
ENDCHAR
STARTCHAR 1E54
ENCODING 7764
SWIDTH 520 0
DWIDTH 25 0
BBX 22 41 1 0
BITMAP
000100
0001C0
0007E0
000FC0
001F00
007C00
00F000
01C000
010000
000000
000000
07FE00
FFFFC0
6F07E0
0F01F0
0F00F8
0F007C
0F003C
0F003C
0F003C
0F003C
0F003C
0F003C
0F0078
0F0078
0F00F0
0F83E0
0F7FC0
0F3E00
0F0000
0F0000
0F0000
0F0000
0F0000
0F0000
0F0000
0F0000
0F0000
0F0000
3FC000
7FF000
ENDCHAR
STARTCHAR 1E55
ENCODING 7765
SWIDTH 520 0
DWIDTH 25 0
BBX 21 46 2 -11
BITMAP
000780
000780
000F00
001F00
001E00
003C00
003800
007000
006000
00C000
000000
000000
000000
0C0780
FE1FC0
3E23E0
1E41F0
1E81F0
1F00F0
1F00F8
1E00F8
1E0078
1E0078
1E0078
1E0078
1E0078
1E0078
1E0070
1E0070
1E00E0
1E00E0
1F01C0
1FC380
1EFF00
1E3E00
1E0000
1E0000
1E0000
1E0000
1E0000
1E0000
1E0000
1E0000
1E0000
7F0000
FFE000
ENDCHAR
STARTCHAR 1E56
ENCODING 7766
SWIDTH 520 0
DWIDTH 25 0
BBX 22 38 1 0
BITMAP
002000
003800
007800
007800
007000
002000
000000
000000
07FE00
FFFFC0
6F07E0
0F01F0
0F00F8
0F007C
0F003C
0F003C
0F003C
0F003C
0F003C
0F003C
0F0078
0F0078
0F00F0
0F83E0
0F7FC0
0F3E00
0F0000
0F0000
0F0000
0F0000
0F0000
0F0000
0F0000
0F0000
0F0000
0F0000
3FC000
7FF000
ENDCHAR
STARTCHAR 1E57
ENCODING 7767
SWIDTH 520 0
DWIDTH 25 0
BBX 21 43 2 -11
BITMAP
007000
007000
00F000
00F000
006000
000000
000000
000000
000000
000000
0C0780
FE1FC0
3E23E0
1E41F0
1E81F0
1F00F0
1F00F8
1E00F8
1E0078
1E0078
1E0078
1E0078
1E0078
1E0078
1E0070
1E0070
1E00E0
1E00E0
1F01C0
1FC380
1EFF00
1E3E00
1E0000
1E0000
1E0000
1E0000
1E0000
1E0000
1E0000
1E0000
1E0000
7F0000
FFE000
ENDCHAR
STARTCHAR 1E58
ENCODING 7768
SWIDTH 562 0
DWIDTH 27 0
BBX 26 38 1 0
BITMAP
00100000
00380000
00780000
00780000
00780000
00200000
00000000
00000000
07FE0000
FFFFC000
6F07E000
0F01F000
0F00F000
0F007800
0F007800
0F007800
0F007800
0F007800
0F007000
0F00F000
0F01E000
0F03C000
0FFF0000
0FFE0000
0F0E0000
0F070000
0F078000
0F038000
0F03C000
0F01C000
0F01E000
0F00F000
0F00F000
0F007800
0F007C00
0F003E00
3FC03FC0
7FE01F00
ENDCHAR
STARTCHAR 1E59
ENCODING 7769
SWIDTH 395 0
DWIDTH 19 0
BBX 17 32 1 0
BITMAP
006000
00F000
00F000
00E000
00E000
000000
000000
000000
000000
000000
040F00
7E3F80
FE7F80
1EE380
1EC380
1F8100
1F8000
1F0000
1F0000
1E0000
1E0000
1E0000
1E0000
1E0000
1E0000
1E0000
1E0000
1E0000
1E0000
1E0000
3F8000
FFE000
ENDCHAR
STARTCHAR 1E5A
ENCODING 7770
SWIDTH 562 0
DWIDTH 27 0
BBX 26 40 1 -10
BITMAP
07FE0000
FFFFC000
6F07E000
0F01F000
0F00F000
0F007800
0F007800
0F007800
0F007800
0F007800
0F007000
0F00F000
0F01E000
0F03C000
0FFF0000
0FFE0000
0F0E0000
0F070000
0F078000
0F038000
0F03C000
0F01C000
0F01E000
0F00F000
0F00F000
0F007800
0F007C00
0F003E00
3FC03FC0
7FE01F00
00000000
00000000
00000000
00000000
00000000
00380000
00380000
00780000
00780000
00300000
ENDCHAR
STARTCHAR 1E5B
ENCODING 7771
SWIDTH 395 0
DWIDTH 19 0
BBX 17 32 1 -10
BITMAP
040F00
7E3F80
FE7F80
1EE380
1EC380
1F8100
1F8000
1F0000
1F0000
1E0000
1E0000
1E0000
1E0000
1E0000
1E0000
1E0000
1E0000
1E0000
1E0000
1E0000
3F8000
FFE000
000000
000000
000000
000000
000000
0E0000
0E0000
1E0000
1E0000
0C0000
ENDCHAR
STARTCHAR 1E5C
ENCODING 7772
SWIDTH 562 0
DWIDTH 27 0
BBX 26 48 1 -10
BITMAP
0FFFE000
0FFFE000
1FFFC000
00000000
00000000
00000000
00000000
00000000
07FE0000
FFFFC000
6F07E000
0F01F000
0F00F000
0F007800
0F007800
0F007800
0F007800
0F007800
0F007000
0F00F000
0F01E000
0F03C000
0FFF0000
0FFE0000
0F0E0000
0F070000
0F078000
0F038000
0F03C000
0F01C000
0F01E000
0F00F000
0F00F000
0F007800
0F007C00
0F003E00
3FC03FC0
7FE01F00
00000000
00000000
00000000
00000000
00000000
00380000
00380000
00780000
00780000
00300000
ENDCHAR
STARTCHAR 1E5D
ENCODING 7773
SWIDTH 395 0
DWIDTH 19 0
BBX 18 40 1 -10
BITMAP
3FFFC0
3FFF80
000000
000000
000000
000000
000000
000000
040F00
7E3F80
FE7F80
1EE380
1EC380
1F8100
1F8000
1F0000
1F0000
1E0000
1E0000
1E0000
1E0000
1E0000
1E0000
1E0000
1E0000
1E0000
1E0000
1E0000
3F8000
FFE000
000000
000000
000000
000000
000000
0E0000
0E0000
1E0000
1E0000
0C0000
ENDCHAR
STARTCHAR 1E5E
ENCODING 7774
SWIDTH 562 0
DWIDTH 27 0
BBX 26 38 1 -8
BITMAP
07FE0000
FFFFC000
6F07E000
0F01F000
0F00F000
0F007800
0F007800
0F007800
0F007800
0F007800
0F007000
0F00F000
0F01E000
0F03C000
0FFF0000
0FFE0000
0F0E0000
0F070000
0F078000
0F038000
0F03C000
0F01C000
0F01E000
0F00F000
0F00F000
0F007800
0F007C00
0F003E00
3FC03FC0
7FE01F00
00000000
00000000
00000000
00000000
00000000
00000000
0FFFE000
1FFFE000
ENDCHAR
STARTCHAR 1E5F
ENCODING 7775
SWIDTH 395 0
DWIDTH 19 0
BBX 20 30 -2 -8
BITMAP
0081E0
0FC7F0
1FCFF0
03DC70
03D870
03F020
03F000
03E000
03E000
03C000
03C000
03C000
03C000
03C000
03C000
03C000
03C000
03C000
03C000
03C000
07F000
1FFC00
000000
000000
000000
000000
000000
000000
7FFF00
FFFF00
ENDCHAR
STARTCHAR 1E60
ENCODING 7776
SWIDTH 479 0
DWIDTH 23 0
BBX 18 38 3 0
BITMAP
008000
01E000
01E000
01E000
01C000
010000
000000
000000
03F800
1FFE00
3C3F00
780E00
700400
F00000
F00000
F00000
F80000
FC0000
7F0000
7FC000
3FF000
1FF800
07FE00
01FF00
007F80
001F80
000FC0
0007C0
0003C0
0003C0
0003C0
800380
C00380
E00700
F00F00
FC3E00
FFF800
0FE000
ENDCHAR
STARTCHAR 1E61
ENCODING 7777
SWIDTH 395 0
DWIDTH 19 0
BBX 15 32 2 0
BITMAP
0380
0380
0780
0780
0300
0000
0000
0000
0000
0000
0FC0
3FF8
7878
7038
F010
F000
F800
FC00
7F00
3FC0
1FF0
07F8
01FC
007E
003E
801E
801E
C01E
E03C
F078
FFF0
1FC0
ENDCHAR
STARTCHAR 1E62
ENCODING 7778
SWIDTH 479 0
DWIDTH 23 0
BBX 18 40 3 -10
BITMAP
03F800
1FFE00
3C3F00
780E00
700400
F00000
F00000
F00000
F80000
FC0000
7F0000
7FC000
3FF000
1FF800
07FE00
01FF00
007F80
001F80
000FC0
0007C0
0003C0
0003C0
0003C0
800380
C00380
E00700
F00F00
FC3E00
FFF800
1FE000
000000
000000
000000
000000
000000
00C000
01E000
01E000
01E000
01C000
ENDCHAR
STARTCHAR 1E63
ENCODING 7779
SWIDTH 395 0
DWIDTH 19 0
BBX 15 32 2 -10
BITMAP
0FC0
3FF8
7878
7038
F010
F000
F800
FC00
7F00
3FC0
1FF0
07F8
01FC
007E
003E
801E
801E
C01E
E03C
F078
FFF0
1FC0
0000
0000
0000
0000
0000
0380
0380
0780
0780
0300
ENDCHAR
STARTCHAR 1E64
ENCODING 7780
SWIDTH 479 0
DWIDTH 23 0
BBX 18 45 3 0
BITMAP
00C000
01E000
01E000
01E000
01C400
000E00
001F00
003F80
00FC00
01F000
03C000
070000
040000
000000
000000
03F800
1FFE00
3C3F00
780E00
700400
F00000
F00000
F00000
F80000
FC0000
7F0000
7FC000
3FF000
1FF800
07FE00
01FF00
007F80
001F80
000FC0
0007C0
0003C0
0003C0
0003C0
800380
C00380
E00700
F00F00
FC3E00
FFF800
0FE000
ENDCHAR
STARTCHAR 1E65
ENCODING 7781
SWIDTH 395 0
DWIDTH 19 0
BBX 15 40 2 0
BITMAP
0380
0780
0780
0380
0200
003C
003C
0078
00F0
00E0
01E0
01C0
0380
0700
0600
0000
0000
0000
0FC0
3FF8
7878
7038
F010
F000
F800
FC00
7F00
3FC0
1FF0
07F8
01FC
007E
003E
801E
801E
C01E
E03C
F078
FFF0
1FC0
ENDCHAR
STARTCHAR 1E66
ENCODING 7782
SWIDTH 479 0
DWIDTH 23 0
BBX 18 45 3 0
BITMAP
00C000
01E000
01E000
01E000
41C200
700300
380600
1C1C00
0F3C00
07F800
03F000
01E000
01C000
000000
000000
03F800
1FFE00
3C3F00
780E00
700400
F00000
F00000
F00000
F80000
FC0000
7F0000
7FC000
3FF000
1FF800
07FE00
01FF00
007F80
001F80
000FC0
0007C0
0003C0
0003C0
0003C0
800380
C00380
E00700
F00F00
FC3E00
FFF800
0FE000
ENDCHAR
STARTCHAR 1E67
ENCODING 7783
SWIDTH 395 0
DWIDTH 19 0
BBX 15 40 2 0
BITMAP
0100
0380
0780
0780
0380
8204
E00E
701C
3838
3C70
1EF0
0FE0
0FC0
07C0
0380
0000
0000
0000
0FC0
3FF8
7878
7038
F010
F000
F800
FC00
7F00
3FC0
1FF0
07F8
01FC
007E
003E
801E
801E
C01E
E03C
F078
FFF0
1FC0
ENDCHAR
STARTCHAR 1E68
ENCODING 7784
SWIDTH 479 0
DWIDTH 23 0
BBX 18 48 3 -10
BITMAP
008000
01E000
01E000
01E000
01C000
010000
000000
000000
03F800
1FFE00
3C3F00
780E00
700400
F00000
F00000
F00000
F80000
FC0000
7F0000
7FC000
3FF000
1FF800
07FE00
01FF00
007F80
001F80
000FC0
0007C0
0003C0
0003C0
0003C0
800380
C00380
E00700
F00F00
FC3E00
FFF800
1FE000
000000
000000
000000
000000
000000
00C000
01E000
01E000
01E000
01C000
ENDCHAR
STARTCHAR 1E69
ENCODING 7785
SWIDTH 395 0
DWIDTH 19 0
BBX 15 42 2 -10
BITMAP
0380
0380
0780
0780
0300
0000
0000
0000
0000
0000
0FC0
3FF8
7878
7038
F010
F000
F800
FC00
7F00
3FC0
1FF0
07F8
01FC
007E
003E
801E
801E
C01E
E03C
F078
FFF0
1FC0
0000
0000
0000
0000
0000
0380
0380
0780
0780
0300
ENDCHAR
STARTCHAR 1E6A
ENCODING 7786
SWIDTH 541 0
DWIDTH 26 0
BBX 26 38 0 0
BITMAP
00080000
001E0000
001E0000
001E0000
001C0000
00080000
00000000
00000000
7FFFFFC0
7FFFFFC0
601E0180
C01E0180
C01E0180
801E0080
001E0000
001E0000
001E0000
001E0000
001E0000
001E0000
001E0000
001E0000
001E0000
001E0000
001E0000
001E0000
001E0000
001E0000
001E0000
001E0000
001E0000
001E0000
001E0000
001E0000
001E0000
001E0000
007F8000
01FFE000
ENDCHAR
STARTCHAR 1E6B
ENCODING 7787
SWIDTH 354 0
DWIDTH 17 0
BBX 16 38 0 0
BITMAP
01C0
03C0
03C0
03C0
0180
0000
0000
0000
0300
0700
0F00
0F00
0F00
0F00
0F00
0F00
3FFF
FFFF
0F04
0F00
0F00
0F00
0F00
0F00
0F00
0F00
0F00
0F00
0F00
0F00
0F00
0F00
0F00
0F00
0F01
0787
07FE
03F0
ENDCHAR
STARTCHAR 1E6C
ENCODING 7788
SWIDTH 541 0
DWIDTH 26 0
BBX 26 40 0 -10
BITMAP
7FFFFFC0
7FFFFFC0
601E0180
C01E0180
C01E0180
801E0080
001E0000
001E0000
001E0000
001E0000
001E0000
001E0000
001E0000
001E0000
001E0000
001E0000
001E0000
001E0000
001E0000
001E0000
001E0000
001E0000
001E0000
001E0000
001E0000
001E0000
001E0000
001E0000
007F8000
01FFE000
00000000
00000000
00000000
00000000
00000000
000C0000
001E0000
001E0000
001E0000
001C0000
ENDCHAR
STARTCHAR 1E6D
ENCODING 7789
SWIDTH 354 0
DWIDTH 17 0
BBX 16 40 0 -10
BITMAP
0300
0700
0F00
0F00
0F00
0F00
0F00
0F00
3FFF
FFFF
0F04
0F00
0F00
0F00
0F00
0F00
0F00
0F00
0F00
0F00
0F00
0F00
0F00
0F00
0F00
0F00
0F01
0787
07FE
03F0
0000
0000
0000
0000
0000
01C0
01C0
03C0
03C0
0180
ENDCHAR
STARTCHAR 1E6E
ENCODING 7790
SWIDTH 541 0
DWIDTH 26 0
BBX 26 38 0 -8
BITMAP
7FFFFFC0
7FFFFFC0
601E0180
C01E0180
C01E0180
801E0080
001E0000
001E0000
001E0000
001E0000
001E0000
001E0000
001E0000
001E0000
001E0000
001E0000
001E0000
001E0000
001E0000
001E0000
001E0000
001E0000
001E0000
001E0000
001E0000
001E0000
001E0000
001E0000
007F8000
01FFE000
00000000
00000000
00000000
00000000
00000000
00000000
07FFF800
07FFF000
ENDCHAR
STARTCHAR 1E6F
ENCODING 7791
SWIDTH 354 0
DWIDTH 17 0
BBX 16 38 0 -8
BITMAP
0300
0700
0F00
0F00
0F00
0F00
0F00
0F00
3FFF
FFFF
0F04
0F00
0F00
0F00
0F00
0F00
0F00
0F00
0F00
0F00
0F00
0F00
0F00
0F00
0F00
0F00
0F01
0787
07FE
03F0
0000
0000
0000
0000
0000
0000
7FFF
FFFE
ENDCHAR
STARTCHAR 1E78
ENCODING 7800
SWIDTH 645 0
DWIDTH 31 0
BBX 27 48 2 0
BITMAP
00003000
00007800
0000FC00
0003F000
0007C000
000F0000
003C0000
00300000
00000000
00200800
007C0C00
00FE1800
01FFF800
0187F000
0303E000
02010000
00000000
00000000
FFC07FE0
7F803FC0
1E000F00
1E000F00
1E000F00
1E000F00
1E000F00
1E000F00
1E000F00
1E000F00
1E000F00
1E000F00
1E000F00
1E000F00
1E000F00
1E000F00
1E000F00
1E000F00
1E000F00
1E000F00
1E000F00
1E000F00
1E001E00
0F001E00
0F001E00
07803C00
07C07800
03E0F000
01FFE000
003F8000
ENDCHAR
STARTCHAR 1E79
ENCODING 7801
SWIDTH 520 0
DWIDTH 25 0
BBX 24 43 1 0
BITMAP
0003E0
0003C0
000780
000700
000F00
001E00
001C00
003800
003000
006000
000000
00E030
03F020
07F860
07FCC0
0E3F80
0C0F00
000000
000000
000000
000000
060070
FE07F0
7E07F0
1E00F0
1E00F0
1E00F0
1E00F0
1E00F0
1E00F0
1E00F0
1E00F0
1E00F0
1E00F0
1E00F0
1E00F0
1E00F0
1E00F0
1E01F0
1F02F0
0F0CFF
0FF8FC
03E070
ENDCHAR
STARTCHAR 1E7A
ENCODING 7802
SWIDTH 645 0
DWIDTH 31 0
BBX 27 45 2 0
BITMAP
00C03000
01E07800
01E07800
01E07800
01C07000
00000000
00000000
01FFFC00
03FFFC00
01FFF800
00000000
00000000
00000000
00000000
00000000
FFC07FE0
7F803FC0
1E000F00
1E000F00
1E000F00
1E000F00
1E000F00
1E000F00
1E000F00
1E000F00
1E000F00
1E000F00
1E000F00
1E000F00
1E000F00
1E000F00
1E000F00
1E000F00
1E000F00
1E000F00
1E000F00
1E000F00
1E001E00
0F001E00
0F001E00
07803C00
07C07800
03E0F000
01FFE000
003F8000
ENDCHAR
STARTCHAR 1E7B
ENCODING 7803
SWIDTH 520 0
DWIDTH 25 0
BBX 24 40 1 0
BITMAP
0781E0
0781E0
0781E0
0701C0
020080
000000
000000
000000
000000
000000
07FFF0
0FFFE0
000000
000000
000000
000000
000000
000000
060070
FE07F0
7E07F0
1E00F0
1E00F0
1E00F0
1E00F0
1E00F0
1E00F0
1E00F0
1E00F0
1E00F0
1E00F0
1E00F0
1E00F0
1E00F0
1E00F0
1E01F0
1F02F0
0F0CFF
0FF8FC
03E070
ENDCHAR
STARTCHAR 1E7C
ENCODING 7804
SWIDTH 645 0
DWIDTH 31 0
BBX 30 39 0 0
BITMAP
00080400
001F0300
003F8600
007FFC00
00C3FC00
00C0F800
00804000
00000000
00000000
FFE00FFC
1F0001F0
0F0000E0
0F0001C0
070001C0
078001C0
07800380
03C00380
03C00380
03C00700
01E00700
01E00600
00E00E00
00F00E00
00F00C00
00781C00
00781C00
00783800
003C3800
003C3800
001C7000
001E7000
001E7000
000FE000
000FE000
000FE000
0007C000
0007C000
00038000
00030000
ENDCHAR
STARTCHAR 1E7D
ENCODING 7805
SWIDTH 500 0
DWIDTH 24 0
BBX 23 32 0 0
BITMAP
00F010
01F818
03FC30
03FE60
071FC0
040780
000000
000000
000000
000000
FFC0FE
3E003C
1E0038
1E0030
0F0070
0F0070
070060
0780E0
0780C0
03C1C0
03C1C0
01C180
01E380
01E300
00F300
00F700
007600
007E00
007E00
003C00
003C00
001000
ENDCHAR
STARTCHAR 1E7E
ENCODING 7806
SWIDTH 645 0
DWIDTH 31 0
BBX 30 40 0 -10
BITMAP
FFE00FFC
1F0001F0
0F0000E0
0F0001C0
070001C0
078001C0
07800380
03C00380
03C00380
03C00700
01E00700
01E00600
00E00E00
00F00E00
00F00C00
00781C00
00781C00
00783800
003C3800
003C3800
001C7000
001E7000
001E7000
000FE000
000FE000
000FE000
0007C000
0007C000
00038000
00030000
00000000
00000000
00000000
00000000
00000000
00038000
00038000
00078000
00078000
00030000
ENDCHAR
STARTCHAR 1E7F
ENCODING 7807
SWIDTH 500 0
DWIDTH 24 0
BBX 23 32 0 -10
BITMAP
FFC0FE
3E003C
1E0038
1E0030
0F0070
0F0070
070060
0780E0
0780C0
03C1C0
03C1C0
01C180
01E380
01E300
00F300
00F700
007600
007E00
007E00
003C00
003C00
001000
000000
000000
000000
000000
000000
001C00
003C00
003C00
003C00
001800
ENDCHAR
STARTCHAR 1E80
ENCODING 7808
SWIDTH 854 0
DWIDTH 41 0
BBX 40 41 0 0
BITMAP
0002000000
0007800000
000FC00000
0007E00000
0001F00000
00007C0000
00001E0000
0000070000
0000020000
0000000000
0000000000
FFE01803FF
3F001800FC
0E001C0030
0F003C0070
0F003C0070
0F003E0070
07007E0060
07007F00E0
07807F00E0
07806700E0
0780E780E0
0380E780C0
03C0C381C0
03C1C3C1C0
03C1C3C1C0
01C181C1C0
01C381E180
01E381E380
01E300E380
01E700F380
00E700F380
00F6007300
00FE007F00
00FE003F00
007C003F00
007C003E00
007C001E00
007C001E00
0078001E00
0030000800
ENDCHAR
STARTCHAR 1E81
ENCODING 7809
SWIDTH 708 0
DWIDTH 34 0
BBX 33 35 0 0
BITMAP
001E000000
001F000000
000F000000
0007800000
0003800000
0001C00000
0000E00000
0000600000
0000700000
0000300000
0000000000
0000000000
0000000000
FFC0603F80
3E00E00F00
1E00E00E00
1E00F00E00
0E01F00C00
0F01F00C00
0F01F81C00
0703F81C00
0703381800
07833C1800
03871C3800
03861E3000
03C61E3000
01CE0E7000
01CC0F6000
01FC0F6000
01FC076000
00F807E000
00F807C000
00F003C000
007003C000
0060030000
ENDCHAR
STARTCHAR 1E82
ENCODING 7810
SWIDTH 854 0
DWIDTH 41 0
BBX 40 41 0 0
BITMAP
0000008000
000000E000
000003F000
000007E000
00000F8000
00001E0000
0000780000
0000E00000
0000800000
0000000000
0000000000
FFE01803FF
3F001800FC
0E001C0030
0F003C0070
0F003C0070
0F003E0070
07007E0060
07007F00E0
07807F00E0
07806700E0
0780E780E0
0380E780C0
03C0C381C0
03C1C3C1C0
03C1C3C1C0
01C181C1C0
01C381E180
01E381E380
01E300E380
01E700F380
00E700F380
00F6007300
00FE007F00
00FE003F00
007C003F00
007C003E00
007C001E00
007C001E00
0078001E00
0030000800
ENDCHAR
STARTCHAR 1E83
ENCODING 7811
SWIDTH 708 0
DWIDTH 34 0
BBX 33 35 0 0
BITMAP
00000F0000
00000F8000
00001F0000
00001E0000
00003C0000
0000780000
0000700000
0000E00000
0000C00000
0001800000
0000000000
0000000000
0000000000
FFC0603F80
3E00E00F00
1E00E00E00
1E00F00E00
0E01F00C00
0F01F00C00
0F01F81C00
0703F81C00
0703381800
07833C1800
03871C3800
03861E3000
03C61E3000
01CE0E7000
01CC0F6000
01FC0F6000
01FC076000
00F807E000
00F807C000
00F003C000
007003C000
0060030000
ENDCHAR
STARTCHAR 1E84
ENCODING 7812
SWIDTH 854 0
DWIDTH 41 0
BBX 40 38 0 0
BITMAP
0001004000
000380E000
000781E000
000781E000
000781E000
0002008000
0000000000
0000000000
FFE01803FF
3F001800FC
0E001C0030
0F003C0070
0F003C0070
0F003E0070
07007E0060
07007F00E0
07807F00E0
07806700E0
0780E780E0
0380E780C0
03C0C381C0
03C1C3C1C0
03C1C3C1C0
01C181C1C0
01C381E180
01E381E380
01E300E380
01E700F380
00E700F380
00F6007300
00FE007F00
00FE003F00
007C003F00
007C003E00
007C001E00
007C001E00
0078001E00
0030000800
ENDCHAR
STARTCHAR 1E85
ENCODING 7813
SWIDTH 708 0
DWIDTH 34 0
BBX 33 32 0 0
BITMAP
000C030000
001E078000
001E078000
001C070000
001C070000
0000000000
0000000000
0000000000
0000000000
0000000000
FFC0603F80
3E00E00F00
1E00E00E00
1E00F00E00
0E01F00C00
0F01F00C00
0F01F81C00
0703F81C00
0703381800
07833C1800
03871C3800
03861E3000
03C61E3000
01CE0E7000
01CC0F6000
01FC0F6000
01FC076000
00F807E000
00F807C000
00F003C000
007003C000
0060030000
ENDCHAR
STARTCHAR 1E86
ENCODING 7814
SWIDTH 854 0
DWIDTH 41 0
BBX 40 38 0 0
BITMAP
0000080000
00001C0000
00003C0000
00003C0000
00003C0000
0000100000
0000000000
0000000000
FFE01803FF
3F001800FC
0E001C0030
0F003C0070
0F003C0070
0F003E0070
07007E0060
07007F00E0
07807F00E0
07806700E0
0780E780E0
0380E780C0
03C0C381C0
03C1C3C1C0
03C1C3C1C0
01C181C1C0
01C381E180
01E381E380
01E300E380
01E700F380
00E700F380
00F6007300
00FE007F00
00FE003F00
007C003F00
007C003E00
007C001E00
007C001E00
0078001E00
0030000800
ENDCHAR
STARTCHAR 1E87
ENCODING 7815
SWIDTH 708 0
DWIDTH 34 0
BBX 33 32 0 0
BITMAP
0000600000
0000F00000
0000F00000
0000E00000
0000E00000
0000000000
0000000000
0000000000
0000000000
0000000000
FFC0603F80
3E00E00F00
1E00E00E00
1E00F00E00
0E01F00C00
0F01F00C00
0F01F81C00
0703F81C00
0703381800
07833C1800
03871C3800
03861E3000
03C61E3000
01CE0E7000
01CC0F6000
01FC0F6000
01FC076000
00F807E000
00F807C000
00F003C000
007003C000
0060030000
ENDCHAR
STARTCHAR 1E88
ENCODING 7816
SWIDTH 854 0
DWIDTH 41 0
BBX 40 40 0 -10
BITMAP
FFE01803FF
3F001800FC
0E001C0030
0F003C0070
0F003C0070
0F003E0070
07007E0060
07007F00E0
07807F00E0
07806700E0
0780E780E0
0380E780C0
03C0C381C0
03C1C3C1C0
03C1C3C1C0
01C181C1C0
01C381E180
01E381E380
01E300E380
01E700F380
00E700F380
00F6007300
00FE007F00
00FE003F00
007C003F00
007C003E00
007C001E00
007C001E00
0078001E00
0030000800
0000000000
0000000000
0000000000
0000000000
0000000000
00001C0000
00001C0000
00003C0000
00003C0000
0000180000
ENDCHAR
STARTCHAR 1E89
ENCODING 7817
SWIDTH 708 0
DWIDTH 34 0
BBX 33 32 0 -10
BITMAP
FFC0603F80
3E00E00F00
1E00E00E00
1E00F00E00
0E01F00C00
0F01F00C00
0F01F81C00
0703F81C00
0703381800
07833C1800
03871C3800
03861E3000
03C61E3000
01CE0E7000
01CC0F6000
01FC0F6000
01FC076000
00F807E000
00F807C000
00F003C000
007003C000
0060030000
0000000000
0000000000
0000000000
0000000000
0000000000
0000E00000
0001E00000
0001E00000
0001E00000
0000C00000
ENDCHAR
STARTCHAR 1E8A
ENCODING 7818
SWIDTH 625 0
DWIDTH 30 0
BBX 28 38 1 0
BITMAP
00040000
000F0000
000F0000
000F0000
000E0000
00040000
00000000
00000000
FFE0FFE0
FFE0FFE0
3F001F00
1F001E00
0F801C00
07803800
03C07800
03E07000
01E0E000
00F1E000
00F9C000
007F8000
003F8000
001F0000
001F0000
001F0000
003F8000
003FC000
0073E000
00F1E000
00E0F000
01C0F800
03C07800
03803C00
07003E00
0F001F00
0E000F00
3E000FC0
FFC07FF0
FFC07FF0
ENDCHAR
STARTCHAR 1E8B
ENCODING 7819
SWIDTH 500 0
DWIDTH 24 0
BBX 24 32 0 0
BITMAP
001C00
003C00
003C00
003C00
001800
000000
000000
000000
000000
000000
7FE3FE
7FE3FE
1F80F8
0F80E0
0780C0
03C1C0
01E380
00F700
00FE00
007C00
003C00
003E00
007F00
00EF00
01C780
0383C0
0301E0
0700F0
0E00F8
3E00FC
FF83FF
FF83FF
ENDCHAR
STARTCHAR 1E8C
ENCODING 7820
SWIDTH 625 0
DWIDTH 30 0
BBX 28 38 1 0
BITMAP
00802000
01E07800
01E07800
01E07800
01C07000
00802000
00000000
00000000
FFE0FFE0
FFE0FFE0
3F001F00
1F001E00
0F801C00
07803800
03C07800
03E07000
01E0E000
00F1E000
00F9C000
007F8000
003F8000
001F0000
001F0000
001F0000
003F8000
003FC000
0073E000
00F1E000
00E0F000
01C0F800
03C07800
03803C00
07003E00
0F001F00
0E000F00
3E000FC0
FFC07FF0
FFC07FF0
ENDCHAR
STARTCHAR 1E8D
ENCODING 7821
SWIDTH 500 0
DWIDTH 24 0
BBX 24 32 0 0
BITMAP
0380E0
0781E0
0781E0
0781E0
0300C0
000000
000000
000000
000000
000000
7FE3FE
7FE3FE
1F80F8
0F80E0
0780C0
03C1C0
01E380
00F700
00FE00
007C00
003C00
003E00
007F00
00EF00
01C780
0383C0
0301E0
0700F0
0E00F8
3E00FC
FF83FF
FF83FF
ENDCHAR
STARTCHAR 1E8E
ENCODING 7822
SWIDTH 604 0
DWIDTH 29 0
BBX 28 38 0 0
BITMAP
00020000
00070000
000F0000
000F0000
000F0000
00040000
00000000
00000000
FC003FF0
FE003FF0
1F000F80
0F000700
0F800E00
07C00E00
03C01C00
03E03C00
01E03800
00F07800
00F87000
0078E000
007DE000
003DC000
003FC000
001F8000
001F8000
000F0000
000F0000
000F0000
000F0000
000F0000
000F0000
000F0000
000F0000
000F0000
000F0000
000F0000
003FC000
00FFF000
ENDCHAR
STARTCHAR 1E8F
ENCODING 7823
SWIDTH 500 0
DWIDTH 24 0
BBX 24 43 -1 -11
BITMAP
000600
000E00
000F00
001E00
000C00
000000
000000
000000
000000
000000
7FE0FF
1F003E
0F001C
0F0018
078038
078038
038030
03C070
03C060
01E0E0
01E0E0
00E0C0
00F1C0
00F1C0
007980
007B80
003B00
003F00
003F00
001E00
001E00
000C00
000C00
001C00
001800
003800
007000
007000
00E000
3FC000
7F8000
FF0000
7C0000
ENDCHAR
STARTCHAR 1E90
ENCODING 7824
SWIDTH 520 0
DWIDTH 25 0
BBX 22 41 1 0
BITMAP
001800
003C00
007E00
00FF00
01E780
03C3C0
0700E0
060060
040040
000000
000000
3FFFFC
3FFFFC
380078
3000F8
3001F0
2001E0
2003E0
0003C0
000780
000F80
000F00
001F00
001E00
003C00
007C00
007800
00F800
01F000
01E000
03E000
03C000
078000
0F8000
0F0004
1F000C
3E000C
3C000C
7C001C
7FFFFC
FFFFFC
ENDCHAR
STARTCHAR 1E91
ENCODING 7825
SWIDTH 437 0
DWIDTH 21 0
BBX 17 34 2 0
BITMAP
00E000
01F000
03F000
073800
061C00
0C0E00
180600
300300
200180
000000
000000
000000
7FFF80
7FFF80
600F00
600F00
401E00
403C00
003C00
007800
00F000
00F000
01E000
03C000
03C000
078000
0F0000
0E0000
1E0080
3C0080
780080
780180
FFFF80
FFFF80
ENDCHAR
STARTCHAR 1E92
ENCODING 7826
SWIDTH 520 0
DWIDTH 25 0
BBX 22 40 1 -10
BITMAP
3FFFFC
3FFFFC
380078
3000F8
3001F0
2001E0
2003E0
0003C0
000780
000F80
000F00
001F00
001E00
003C00
007C00
007800
00F800
01F000
01E000
03E000
03C000
078000
0F8000
0F0004
1F000C
3E000C
3C000C
7C001C
7FFFFC
FFFFFC
000000
000000
000000
000000
000000
001800
003C00
003C00
003800
003800
ENDCHAR
STARTCHAR 1E93
ENCODING 7827
SWIDTH 437 0
DWIDTH 21 0
BBX 17 32 2 -10
BITMAP
7FFF80
7FFF80
600F00
600F00
401E00
403C00
003C00
007800
00F000
00F000
01E000
03C000
03C000
078000
0F0000
0E0000
1E0080
3C0080
780080
780180
FFFF80
FFFF80
000000
000000
000000
000000
000000
00C000
01E000
01E000
01C000
01C000
ENDCHAR
STARTCHAR 1E94
ENCODING 7828
SWIDTH 520 0
DWIDTH 25 0
BBX 22 38 1 -8
BITMAP
3FFFFC
3FFFFC
380078
3000F8
3001F0
2001E0
2003E0
0003C0
000780
000F80
000F00
001F00
001E00
003C00
007C00
007800
00F800
01F000
01E000
03E000
03C000
078000
0F8000
0F0004
1F000C
3E000C
3C000C
7C001C
7FFFFC
FFFFFC
000000
000000
000000
000000
000000
000000
0FFFE0
0FFFE0
ENDCHAR
STARTCHAR 1E95
ENCODING 7829
SWIDTH 437 0
DWIDTH 21 0
BBX 17 30 2 -8
BITMAP
7FFF80
7FFF80
600F00
600F00
401E00
403C00
003C00
007800
00F000
00F000
01E000
03C000
03C000
078000
0F0000
0E0000
1E0080
3C0080
780080
780180
FFFF80
FFFF80
000000
000000
000000
000000
000000
000000
7FFF80
7FFF00
ENDCHAR
STARTCHAR 1E96
ENCODING 7830
SWIDTH 541 0
DWIDTH 26 0
BBX 23 44 2 -8
BITMAP
060000
7E0000
FE0000
3E0000
1E0000
1E0000
1E0000
1E0000
1E0000
1E0000
1E0000
1E0000
1E0000
1E0000
1E0780
1C1FE0
1C31E0
1C60F0
1CC0F0
1D80F0
1F00F0
1F00F0
1E00F0
1E00F0
1E00F0
1E00F0
1E00F0
1E00F0
1E00F0
1E00F0
1E00F0
1E00F0
1E00F0
1E00F0
3F83F8
FFC7FE
000000
000000
000000
000000
000000
000000
0FFFE0
0FFFE0
ENDCHAR
STARTCHAR 1E97
ENCODING 7831
SWIDTH 354 0
DWIDTH 17 0
BBX 16 38 0 0
BITMAP
380E
781E
781E
781E
300C
0000
0000
0000
0300
0700
0F00
0F00
0F00
0F00
0F00
0F00
3FFF
FFFF
0F04
0F00
0F00
0F00
0F00
0F00
0F00
0F00
0F00
0F00
0F00
0F00
0F00
0F00
0F00
0F00
0F01
0787
07FE
03F0
ENDCHAR
STARTCHAR 1E98
ENCODING 7832
SWIDTH 708 0
DWIDTH 34 0
BBX 33 34 0 0
BITMAP
0000F00000
0001F80000
0003980000
00030C0000
00030C0000
0003180000
0003180000
0003F00000
0001E00000
0000000000
0000000000
0000000000
FFC0603F80
3E00E00F00
1E00E00E00
1E00F00E00
0E01F00C00
0F01F00C00
0F01F81C00
0703F81C00
0703381800
07833C1800
03871C3800
03861E3000
03C61E3000
01CE0E7000
01CC0F6000
01FC0F6000
01FC076000
00F807E000
00F807C000
00F003C000
007003C000
0060030000
ENDCHAR
STARTCHAR 1E99
ENCODING 7833
SWIDTH 500 0
DWIDTH 24 0
BBX 24 45 -1 -11
BITMAP
000F00
001F80
003180
003180
0031C0
007180
003180
003F00
001E00
000000
000000
000000
7FE0FF
1F003E
0F001C
0F0018
078038
078038
038030
03C070
03C060
01E0E0
01E0E0
00E0C0
00F1C0
00F1C0
007980
007B80
003B00
003F00
003F00
001E00
001E00
000C00
000C00
001C00
001800
003800
007000
007000
00E000
3FC000
7F8000
FF0000
7C0000
ENDCHAR
STARTCHAR 1EA0
ENCODING 7840
SWIDTH 604 0
DWIDTH 29 0
BBX 28 40 0 -10
BITMAP
00020000
00070000
000F0000
000F0000
001F8000
001F8000
001B8000
003BC000
0039C000
0031E000
0071E000
0070E000
0060F000
00E0F000
00E07000
00C07800
01C07800
01C03800
01FFFC00
03FFFC00
03801E00
03001E00
07001E00
07000F00
06000F00
0E000F00
0E000780
0C000780
3E0007C0
FFC03FF0
00000000
00000000
00000000
00000000
00000000
00070000
000F0000
000F0000
000F0000
00060000
ENDCHAR
STARTCHAR 1EA1
ENCODING 7841
SWIDTH 458 0
DWIDTH 22 0
BBX 20 32 2 -10
BITMAP
01F800
0FFE00
1C1E00
780F00
700F00
F00F00
800F00
000F00
000F00
00FF00
07FF00
1F8F00
3E0F00
780F00
F80F00
F00F00
F00F00
F01F00
F03F00
78EF20
7F8FF0
1E0780
000000
000000
000000
000000
000000
00C000
01E000
01E000
01E000
01C000
ENDCHAR
STARTCHAR 1EA2
ENCODING 7842
SWIDTH 604 0
DWIDTH 29 0
BBX 28 42 0 0
BITMAP
00020000
0007C000
001FC000
0038C000
0038C000
00018000
00020000
00060000
00060000
00030000
00000000
00000000
00020000
00070000
000F0000
000F0000
001F8000
001F8000
001B8000
003BC000
0039C000
0031E000
0071E000
0070E000
0060F000
00E0F000
00E07000
00C07800
01C07800
01C03800
01FFFC00
03FFFC00
03801E00
03001E00
07001E00
07000F00
06000F00
0E000F00
0E000780
0C000780
3E0007C0
FFC03FF0
ENDCHAR
STARTCHAR 1EA3
ENCODING 7843
SWIDTH 458 0
DWIDTH 22 0
BBX 20 34 2 0
BITMAP
007000
01F800
031800
071800
001000
002000
00C000
00C000
006000
000000
000000
000000
01F800
0FFE00
1C1E00
780F00
700F00
F00F00
800F00
000F00
000F00
00FF00
07FF00
1F8F00
3E0F00
780F00
F80F00
F00F00
F00F00
F01F00
F03F00
78EF20
7F8FF0
1E0780
ENDCHAR
STARTCHAR 1EA4
ENCODING 7844
SWIDTH 604 0
DWIDTH 29 0
BBX 28 50 0 0
BITMAP
00003000
00007800
0000FC00
0001F000
0007C000
000F0000
001C0000
00300000
00000000
00060000
000F0000
001F8000
003FC000
0079E000
00F0F000
01C03800
01801800
01001000
00000000
00000000
00020000
00070000
000F0000
000F0000
001F8000
001F8000
001B8000
003BC000
0039C000
0031E000
0071E000
0070E000
0060F000
00E0F000
00E07000
00C07800
01C07800
01C03800
01FFFC00
03FFFC00
03801E00
03001E00
07001E00
07000F00
06000F00
0E000F00
0E000780
0C000780
3E0007C0
FFC03FF0
ENDCHAR
STARTCHAR 1EA5
ENCODING 7845
SWIDTH 458 0
DWIDTH 22 0
BBX 20 46 2 0
BITMAP
000800
000F00
001F00
001E00
003C00
007800
007000
00E000
00C000
018000
000000
000000
00E000
01F000
03F000
073800
061C00
0C0E00
180600
300300
200180
000000
000000
000000
01F800
0FFE00
1C1E00
780F00
700F00
F00F00
800F00
000F00
000F00
00FF00
07FF00
1F8F00
3E0F00
780F00
F80F00
F00F00
F00F00
F01F00
F03F00
78EF20
7F8FF0
1E0780
ENDCHAR
STARTCHAR 1EA6
ENCODING 7846
SWIDTH 604 0
DWIDTH 29 0
BBX 28 50 0 0
BITMAP
00C00000
01E00000
03F00000
00F80000
003E0000
000F0000
00038000
0000C000
00000000
00060000
000F0000
001F8000
003FC000
0079E000
00F0F000
01C03800
01801800
01001000
00000000
00000000
00020000
00070000
000F0000
000F0000
001F8000
001F8000
001B8000
003BC000
0039C000
0031E000
0071E000
0070E000
0060F000
00E0F000
00E07000
00C07800
01C07800
01C03800
01FFFC00
03FFFC00
03801E00
03001E00
07001E00
07000F00
06000F00
0E000F00
0E000780
0C000780
3E0007C0
FFC03FF0
ENDCHAR
STARTCHAR 1EA7
ENCODING 7847
SWIDTH 458 0
DWIDTH 22 0
BBX 20 46 2 0
BITMAP
040000
1E0000
3F0000
0F0000
078000
038000
01C000
00E000
006000
003000
000000
000000
00E000
01F000
03F000
073800
061C00
0C0E00
180600
300300
200180
000000
000000
000000
01F800
0FFE00
1C1E00
780F00
700F00
F00F00
800F00
000F00
000F00
00FF00
07FF00
1F8F00
3E0F00
780F00
F80F00
F00F00
F00F00
F01F00
F03F00
78EF20
7F8FF0
1E0780
ENDCHAR
STARTCHAR 1EA8
ENCODING 7848
SWIDTH 604 0
DWIDTH 29 0
BBX 28 51 0 0
BITMAP
00038000
000FC000
0018C000
0038C000
00208000
00010000
00060000
00060000
00030000
00000000
00060000
000F0000
001F8000
003FC000
0079E000
00F0F000
01C03800
01801800
01001000
00000000
00000000
00020000
00070000
000F0000
000F0000
001F8000
001F8000
001B8000
003BC000
0039C000
0031E000
0071E000
0070E000
0060F000
00E0F000
00E07000
00C07800
01C07800
01C03800
01FFFC00
03FFFC00
03801E00
03001E00
07001E00
07000F00
06000F00
0E000F00
0E000780
0C000780
3E0007C0
FFC03FF0
ENDCHAR
STARTCHAR 1EA9
ENCODING 7849
SWIDTH 458 0
DWIDTH 22 0
BBX 20 45 2 0
BITMAP
002000
00F800
01B800
031800
071800
003000
004000
00C000
00C000
002000
000000
00E000
01F000
03F000
073800
061C00
0C0E00
180600
300300
200180
000000
000000
000000
01F800
0FFE00
1C1E00
780F00
700F00
F00F00
800F00
000F00
000F00
00FF00
07FF00
1F8F00
3E0F00
780F00
F80F00
F00F00
F00F00
F01F00
F03F00
78EF20
7F8FF0
1E0780
ENDCHAR
STARTCHAR 1EAA
ENCODING 7850
SWIDTH 604 0
DWIDTH 29 0
BBX 28 48 0 0
BITMAP
00380800
007E0C00
00FF1800
018FF800
0107F000
0301C000
00000000
00060000
000F0000
001F8000
003FC000
0079E000
00F0F000
01C03800
01801800
01001000
00000000
00000000
00020000
00070000
000F0000
000F0000
001F8000
001F8000
001B8000
003BC000
0039C000
0031E000
0071E000
0070E000
0060F000
00E0F000
00E07000
00C07800
01C07800
01C03800
01FFFC00
03FFFC00
03801E00
03001E00
07001E00
07000F00
06000F00
0E000F00
0E000780
0C000780
3E0007C0
FFC03FF0
ENDCHAR
STARTCHAR 1EAB
ENCODING 7851
SWIDTH 458 0
DWIDTH 22 0
BBX 20 43 2 0
BITMAP
020100
0F8180
1FC180
1FE300
3FFE00
707C00
000000
000000
000000
00E000
01F000
03F000
073800
061C00
0C0E00
180600
300300
200180
000000
000000
000000
01F800
0FFE00
1C1E00
780F00
700F00
F00F00
800F00
000F00
000F00
00FF00
07FF00
1F8F00
3E0F00
780F00
F80F00
F00F00
F00F00
F01F00
F03F00
78EF20
7F8FF0
1E0780
ENDCHAR
STARTCHAR 1EAC
ENCODING 7852
SWIDTH 604 0
DWIDTH 29 0
BBX 28 51 0 -10
BITMAP
00060000
000F0000
001F8000
003FC000
0079E000
00F0F000
01C03800
01801800
01001000
00000000
00000000
00020000
00070000
000F0000
000F0000
001F8000
001F8000
001B8000
003BC000
0039C000
0031E000
0071E000
0070E000
0060F000
00E0F000
00E07000
00C07800
01C07800
01C03800
01FFFC00
03FFFC00
03801E00
03001E00
07001E00
07000F00
06000F00
0E000F00
0E000780
0C000780
3E0007C0
FFC03FF0
00000000
00000000
00000000
00000000
00000000
00070000
000F0000
000F0000
000F0000
00060000
ENDCHAR
STARTCHAR 1EAD
ENCODING 7853
SWIDTH 458 0
DWIDTH 22 0
BBX 20 44 2 -10
BITMAP
00E000
01F000
03F000
073800
061C00
0C0E00
180600
300300
200180
000000
000000
000000
01F800
0FFE00
1C1E00
780F00
700F00
F00F00
800F00
000F00
000F00
00FF00
07FF00
1F8F00
3E0F00
780F00
F80F00
F00F00
F00F00
F01F00
F03F00
78EF20
7F8FF0
1E0780
000000
000000
000000
000000
000000
00C000
01E000
01E000
01E000
01C000
ENDCHAR
STARTCHAR 1EAE
ENCODING 7854
SWIDTH 604 0
DWIDTH 29 0
BBX 28 48 0 0
BITMAP
00003000
00007C00
0000FC00
0003F000
0007C000
000F0000
001C0000
01301000
03000C00
01801800
01C01800
00E07000
00FFF000
007FE000
001FC000
00040000
00000000
00000000
00020000
00070000
000F0000
000F0000
001F8000
001F8000
001B8000
003BC000
0039C000
0031E000
0071E000
0070E000
0060F000
00E0F000
00E07000
00C07800
01C07800
01C03800
01FFFC00
03FFFC00
03801E00
03001E00
07001E00
07000F00
06000F00
0E000F00
0E000780
0C000780
3E0007C0
FFC03FF0
ENDCHAR
STARTCHAR 1EAF
ENCODING 7855
SWIDTH 458 0
DWIDTH 22 0
BBX 20 43 2 0
BITMAP
001000
000F00
001F00
001E00
003C00
007800
007000
00E000
00C000
018000
210100
300180
300300
180700
1E0E00
0FFC00
07F800
01F000
000000
000000
000000
01F800
0FFE00
1C1E00
780F00
700F00
F00F00
800F00
000F00
000F00
00FF00
07FF00
1F8F00
3E0F00
780F00
F80F00
F00F00
F00F00
F01F00
F03F00
78EF20
7F8FF0
1E0780
ENDCHAR
STARTCHAR 1EB0
ENCODING 7856
SWIDTH 604 0
DWIDTH 29 0
BBX 28 48 0 0
BITMAP
00C00000
03E00000
03F00000
00FC0000
003E0000
000F0000
0003C000
0100D000
03000C00
01801800
01C01800
00E07000
00FFF000
007FE000
001FC000
00040000
00000000
00000000
00020000
00070000
000F0000
000F0000
001F8000
001F8000
001B8000
003BC000
0039C000
0031E000
0071E000
0070E000
0060F000
00E0F000
00E07000
00C07800
01C07800
01C03800
01FFFC00
03FFFC00
03801E00
03001E00
07001E00
07000F00
06000F00
0E000F00
0E000780
0C000780
3E0007C0
FFC03FF0
ENDCHAR
STARTCHAR 1EB1
ENCODING 7857
SWIDTH 458 0
DWIDTH 22 0
BBX 20 43 2 0
BITMAP
040000
1E0000
3F0000
0F0000
078000
038000
01C000
00E000
006000
003000
202100
300180
300300
180700
1E0E00
0FFC00
07F800
01F000
000000
000000
000000
01F800
0FFE00
1C1E00
780F00
700F00
F00F00
800F00
000F00
000F00
00FF00
07FF00
1F8F00
3E0F00
780F00
F80F00
F00F00
F00F00
F01F00
F03F00
78EF20
7F8FF0
1E0780
ENDCHAR
STARTCHAR 1EB2
ENCODING 7858
SWIDTH 604 0
DWIDTH 29 0
BBX 28 49 0 0
BITMAP
00078000
000FC000
0018C000
0038C000
00008000
00030000
00060000
00060000
01031000
03000C00
01801800
01C01800
00E07000
00FFF000
007FE000
001FC000
00040000
00000000
00000000
00020000
00070000
000F0000
000F0000
001F8000
001F8000
001B8000
003BC000
0039C000
0031E000
0071E000
0070E000
0060F000
00E0F000
00E07000
00C07800
01C07800
01C03800
01FFFC00
03FFFC00
03801E00
03001E00
07001E00
07000F00
06000F00
0E000F00
0E000780
0C000780
3E0007C0
FFC03FF0
ENDCHAR
STARTCHAR 1EB3
ENCODING 7859
SWIDTH 458 0
DWIDTH 22 0
BBX 20 42 2 0
BITMAP
004000
00F800
01F800
031800
071800
003000
004000
00C000
00C000
206100
300180
300300
180700
1E0E00
0FFC00
07F800
01F000
000000
000000
000000
01F800
0FFE00
1C1E00
780F00
700F00
F00F00
800F00
000F00
000F00
00FF00
07FF00
1F8F00
3E0F00
780F00
F80F00
F00F00
F00F00
F01F00
F03F00
78EF20
7F8FF0
1E0780
ENDCHAR
STARTCHAR 1EB4
ENCODING 7860
SWIDTH 604 0
DWIDTH 29 0
BBX 28 48 0 0
BITMAP
00100800
007E0C00
01FFF800
0187E000
03010000
00000000
00000000
00000000
01000800
03801C00
01801800
00E07000
00FFF000
007FE000
003FC000
00040000
00000000
00000000
00020000
00070000
000F0000
000F0000
001F8000
001F8000
001B8000
003BC000
0039C000
0031E000
0071E000
0070E000
0060F000
00E0F000
00E07000
00C07800
01C07800
01C03800
01FFFC00
03FFFC00
03801E00
03001E00
07001E00
07000F00
06000F00
0E000F00
0E000780
0C000780
3E0007C0
FFC03FF0
ENDCHAR
STARTCHAR 1EB5
ENCODING 7861
SWIDTH 458 0
DWIDTH 22 0
BBX 20 40 2 0
BITMAP
020100
0F8080
1FC180
1FE300
3FFE00
707C00
201000
200100
300180
300300
180700
1E0E00
0FFC00
07F800
01F000
000000
000000
000000
01F800
0FFE00
1C1E00
780F00
700F00
F00F00
800F00
000F00
000F00
00FF00
07FF00
1F8F00
3E0F00
780F00
F80F00
F00F00
F00F00
F01F00
F03F00
78EF20
7F8FF0
1E0780
ENDCHAR
STARTCHAR 1EB6
ENCODING 7862
SWIDTH 604 0
DWIDTH 29 0
BBX 28 51 0 -10
BITMAP
01001000
03000C00
01801800
01C01800
00E07000
00FFF000
007FE000
001FC000
00040000
00000000
00000000
00020000
00070000
000F0000
000F0000
001F8000
001F8000
001B8000
003BC000
0039C000
0031E000
0071E000
0070E000
0060F000
00E0F000
00E07000
00C07800
01C07800
01C03800
01FFFC00
03FFFC00
03801E00
03001E00
07001E00
07000F00
06000F00
0E000F00
0E000780
0C000780
3E0007C0
FFC03FF0
00000000
00000000
00000000
00000000
00000000
00070000
000F0000
000F0000
000F0000
00060000
ENDCHAR
STARTCHAR 1EB7
ENCODING 7863
SWIDTH 458 0
DWIDTH 22 0
BBX 20 43 2 -10
BITMAP
200100
300180
300300
180700
1E0E00
0FFC00
07F800
01F000
000000
000000
000000
01F800
0FFE00
1C1E00
780F00
700F00
F00F00
800F00
000F00
000F00
00FF00
07FF00
1F8F00
3E0F00
780F00
F80F00
F00F00
F00F00
F01F00
F03F00
78EF20
7F8FF0
1E0780
000000
000000
000000
000000
000000
00C000
01E000
01E000
01E000
01C000
ENDCHAR
STARTCHAR 1EB8
ENCODING 7864
SWIDTH 500 0
DWIDTH 24 0
BBX 21 40 1 -10
BITMAP
FFFFE0
7FFFF0
1E0060
1E0060
1E0060
1E0060
1E0000
1E0000
1E0000
1E0000
1E0000
1E0000
1E0000
1FFF80
1FFF80
1E0300
1E0000
1E0000
1E0000
1E0000
1E0000
1E0000
1E0000
1E0000
1E0008
1E0018
1E0018
1F0038
7FFFF0
FFFFF0
000000
000000
000000
000000
000000
003000
007800
007800
007800
007000
ENDCHAR
STARTCHAR 1EB9
ENCODING 7865
SWIDTH 458 0
DWIDTH 22 0
BBX 18 32 2 -10
BITMAP
00F800
07FE00
0E0F00
1C0780
380780
3803C0
7003C0
7003C0
FFFFC0
FFFF80
F00000
F00000
F00000
F00000
F80000
780000
780000
7C00C0
3E0180
1F0700
0FFE00
03F800
000000
000000
000000
000000
000000
006000
00F000
00F000
00F000
00E000
ENDCHAR
STARTCHAR 1EBA
ENCODING 7866
SWIDTH 500 0
DWIDTH 24 0
BBX 21 42 1 0
BITMAP
001000
007C00
00FE00
01C600
01C400
000800
003000
006000
003000
001800
000000
000000
FFFFE0
7FFFF0
1E0060
1E0060
1E0060
1E0060
1E0000
1E0000
1E0000
1E0000
1E0000
1E0000
1E0000
1FFF80
1FFF80
1E0300
1E0000
1E0000
1E0000
1E0000
1E0000
1E0000
1E0000
1E0000
1E0008
1E0018
1E0018
1F0038
7FFFF0
FFFFF0
ENDCHAR
STARTCHAR 1EBB
ENCODING 7867
SWIDTH 458 0
DWIDTH 22 0
BBX 18 34 2 0
BITMAP
007800
00FC00
018C00
038C00
000800
003000
006000
00E000
003000
000000
000000
000000
00F800
07FE00
0E0F00
1C0780
380780
3803C0
7003C0
7003C0
FFFFC0
FFFF80
F00000
F00000
F00000
F00000
F80000
780000
780000
7C00C0
3E0180
1F0700
0FFE00
03F800
ENDCHAR
STARTCHAR 1EBC
ENCODING 7868
SWIDTH 500 0
DWIDTH 24 0
BBX 21 39 1 0
BITMAP
010040
03E060
07F0C0
0FFFC0
1C7F80
181F00
100800
000000
000000
FFFFE0
7FFFF0
1E0060
1E0060
1E0060
1E0060
1E0000
1E0000
1E0000
1E0000
1E0000
1E0000
1E0000
1FFF80
1FFF80
1E0300
1E0000
1E0000
1E0000
1E0000
1E0000
1E0000
1E0000
1E0000
1E0008
1E0018
1E0018
1F0038
7FFFF0
FFFFF0
ENDCHAR
STARTCHAR 1EBD
ENCODING 7869
SWIDTH 458 0
DWIDTH 22 0
BBX 18 32 2 0
BITMAP
0380C0
0FC0C0
0FE180
1FF300
38FE00
303C00
000000
000000
000000
000000
00F800
07FE00
0E0F00
1C0780
380780
3803C0
7003C0
7003C0
FFFFC0
FFFF80
F00000
F00000
F00000
F00000
F80000
780000
780000
7C00C0
3E0180
1F0700
0FFE00
03F800
ENDCHAR
STARTCHAR 1EBE
ENCODING 7870
SWIDTH 500 0
DWIDTH 24 0
BBX 21 50 1 0
BITMAP
000100
0003C0
0007E0
001F80
003E00
007800
01E000
018000
000000
003000
007800
00FC00
01FE00
03CF00
070700
0E0180
1C00C0
100080
000000
000000
FFFFE0
7FFFF0
1E0060
1E0060
1E0060
1E0060
1E0000
1E0000
1E0000
1E0000
1E0000
1E0000
1E0000
1FFF80
1FFF80
1E0300
1E0000
1E0000
1E0000
1E0000
1E0000
1E0000
1E0000
1E0000
1E0008
1E0018
1E0018
1F0038
7FFFF0
FFFFF0
ENDCHAR
STARTCHAR 1EBF
ENCODING 7871
SWIDTH 458 0
DWIDTH 22 0
BBX 18 46 2 0
BITMAP
000400
000F80
000F00
001E00
001E00
003C00
003800
007000
00E000
00C000
000000
000000
00F000
00F000
01F800
039C00
070E00
0E0600
0C0300
180180
100080
000000
000000
000000
00F800
07FE00
0E0F00
1C0780
380780
3803C0
7003C0
7003C0
FFFFC0
FFFF80
F00000
F00000
F00000
F00000
F80000
780000
780000
7C00C0
3E0180
1F0700
0FFE00
03F800
ENDCHAR
STARTCHAR 1EC0
ENCODING 7872
SWIDTH 500 0
DWIDTH 24 0
BBX 21 50 1 0
BITMAP
040000
1F0000
1F8000
0FC000
03F000
00F800
001C00
000600
000000
003000
007800
00FC00
01FE00
03CF00
070700
0E0180
1C00C0
100080
000000
000000
FFFFE0
7FFFF0
1E0060
1E0060
1E0060
1E0060
1E0000
1E0000
1E0000
1E0000
1E0000
1E0000
1E0000
1FFF80
1FFF80
1E0300
1E0000
1E0000
1E0000
1E0000
1E0000
1E0000
1E0000
1E0000
1E0008
1E0018
1E0018
1F0038
7FFFF0
FFFFF0
ENDCHAR
STARTCHAR 1EC1
ENCODING 7873
SWIDTH 458 0
DWIDTH 22 0
BBX 18 46 2 0
BITMAP
020000
1F0000
0F0000
078000
038000
01C000
01E000
00E000
007000
003000
000800
000000
00F000
00F000
01F800
039C00
070E00
0E0600
0C0300
180180
100080
000000
000000
000000
00F800
07FE00
0E0F00
1C0780
380780
3803C0
7003C0
7003C0
FFFFC0
FFFF80
F00000
F00000
F00000
F00000
F80000
780000
780000
7C00C0
3E0180
1F0700
0FFE00
03F800
ENDCHAR
STARTCHAR 1EC2
ENCODING 7874
SWIDTH 500 0
DWIDTH 24 0
BBX 21 51 1 0
BITMAP
003C00
007E00
00CE00
01C600
010400
001800
003000
006000
003000
000800
003000
007800
00FC00
01FE00
03CF00
070700
0E0180
1C00C0
100080
000000
000000
FFFFE0
7FFFF0
1E0060
1E0060
1E0060
1E0060
1E0000
1E0000
1E0000
1E0000
1E0000
1E0000
1E0000
1FFF80
1FFF80
1E0300
1E0000
1E0000
1E0000
1E0000
1E0000
1E0000
1E0000
1E0000
1E0008
1E0018
1E0018
1F0038
7FFFF0
FFFFF0
ENDCHAR
STARTCHAR 1EC3
ENCODING 7875
SWIDTH 458 0
DWIDTH 22 0
BBX 18 45 2 0
BITMAP
002000
00FC00
01DC00
038C00
038800
001000
006000
006000
00E000
001000
000000
00F000
00F000
01F800
039C00
070E00
0E0600
0C0300
180180
100080
000000
000000
000000
00F800
07FE00
0E0F00
1C0780
380780
3803C0
7003C0
7003C0
FFFFC0
FFFF80
F00000
F00000
F00000
F00000
F80000
780000
780000
7C00C0
3E0180
1F0700
0FFE00
03F800
ENDCHAR
STARTCHAR 1EC4
ENCODING 7876
SWIDTH 500 0
DWIDTH 24 0
BBX 21 48 1 0
BITMAP
01C040
07E060
07F8C0
0CFF80
183F00
101E00
000000
003000
007800
00FC00
01FE00
03CF00
070700
0E0180
1C00C0
100080
000000
000000
FFFFE0
7FFFF0
1E0060
1E0060
1E0060
1E0060
1E0000
1E0000
1E0000
1E0000
1E0000
1E0000
1E0000
1FFF80
1FFF80
1E0300
1E0000
1E0000
1E0000
1E0000
1E0000
1E0000
1E0000
1E0000
1E0008
1E0018
1E0018
1F0038
7FFFF0
FFFFF0
ENDCHAR
STARTCHAR 1EC5
ENCODING 7877
SWIDTH 458 0
DWIDTH 22 0
BBX 18 43 2 0
BITMAP
010080
07C0C0
0FE080
1FF180
1DFF00
307E00
000000
000000
000000
00F000
00F000
01F800
039C00
070E00
0E0600
0C0300
180180
100080
000000
000000
000000
00F800
07FE00
0E0F00
1C0780
380780
3803C0
7003C0
7003C0
FFFFC0
FFFF80
F00000
F00000
F00000
F00000
F80000
780000
780000
7C00C0
3E0180
1F0700
0FFE00
03F800
ENDCHAR
STARTCHAR 1EC6
ENCODING 7878
SWIDTH 500 0
DWIDTH 24 0
BBX 21 51 1 -10
BITMAP
003000
007800
00FC00
01FE00
03CF00
070700
0E0180
1C00C0
100080
000000
000000
FFFFE0
7FFFF0
1E0060
1E0060
1E0060
1E0060
1E0000
1E0000
1E0000
1E0000
1E0000
1E0000
1E0000
1FFF80
1FFF80
1E0300
1E0000
1E0000
1E0000
1E0000
1E0000
1E0000
1E0000
1E0000
1E0008
1E0018
1E0018
1F0038
7FFFF0
FFFFF0
000000
000000
000000
000000
000000
003000
007800
007800
007800
007000
ENDCHAR
STARTCHAR 1EC7
ENCODING 7879
SWIDTH 458 0
DWIDTH 22 0
BBX 18 44 2 -10
BITMAP
00F000
00F000
01F800
039C00
070E00
0E0600
0C0300
180180
100080
000000
000000
000000
00F800
07FE00
0E0F00
1C0780
380780
3803C0
7003C0
7003C0
FFFFC0
FFFF80
F00000
F00000
F00000
F00000
F80000
780000
780000
7C00C0
3E0180
1F0700
0FFE00
03F800
000000
000000
000000
000000
000000
006000
00F000
00F000
00F000
00E000
ENDCHAR
STARTCHAR 1EC8
ENCODING 7880
SWIDTH 291 0
DWIDTH 14 0
BBX 10 42 2 0
BITMAP
0400
1F00
3F80
7180
7180
0200
0C00
1C00
0C00
0600
0000
0000
FFC0
7F80
1E00
1E00
1E00
1E00
1E00
1E00
1E00
1E00
1E00
1E00
1E00
1E00
1E00
1E00
1E00
1E00
1E00
1E00
1E00
1E00
1E00
1E00
1E00
1E00
1E00
1E00
7F80
FFC0
ENDCHAR
STARTCHAR 1EC9
ENCODING 7881
SWIDTH 270 0
DWIDTH 13 0
BBX 10 34 2 0
BITMAP
0F00
1F80
3380
6180
1300
0600
0800
1800
0C00
0200
0000
0000
0600
7E00
FE00
3E00
1E00
1E00
1E00
1E00
1E00
1E00
1E00
1E00
1E00
1E00
1E00
1E00
1E00
1E00
1E00
1E00
3F00
FFC0
ENDCHAR
STARTCHAR 1ECA
ENCODING 7882
SWIDTH 291 0
DWIDTH 14 0
BBX 10 40 2 -10
BITMAP
FFC0
7F80
1E00
1E00
1E00
1E00
1E00
1E00
1E00
1E00
1E00
1E00
1E00
1E00
1E00
1E00
1E00
1E00
1E00
1E00
1E00
1E00
1E00
1E00
1E00
1E00
1E00
1E00
7F80
FFC0
0000
0000
0000
0000
0000
0E00
1E00
1E00
1E00
1C00
ENDCHAR
ENDFONT
